<?xml version="1.0" encoding="UTF-8"?>
<svg id="Capa_2" data-name="Capa 2" xmlns="http://www.w3.org/2000/svg" viewBox="0 0 266.36 500.65">
  <defs>
    <style>
      .cls-1 {
        fill: #767889;
      }

      .cls-2 {
        fill: #df3606;
      }

      .cls-3 {
        fill: #fefefd;
      }

      .cls-4 {
        fill: #d98100;
      }

      .cls-5 {
        fill: #00523e;
      }
    </style>
  </defs>
  <g id="Layer_1" data-name="Layer 1">
    <g>
      <path class="cls-2" d="M64.68,7.39c1.91-3.98,5.69-7.8,10.46-7.35,3.9-.4,7.32,1.95,9.93,4.58,2.12-2.23,4.61-4.78,7.97-4.56,3.32-.26,6.1,1.95,8.22,4.24,3.08-1.83,6.94-2.45,10.12-.43,15.23,8.21,26.13,23.95,28.45,41.1.68,4.96.64,9.99.24,14.98,10.08,2.93,20.02,6.74,29.03,12.17,11.72,8.51,20.1,21.69,21.77,36.19,1.91,15.44-4.36,31.32-15.51,42-7.33,6.59-16.48,11.41-26.33,12.7-8.63,1.02-17.42.62-25.96,2.41-10.11,2-20.07,5.38-28.88,10.81-.16-12.08-.08-24.19-1.36-36.22-.59-4.54-1.1-9.26-3.38-13.32-4.4-7.62-10.69-14.19-18.33-18.6-5.63-2.76-12.07-2.05-18.14-2.17,3.71-.73,7.48-.76,11.23-.41-5.33-3.75-11.25-6.6-16.3-10.75-8.7-7.42-14.74-17.75-17.59-28.78-4.19-17.64.48-37.37,12.95-50.69,1.61-1.88,4.28-1.64,6.5-1.88,1.18-2.98,2.96-6.23,6.34-7.04,2.88-1.24,5.82.09,8.57,1.02ZM107.21,84.19c-5.4,1.51-9.46,6.58-10.42,12.01-1.55,8.52,5.65,17.29,14.33,17.33,9,.58,16.97-8.46,15.28-17.31-1.23-8.6-10.88-14.85-19.19-12.03Z"/>
      <path class="cls-2" d="M32.26,355.17c16.61-.16,33.22-.03,49.83-.07v13.75c-7.51-.55-15.02-.96-22.54-1.23.65,18.51,1.27,37.02,1.85,55.54-4.3,0-8.59,0-12.88-.01.41-18.76.75-37.52,1.08-56.29-5.78-.54-11.57-.95-17.34-1.57.04-3.38.04-6.75,0-10.12Z"/>
      <path class="cls-2" d="M89.84,355.1c3.32-.01,6.63-.01,9.95.05,1.14,20.55,2.44,41.11,3.8,61.65-12.77.12-25.54.03-38.31.05.9-14.44,1.66-28.89,2.87-43.3,3.21.06,6.41.06,9.62.01.65,10.83,1.11,21.67,1.37,32.52,3.48.02,6.96.02,10.44.02-.16-17,.25-34,.26-51Z"/>
      <path class="cls-2" d="M109.55,416.59c.74-20.49.59-41.01,1.33-61.49,12.25,0,24.5-.01,36.75,0-.82,20.58-1.21,41.17-2.07,61.75-3.21,0-6.43,0-9.64.03-.85-16.38-.42-32.82-1.15-49.19-4.6-.4-9.21-.86-13.8-1.38.52,16.77.98,33.53,1.65,50.29-4.36.01-8.71.01-13.07-.01Z"/>
      <path class="cls-2" d="M153.6,416.59c.9-20.49,1.35-41.01,2.32-61.5,2.9-.02,5.8-.01,8.7.12.23,7.95.53,15.9.79,23.86,3.79-8.04,7.87-15.93,11.66-23.97h15.41c-3.65,5.26-7.34,10.49-11.05,15.71,4.35,15.28,8.77,30.54,13.17,45.81-4.32-.03-8.62-.02-12.93-.01-2.45-11.83-4.9-23.65-7.38-35.47-2.95,3.9-5.66,7.97-8.49,11.95.29,7.83.43,15.67.83,23.5-4.35.02-8.69.02-13.03,0Z"/>
      <path class="cls-2" d="M202.76,355.52c2.9-1.03,6.63-.2,9.85-.3.18,20.53.67,41.06.94,61.6-4.29.02-8.59.15-12.88-.12.85-20.38,1.17-40.8,2.09-61.18Z"/>
    </g>
    <g>
      <path d="M169.1,72.12c5.81,1.57,10.84,5.01,16.05,7.89,17.54,10.67,33.87,24.96,42.85,43.73,2.51,13.02,2.28,26.31,1.08,39.45-1.55.5-1.71,2.44-1.18,3.74l.32,1.24c-1.79.35-1.59,2.49-1.2,3.82.02.48.08,1.46.1,1.95-.24.56-.73,1.68-.98,2.24-3.4,14.4-9.74,28.16-18.35,40.18-.1.13-.28.38-.37.5l-1.44,1.84c-1.42.36-2.02,1.26-1.8,2.71-12.97,16.47-30.37,29.11-49.48,37.55-4.08,1.2-8.39,1.07-12.6,1.15-32.27-.06-64.54.08-96.81-.07.17-18.68,5.44-37.38,15.83-52.96,8.29-12.8,20.05-23.07,33.07-30.85,8.81-5.43,18.77-8.81,28.88-10.81,8.54-1.79,17.33-1.39,25.96-2.41,9.85-1.29,19-6.11,26.33-12.7,11.15-10.68,17.42-26.56,15.51-42-1.67-14.5-10.05-27.68-21.77-36.19Z"/>
      <path d="M106.43,92.36c2.58-2.57,6.83-2.96,10-1.28-.82.74-1.63,1.48-2.45,2.22.03,1.46.04,3.02,1.3,4.03.24.26.73.79.98,1.06,1.46-.4,2.91-.84,4.35-1.32-.08,1.06-.26,3.16-.35,4.21-1.57,6.04-10.37,7.56-14.24,2.92-2.97-3.25-2.96-8.88.41-11.84Z"/>
      <path d="M252.39,275.57c3.5-.96,7.87-1.18,10.76,1.42,5.08,3.99,4,13.57-2.33,15.74-3.53.88-7.86,1.07-10.81-1.43-5.21-3.93-3.88-13.54,2.38-15.73ZM253.35,277.36c-4.76,1.98-5.74,9.04-1.84,12.36,3.81,3.77,11.34,1.77,12.3-3.67,1.91-5.83-5.05-11.75-10.46-8.69Z"/>
      <path d="M252.97,279.82l2.51-.84c-.21,1.69-.34,3.39-.43,5.1,1.63-.29,3.48-.48,3.66-2.65l-2.35-.2c.72-.67,1.44-1.33,2.18-1.99,2.74.68,2.87,3.77.86,5.25.85,1.49,1.46,3.1,1.9,4.77-3.63.86-2.61-4.48-6.03-4.29-.09,1.38-.17,2.75-.24,4.13h-2.17c0-3.1-.16-6.2.11-9.28Z"/>
    </g>
    <g>
      <path class="cls-4" d="M107.21,84.19c8.31-2.82,17.96,3.43,19.19,12.03,1.69,8.85-6.28,17.89-15.28,17.31-8.68-.04-15.88-8.81-14.33-17.33.96-5.43,5.02-10.5,10.42-12.01ZM104.55,88.43s-.11.08-.15.1c-1.12.81-2.08,1.78-2.88,2.91-.02.04-.07.11-.09.14-.82,1.16-1.31,2.43-1.47,3.8-1.7.37-1.92,1.3-.65,2.76l-.02.94c-1.25,1.47-1.02,2.38.68,2.74.14,1.35.62,2.6,1.43,3.76.03.03.07.1.09.14.82,1.12,1.79,2.1,2.91,2.94.04.03.11.09.15.12.72.35,2.14,1.06,2.86,1.42l-.06.87,1.6.28c1.77-.04,3.54-.03,5.32.02.39-.07,1.19-.22,1.59-.29l-.09-.86c3.07-.21,5.38-3.05,6.96-5.48.02-.04.07-.12.09-.16,3.61-5.85.82-13.98-5.1-17.1-.04-.02-.12-.05-.15-.07-4.19-2.16-9.24-1.82-13.02,1.02Z"/>
      <path class="cls-4" d="M31.15,111.62c4.8-6.31,10.36-12.16,16.76-16.86,5.05,4.15,10.97,7,16.3,10.75-3.75-.35-7.52-.32-11.23.41-7.51.88-14.81,2.96-21.83,5.7Z"/>
    </g>
    <path class="cls-3" d="M104.55,88.43c3.78-2.84,8.83-3.18,13.02-1.02.03.02.11.05.15.07,5.92,3.12,8.71,11.25,5.1,17.1-.02.04-.07.12-.09.16-1.58,2.43-3.89,5.27-6.96,5.48-.38.29-1.13.87-1.5,1.15-1.78-.05-3.55-.06-5.32-.02-.38-.29-1.16-.87-1.54-1.15-.72-.36-2.14-1.07-2.86-1.42-.04-.03-.11-.09-.15-.12-1.12-.84-2.09-1.82-2.91-2.94-.02-.04-.06-.11-.09-.14-.81-1.16-1.29-2.41-1.43-3.76.12-1-.11-1.92-.68-2.74l.02-.94c.55-.84.77-1.77.65-2.76.16-1.37.65-2.64,1.47-3.8.02-.03.07-.1.09-.14.8-1.13,1.76-2.1,2.88-2.91.04-.02.11-.08.15-.1ZM106.43,92.36c-3.37,2.96-3.38,8.59-.41,11.84,3.87,4.64,12.67,3.12,14.24-2.92.79-1.9.6-3.97.37-5.96-1.06,2.01-3.42,1.86-5.35,2.01-1.26-1.01-1.27-2.57-1.3-4.03.82-.74,1.63-1.48,2.45-2.22-3.17-1.68-7.42-1.29-10,1.28Z"/>
    <g>
      <path class="cls-1" d="M117.57,87.41s.11.05.15.07c-.04-.02-.12-.05-.15-.07Z"/>
      <path class="cls-1" d="M104.4,88.53s.11-.08.15-.1c-.04.02-.11.08-.15.1Z"/>
      <path class="cls-1" d="M101.43,91.58s.07-.1.09-.14c-.02.04-.07.11-.09.14Z"/>
      <path class="cls-1" d="M99.31,98.14c-1.27-1.46-1.05-2.39.65-2.76.12.99-.1,1.92-.65,2.76Z"/>
      <path class="cls-1" d="M120.63,95.32c.23,1.99.42,4.06-.37,5.96.09-1.05.27-3.15.35-4.21-1.44.48-2.89.92-4.35,1.32-.25-.27-.74-.8-.98-1.06,1.93-.15,4.29,0,5.35-2.01Z"/>
      <path class="cls-1" d="M99.29,99.08c.57.82.8,1.74.68,2.74-1.7-.36-1.93-1.27-.68-2.74Z"/>
      <path class="cls-1" d="M122.73,104.74s.07-.12.09-.16c-.02.04-.07.12-.09.16Z"/>
      <path class="cls-1" d="M101.4,105.58s.07.1.09.14c-.02-.04-.06-.11-.09-.14Z"/>
      <path class="cls-1" d="M104.4,108.66s.11.09.15.12c-.04-.03-.11-.09-.15-.12Z"/>
      <path class="cls-1" d="M107.41,110.2c.38.28,1.16.86,1.54,1.15l-1.6-.28.06-.87Z"/>
      <path class="cls-1" d="M114.27,111.37c.37-.28,1.12-.86,1.5-1.15l.09.86c-.4.07-1.2.22-1.59.29Z"/>
      <path class="cls-1" d="M228,123.74c7.32,13.44,10.05,29.1,9.36,44.3-1.11,24.34-11.83,48.13-29.49,64.94-14.23,14.17-33.22,23.65-53.17,25.98,19.11-8.44,36.51-21.08,49.48-37.55,1.29-.44,1.88-1.34,1.8-2.71l1.44-1.84c.09-.12.27-.37.37-.5,8.61-12.02,14.95-25.78,18.35-40.18.25-.56.74-1.68.98-2.24-.02-.49-.08-1.47-.1-1.95.94-1,1.82-2.42,1.2-3.82l-.32-1.24c1.48-.62,1.41-2.43,1.18-3.74,1.2-13.14,1.43-26.43-1.08-39.45Z"/>
    </g>
    <g>
      <path class="cls-5" d="M227.9,166.93c-.53-1.3-.37-3.24,1.18-3.74.23,1.31.3,3.12-1.18,3.74Z"/>
      <path class="cls-5" d="M227.02,171.99c-.39-1.33-.59-3.47,1.2-3.82.62,1.4-.26,2.82-1.2,3.82Z"/>
      <path class="cls-5" d="M226.14,176.18c.25-.56.74-1.68.98-2.24-.24.56-.73,1.68-.98,2.24Z"/>
      <path class="cls-5" d="M207.42,216.86c.09-.12.27-.37.37-.5-.1.13-.28.38-.37.5Z"/>
      <path class="cls-5" d="M204.18,221.41c-.22-1.45.38-2.35,1.8-2.71.08,1.37-.51,2.27-1.8,2.71Z"/>
      <path class="cls-5" d="M.03,261.06c10.95.41,21.9.28,32.85.29-1.05,17.91-.82,35.85-.79,53.77-.12,10.01.4,20.02.76,30.02-4.09-.35-8.19-.37-12.28-.01.56-18.27.89-36.53.81-54.81-3.42.29-6.85.53-10.29.58-.22,18.08.24,36.15.75,54.22-3.93-.08-7.87-.08-11.8-.01-.12-18.67,1.04-37.33.4-55.99-.21-9.36-.54-18.71-.41-28.06ZM11.62,271.59c-.23,3.43-.34,6.87-.55,10.3,3.35-.17,6.69-.42,10.03-.67.05-3.22-.06-6.44-.35-9.64-3.05.02-6.09.02-9.13.01Z"/>
      <path class="cls-5" d="M38.8,280.16c4.45.52,8.94.51,13.42.39-.15.81-.44,2.45-.59,3.27,5.62-.6,11.12-1.86,16.61-3.11,2.07-.89,2.28,2.01,3.04,3.15,6.46-.48,12.77-1.98,19.03-3.59,1.7,3.01,1.69,6.49,1.52,9.85-.97,18.33-.35,36.68.27,55.01-3.85-.02-7.7-.34-11.55-.07.93-17.87.4-35.75-.24-53.61-3.12.65-6.2,1.44-9.21,2.47-.52,17.06-.41,34.16.51,51.21-3.94.01-7.88-.32-11.83-.09,1.13-17.82.58-35.7-.22-53.51-3.12.61-6.2,1.42-9.19,2.48-.74,17-.93,34.01-.74,51.02-3.69-.54-7.43-.47-11.13-.17,1.1-10.22.81-20.51.83-30.78.35-11.31-.1-22.62-.53-33.92Z"/>
      <path class="cls-5" d="M98.5,280.56c10.54-.01,21.08.3,31.61-.36-1.24,21.62-.86,43.3-.02,64.94-3.86-.07-7.71-.33-11.56-.15.02-.75.05-2.24.06-2.99-6.35.4-12.53,1.98-18.72,3.33-1.1-1.9-1.75-4.03-1.55-6.25.31-9.69.71-19.39-.05-29.07,6.83-2.09,13.63-4.31,20.33-6.8.04-4.12-.19-8.24-.39-12.35-2.83-.01-5.65-.02-8.48-.06-.42,2.98-.46,5.98-.42,8.99-3.41.69-6.82,1.45-10.21,2.25.06-7.17-.47-14.32-.6-21.48ZM109.35,316.61c.14,5.87.09,11.75.56,17.61,3.01-.62,6-1.4,8.94-2.32.16-6.17-.38-12.33-.24-18.5-3.11,1-6.21,2.05-9.26,3.21Z"/>
      <path class="cls-5" d="M134.87,280.71c10.58-.23,21.18-.11,31.77-.06-.5,4.61.07,9.56-2.17,13.8-6.32,13.15-12.15,26.54-16.97,40.32,6.35.73,12.72-.21,19.09.09.01,3.51.01,7.03-.03,10.55-10.58-.64-21.17-.39-31.76-.32.61-4.7-.28-9.81,2.12-14.1,6.15-13.09,12-26.36,16.47-40.13-6.19-.09-12.38-.04-18.55.51.32-3.55.35-7.12.03-10.66Z"/>
      <path class="cls-5" d="M171.08,280.12c10.67.66,21.38.62,32.05.29-1.21,21.56-1.2,43.17,0,64.74-10.59-.55-21.22-.39-31.81.22.85-21.74,1.18-43.52-.24-65.25ZM183.14,290.8c-.76,14.68-.87,29.42.05,44.1,2.71-.04,5.43-.06,8.15-.12.25-14.72.54-29.47-.04-44.19-2.73-.04-5.45,0-8.16.21Z"/>
      <path class="cls-5" d="M209.03,280.12c4.1.53,8.24.53,12.36.49-.05.83-.16,2.5-.22,3.33,6.37-.79,12.68-2.06,18.89-3.68.99,2.15,1.61,4.47,1.41,6.86-.63,19.35-.35,38.71.23,58.05-3.84-.27-7.68-.41-11.52-.28,1.37-17.81.31-35.67-.12-53.5-3.1.66-6.18,1.41-9.19,2.39-1.14,17.04-.68,34.13-.81,51.2-3.65-.57-7.36-.62-11.02-.08,1.28-21.57,1.01-43.21-.01-64.78Z"/>
      <path class="cls-5" d="M231.81,442.92c1.36-1.79,3.7-4.29,6.07-2.55,1.12,1.84.06,3.98-.56,5.81-2.62,6.42-6.49,12.22-10.2,18.05-.86,1.23-1.1,4.24,1.01,4.36,3.35.07,4.5-3.77,6.77-5.58-2.82-5.64,4.38-9.93,9.16-10.38,2.13.22,1.28,2.75.24,3.65-1.03,1.38-2.64.17-3.98.45-1.45.93-2.48,2.33-3.54,3.65,1.7-.06,4.5-2.25,4.94.53-2.1,2.09-5.95,3.19-6.11,6.62,4.58,1.02,7.53-2.85,10.5-5.56,0,1.48.71,3.3-.77,4.35-3.01,3.38-8.12,5.4-12.35,3.01-2.13,1.28-4.59,3.14-7.2,2.11-2.3-1.12-2.27-4.1-2.27-6.29.47-8.01,3.54-15.8,8.29-22.23ZM227.11,459.37c3.57-5.06,6.77-10.69,8.3-16.75-4.21,4.63-7,10.65-8.3,16.75Z"/>
      <path class="cls-5" d="M216.42,445.41c.79-2.16,2.42-3.79,4.89-3.61-2.19,5.08-4.56,10.08-6.85,15.11,2.57-.97,7.32-1.96,7.38,2.19-.75,6.43-5.16,13.02-11.57,14.95-.89-.57-1.76-1.12-2.64-1.66-1.39,1.23-3.05,3.11-5.12,2.27-1.94-.55-1.92-2.8-2-4.42-2.12,2.92-5.62,7.73-9.6,4.73-2.3,1.73-6.09,3.61-8.21.58-1.07-3.38,1.44-6.63,2.57-9.7-.17-.65-.52-1.95-.7-2.6,1.59-1.28,4.02-5.51,5.85-2.26-1.16,4.62-4.21,8.66-4.62,13.48,2.02-.66,4.25-1.79,4.57-4.15,1.17-4.69,4.42-9.02,8.95-10.88,2.42-.35,4.91-.06,7.32-.66-1.18,4.38-3.72,8.56-3.15,13.25,2.27-.74,3.84-2.67,4.32-4.99,1.92-7.55,5.3-14.61,8.61-21.63ZM212.06,463.16c-.8,2.58-2.15,5.26-1.36,8.02,4.3-2.43,8.12-7.14,7.6-12.32-2.21,1.12-5.65,1.41-6.24,4.3ZM193.28,473c4.24-2.71,7.33-7.12,8.93-11.86-4.93,1.82-8.35,6.71-8.93,11.86Z"/>
      <path class="cls-5" d="M180.15,449.16c.66-1.63,2.48-1.97,3.98-2.41-2.88,7.3-6.6,14.23-9.63,21.47,2.65-.78,5.37-1.85,8.18-1.11-.85,1.46-2.45,2.05-3.85,2.81.48,1.52,1.51,3.09.76,4.71-2.1,6.17-6.19,11.63-11.18,15.77-1.43,1.62-4.51,1.17-4.56-1.26.18-3.51,1.52-6.79,2.96-9.94-2.2,1.02-5.45,1.31-6.34-1.53-.52-4.15,2.18-7.77,3.54-11.51-4.67,4.29-7.67,9.93-11.23,15.08-1.28-.55-2.77-1.41-1.54-2.99,1.74-4.21,3.48-8.43,5.4-12.56.47-1.74,2.38-1.9,3.86-2.15-.42,1.46-.85,2.93-1.3,4.39,1.99-2.26,5.73-7.34,8.6-3.81-.65,4.55-4.67,8.13-4.46,12.88,2.22.5,3.5-1.78,4.96-2.99-.39-.5-1.17-1.51-1.56-2.02,1.1-1.75,2.73-2.94,4.63-3.69,2.89-6.39,5.57-12.89,8.78-19.14ZM172.87,471.79c-1.94,5.43-5.14,10.52-5.81,16.33,4.23-3.75,8.17-8.46,9.33-14.11.5-2.28-1.79-3.26-3.52-2.22Z"/>
      <path class="cls-5" d="M191.58,452.71c4.3-1.49.73,6.85-2.11,3.92.05-1.54.57-3.26,2.11-3.92Z"/>
      <path class="cls-5" d="M99.97,469.25c-3.62-.59-.3-5.02,2.07-5.22.82,2.02-.03,4.34-2.07,5.22Z"/>
      <path class="cls-5" d="M138,475.17c1.44-4.3,4.66-8.72,9.26-9.81,1.75.36,4.75.38,4.85,2.74-.64,5.69-4.17,11.09-9,14.11-2.08,1.35-4.7.68-5.6-1.69-2.76,2.01-5.84,3.98-9.34,4.17-3.03.17-5.66-2.51-5.35-5.54.57-6.11,5.88-12.36,12.35-12,3.38,1.34.63,6.71-2.5,6.41.2-1.02.6-3.05.8-4.07-3.53,1.63-6.58,4.77-7.55,8.59-.06,1.42.16,3.71,2.13,3.53,4-.07,9.03-2.09,9.95-6.44ZM146.44,468.35c-3.66,2.69-6.63,7.1-6.05,11.82,4.92-1.54,7.24-6.86,8.48-11.44-.6-.1-1.82-.28-2.43-.38Z"/>
      <path class="cls-5" d="M21.17,471.51c2.5-.92,4.15-3.56,6.89-3.9,1.65-.57,2.47.9,3.14,2.08-2.01,1.77-4.46,2.88-7,3.68-4.02,7.14-7.22,14.69-10.77,22.07-1.31,2.87-3.71,6.35-7.38,4.84-.14-2.47.99-4.64,2.22-6.68.42-.01,1.28-.04,1.7-.05,3.78-5.85,6.17-12.46,9.5-18.56-4.53,1.44-9.58,3.77-14.3,1.91-1.86-2.07.8-4.11,2.45-5.08.06.54.2,1.61.27,2.15,4.52-.16,9.01-.99,13.28-2.46Z"/>
      <path class="cls-5" d="M102.37,475.55c2.2-3.01,5.84-6.52,9.86-4.61,2.49.11,2.04,3.21,1.53,4.88-1.74,4.68-4.57,9.44-9.22,11.68-1.62.84-3.3.1-4.68-.82-2.41,2.5-6.45,3.52-8.84.41-2.55,1.48-5.13,3.12-8.08,3.67-2.82.34-6.17-1.54-6.1-4.7-.21-6.35,5.09-12.21,11.33-13.02,4.36.13,2.12,7.3-1.44,6.37.14-.96.43-2.9.57-3.87-3.7,1.91-7.11,5.32-7.55,9.65.46,4.11,5.26,2.36,7.64,1.16,3.88-1.52,5.64-5.42,6.87-9.11-.22-.47-.66-1.4-.88-1.87,1.39-1.43,4.56-5.93,5.82-2.2-1.11,4.58-4.2,8.55-4.54,13.34,5.53-1.03,4.77-7.44,7.71-10.96ZM108.5,473.44c-3.02,1.98-5.01,5.32-6.03,8.73-.26,1-.38,3.11,1.25,2.64,3.28-1.87,5.3-5.36,6.64-8.79,1.12-1.38-.21-3.45-1.86-2.58Z"/>
      <path class="cls-5" d="M69.14,476.24c1.98-1.48,4.58-.8,6.65.13,1.6,1.63.32,3.89-.17,5.72-2.03,4.82-5.45,9.48-10.63,11.15-1.23-.81-3.01-1.39-3.08-3.15-.77-5.56,2.77-10.87,7.23-13.85ZM70.09,478.91c-3.18,2.73-6.15,6.96-5.1,11.35,4.56-1.96,6.78-6.71,8.4-11.09-1.06-.62-2.33-1.56-3.3-.26Z"/>
      <path class="cls-5" d="M52.1,479.17c2.8-1.8,6.3-4.08,9.72-2.7,1.96,2.73-3.53,6.83-4.45,2.85-2.45,1.35-5.08,2.74-6.44,5.32,3.03.57,6.95-.23,9.08,2.53.9,4.08-3.78,6.31-6.93,7.44-2.4,1.04-6.93-.04-5.23-3.49.38-2.28,2.41-.02,3.12.74,2.28-.55,4.51-1.37,6.3-2.95-2.78-1.16-6.09-.61-8.64-2.28-1.64-2.94,1.14-5.94,3.47-7.46Z"/>
      <path class="cls-5" d="M34.82,481.64c.52-1.53,2.37-1.5,3.61-2.05-1.01,5.03-4.51,9.58-3.67,14.92,1.98-1.55,3.6-3.49,5.21-5.41,1.48,3.83-2.32,7.47-5.88,8.04-2.54-.23-2.61-3.1-2.48-5.04-1.88,2.28-3.42,5.5-6.51,6.24-2.49.52-3.21-2.54-2.65-4.36,1-4.18,2.6-8.29,4.76-12.01.51-.02,1.54-.06,2.06-.08-.43,4.47-3.33,8.3-3.64,12.84,4.16-3.47,6.78-8.34,9.19-13.09Z"/>
    </g>
  </g>
</svg>