<?xml version="1.0" encoding="UTF-8"?>
<svg id="Capa_2" data-name="Capa 2" xmlns="http://www.w3.org/2000/svg" viewBox="0 0 1080 1080">
  <defs>
    <style>
      .cls-1 {
        fill: #293e89;
      }

      .cls-2 {
        fill: #fafbfd;
      }
    </style>
  </defs>
  <g id="Layer_1" data-name="Layer 1">
    <g>
      <g>
        <path class="cls-1" d="M0,0h1080v1080H0V0ZM618.33,211.35c-4.1.94-8.8,1.01-12.19,3.83-.43,12.68-.12,25.41-.01,38.1,7.03-6.48,16.49-17.06,26.81-10.19,9.8,7.95,20.46,14.85,32.08,19.85,9.66,5.36,23.48.88,28.14-8.92-2.54,1.16-4.81,2.89-7.53,3.63-15,3.56-24.46-10.93-32.71-20.57-8.26-11.88-18.2-26.86-34.59-25.73ZM476.92,253.92c31.14,35.91,51.86,80.98,57.81,128.2,6.53,54.58-9.23,110.17-38.72,156.03,46.32-16.85,105.41-17.79,141.87,19.95,24.96-69.85,12.18-150.73-29.26-211.74-32.11-44.1-79.66-76.67-131.7-92.44ZM624.3,274.35c-12.8,2.64-25.51,5.76-38.41,7.87,6.76,9.23,16.04,17.43,24.99,24.85,5.4-11.02,11.53-21.76,16.22-33.09-.7.09-2.1.28-2.8.37ZM483.25,299.69c-.26,60.82-22.77,122.24-65.4,166.16-6.56,8.46-17.18,14.41-22.8,22.92,30.96,7.33,61.75,15.78,92.67,23.13,18.99-42.15,32.51-89.01,24.72-135.5-4.07-27.16-11.91-54.84-29.19-76.71ZM674.15,433.79c-.36,27.02-.03,54.05-.18,81.08,10.74-4.45,21.12-9.73,31.87-14.16-2.98-24.72-18.33-46.31-31.69-66.92ZM836.39,464.47c-55.63,26.08-111.86,51.03-167.19,77.68-1.2,15.68-6.64,31.71-18.4,42.65-15.14,16.1-37.51,22.46-58.8,25.07-29.83.63-62.16,2.84-88.77-13.12-18.26-9.94-29.94-29.05-33.98-48.99-27.23-2.9-55.72-12.34-75.23-32.88,1.65,17.9,3.42,35.99,8.79,53.23,2.07,5.65,4.14,12.39,10.26,14.77,23.74,12.48,45.49,31.21,55.34,56.77,5.8,11.94,6.8,25.79,8.83,38.25,51.59.25,103.18.01,154.77.12,22.38-.15,44.87-8.34,61.28-23.73,23.14-21.33,33.06-52.86,36.58-83.3,1.65-10.27-.96-21.73,5.37-30.78,35.05-23.08,68.03-49.12,101.37-74.58,1.3-1.12,2.06-2.24-.22-1.16ZM435.29,632.27c-15.29,9.35-18.03,29.39-17.28,45.67,11.97.14,23.96.11,35.94.01.19-15.25-1.9-32.4-13.15-43.74-1.63-.84-3.45-3.01-5.51-1.94ZM771.3,712.25c-2.97,2.78-6.66,5.61-7.39,9.84,3.96-1.07,7.46-3.34,11.06-5.23.73-2.46-.57-6.11-3.67-4.61ZM302.39,725.48c-8.81,1.28-17.32,6.54-21.01,14.86-9.9,18.55,5.3,44.31,27.28,41.28,19.53-.59,34.03-23.06,24.72-40.96-4.3-12.22-19.14-17.1-30.99-15.18ZM572.39,725.49c-18.76,1.47-31.01,22.77-22.68,39.81,5.7,14.86,23.74,18.63,37.68,15.16,6.36,1.66,5.9-4.61,6.57-8.54-6.99,2.42-14.18,7.33-22.08,4.26-14-3.13-18.23-20.4-14.26-32.52,2.58-14.01,24.37-19.35,32.73-8.02,4.03,1.89-.14-7.66,1.54-8.45-6.18-2.45-12.99-2.8-19.5-1.7ZM635.37,725.39c-17.4,1.31-29.38,21.24-23.22,37.51,3.89,12.21,17.38,20.34,29.97,18.44,20.12-.5,32.72-25.11,22.9-42.35-5.13-10.93-18.32-15.36-29.65-13.6ZM763.37,725.39c-4.78.14-8.85,2.71-12.66,5.29-18.59,11.72-13.39,44.29,7.91,49.76,13.21,3.31,29.4-1.26,35.13-14.64,5.46-9.56,3.17-21.4-2.02-30.55-6.93-7.88-18.09-11.38-28.36-9.86ZM206.19,726.04c1.1,18.11,4.69,37.31-1.22,54.89,4.37.25,8.75.02,13.14,0-4.14-8.58-1.4-18.72-2.05-27.87,8.97-.18,17.97.24,26.89-.9-.42,9.52,1.67,19.68-1.98,28.78,4.02.12,8.05.12,12.08.01-4.07-10.14-1.26-21.37-2.07-31.96.54-7.59-1.48-15.89,2.08-22.93-4-.16-7.99-.21-11.98-.15,3.89,6.48,1.16,14.84,1.88,22.01-8.97.23-17.95.1-26.92,0,.69-7.16-1.96-15.45,1.84-21.95-3.9-.09-7.8-.07-11.69.06ZM354.28,726.16c-2.26,1.18-3.25,8.72.59,6.61,4.28-2.44,9.08-3.69,14.06-2.76-1.09,16.83,2.67,34.54-1.96,50.91,4.31.26,8.61.08,12.94.13-7.15-15.41-.95-33.47-2.77-49.79,5.31-6.7,19.72,9.54,15.85-5.17-12.9-.27-25.82-.18-38.71.07ZM413.17,726.06c.33,18.07,3.28,37.3-1.23,54.87,10.26.12,20.53.22,30.8-.07,1.08-3.12,1.64-6.49,1.42-9.79-5.48,5.09-14.02,7.58-20.88,3.66-2.87-6.69-.65-14.6-1.24-21.67,5.26-.39,10.51.33,15.76.7,5.52-9.93-11.85-3.35-15.7-6.96.75-5.24-2.04-12.23,1.12-16.68,5.33-.32,11.59-1.3,15.6,3.01,4.26,3.75.96-6.33,2.15-7.05-9.26-.31-18.54-.08-27.8-.02ZM468.85,726.08c4.14,6.18,1.46,13.97,2.17,20.92-.73,11.24,1.85,23.13-2.18,33.91,9.98.16,19.97.22,29.95-.01,2.41-2.67,1.18-7.03,2.12-10.13-5.89,4.31-15.58,8.85-21.72,3,.02-15.27-1.15-30.86.67-45.95,3.21-4.69-8.98-.37-11.01-1.74ZM691.07,725.93c5.43,8.09.78,18.21,1.91,27.07-.81,9.18,2.01,19.28-2.04,27.93,10.26.12,20.53.22,30.8-.07,1.13-3.21,1.71-6.7,1.21-10.09-6.06,4.09-15.62,9.23-21.76,2.94.88-15.72-2.82-32.48,1.87-47.64-4.01-.16-8-.21-11.99-.14ZM821.06,725.9c4.28,5.74.92,13.53,1.95,20.1-.7,11.59,1.75,23.75-2.03,34.97,2.54,0,7.62-.02,10.16-.03-5.96-12.98-2.01-28.27-3.06-42.06,16.28,11.33,27.4,31.56,43.83,43.22,1.75-18.53-3.27-38.33,2.95-56.14-2.67,0-8.01-.01-10.68-.02,5.09,12.45,2.09,26.18,2.72,39.26-13.38-12.3-25.06-26.56-38.03-39.08-2.6-.28-5.21-.35-7.81-.22ZM443.34,800.28c-3.84,1.02-5.43,5.85-4.07,9.38,2.25,7.42,13.85,6.38,14.76,14.34-.74,8.11-12.9,6.64-14.1-.91-3.41-4.11-.7,4.9-.65,5.57,5.86,4.09,17.74,4.06,18.74-4.64,3.26-11.66-17.84-9.75-14.44-20.38,4.15-5.85,11.63.49,13.31,5.54,3.29-8.9-7.72-10.6-13.55-8.9ZM481.44,799.97c.65,3.25-1.22,6.15-2.36,9.07-3.84,7.13-5.34,16.85-11.16,21.92,3.62-.02,10.97,1.46,6.24-3.15-1.82-12.66,24-7.71,14.7,3.13,2.83.01,8.47.03,11.29.05-6.19-5.62-8.03-16.1-12.28-23.87-1.68-2.92-1.84-8.43-6.43-7.15ZM510.28,800.16c-4.41,3.31,9.06,1.14,2.76,7.82-1.09,7.58,2.76,17.12-3.21,22.93,7.31.24,14.65.17,21.98.01,1.74-2.27,1.71-5.38,2.17-8.09-3.22,5.51-10.08,9.28-15.83,4.89.18-8.14-1.24-17.52.63-24.9,8.7-3.58-5.04-3.55-8.5-2.66ZM543.27,800.16c-4.4,3.32,9.06,1.14,2.77,7.82-1.08,7.59,2.76,17.13-3.22,22.95,2.76.73,16.86.19,8.32-2.26,1.24-9.3-3.67-21.18,3.03-28.62-2.72.03-8.17.08-10.9.11ZM568.33,800.34c-3.46.2-5.63,1.55-1.09,2.45,1.81,7.46.39,16.84.69,25.03-3.14.65-8.22,5.73,1.07,3.21,9.2,2.54,4.26-2.57,1.08-3.19-.27-7.03-.13-14.06.03-21.07,8.55,6.49,11.62,19.2,20.81,24.32.36-9.3-.2-18.61.16-27.89,2.81-.66,8.25-5.58-.68-2.63-1.57.96-6.54-1.89-5,.97,8.15,2.52,1.45,14.57,3.48,20.7-6.75-6.45-11.24-14.9-17.16-22.07-1.15-.17-2.28-.11-3.39.17ZM615.37,799.94c1.17,3.83-1.61,7.2-2.77,10.71-3.76,6.27-4.15,15.82-10.49,19.48.97,2.5,14.51.33,5.94-1.46-1.42-11.7,18.04-11.13,17.92.01-8.71,2.49,5.41,3.17,8.32,2.2-8.15-8.31-9.5-20.98-15.47-30.77-1.16-.15-2.3-.2-3.45-.17ZM648.23,800.11c-8.55,5.01-2.77,15.16,4.74,16.95,7.95.92,7.68,13.83-.67,12.59-5.15.08-5.57-6.42-9.34-7.74-1.68,12.35,19.79,12.68,21.01,1-.8-8.67-10.97-9.54-15.84-15.11-1.54-3.91,3.49-7.86,7-6.05,3.55.81,4.38,5.13,6.77,7.44,3.44-9.29-7.35-10.15-13.67-9.08Z"/>
        <path class="cls-1" d="M638.31,729.44c22.03.12,28.67,35.13,10.53,45.42-9.35,4.78-21.88-.18-25.84-9.85-6.98-12.61-2.24-35.85,15.31-35.57Z"/>
        <path class="cls-1" d="M300.36,730.35c23.72-7.12,35.91,29.68,18.63,42.64-8.62,7.24-23.51,3.06-27.93-7.03-6.23-11.47-4.21-30.33,9.3-35.61Z"/>
        <path class="cls-1" d="M760.33,730.28c24.38-7.57,37.22,29.66,19.12,43.22-8.91,6.93-23.17,2.65-27.47-7.48-6.29-11.62-4.36-29.34,8.35-35.74Z"/>
        <path class="cls-1" d="M482.21,807.41c2.36,1.62,3.7,8.36,5.65,11.65-2.69-.01-8.07-.03-10.76-.05,1.87-3.79,2.78-8.1,5.11-11.6Z"/>
        <path class="cls-1" d="M616.34,806.95c3.03,3.3,3.78,8.07,5.59,12.11-2.52-.03-7.55-.09-10.06-.12.72-4.23,2.86-8.06,4.47-11.99Z"/>
      </g>
      <g>
        <path class="cls-2" d="M618.33,211.35c16.39-1.13,26.33,13.85,34.59,25.73,8.25,9.64,17.71,24.13,32.71,20.57,2.72-.74,4.99-2.47,7.53-3.63-4.66,9.8-18.48,14.28-28.14,8.92-11.62-5-22.28-11.9-32.08-19.85-10.32-6.87-19.78,3.71-26.81,10.19-.11-12.69-.42-25.42.01-38.1,3.39-2.82,8.09-2.89,12.19-3.83Z"/>
        <path class="cls-2" d="M476.92,253.92c52.04,15.77,99.59,48.34,131.7,92.44,41.44,61.01,54.22,141.89,29.26,211.74-36.46-37.74-95.55-36.8-141.87-19.95,29.49-45.86,45.25-101.45,38.72-156.03-5.95-47.22-26.67-92.29-57.81-128.2Z"/>
        <path class="cls-2" d="M624.3,274.35c.7-.09,2.1-.28,2.8-.37-4.69,11.33-10.82,22.07-16.22,33.09-8.95-7.42-18.23-15.62-24.99-24.85,12.9-2.11,25.61-5.23,38.41-7.87Z"/>
        <path class="cls-2" d="M483.25,299.69c17.28,21.87,25.12,49.55,29.19,76.71,7.79,46.49-5.73,93.35-24.72,135.5-30.92-7.35-61.71-15.8-92.67-23.13,5.62-8.51,16.24-14.46,22.8-22.92,42.63-43.92,65.14-105.34,65.4-166.16Z"/>
        <path class="cls-2" d="M674.15,433.79c13.36,20.61,28.71,42.2,31.69,66.92-10.75,4.43-21.13,9.71-31.87,14.16.15-27.03-.18-54.06.18-81.08Z"/>
        <path class="cls-2" d="M836.39,464.47c2.28-1.08,1.52.04.22,1.16-33.34,25.46-66.32,51.5-101.37,74.58-6.33,9.05-3.72,20.51-5.37,30.78-3.52,30.44-13.44,61.97-36.58,83.3-16.41,15.39-38.9,23.58-61.28,23.73-51.59-.11-103.18.13-154.77-.12-2.03-12.46-3.03-26.31-8.83-38.25-9.85-25.56-31.6-44.29-55.34-56.77-6.12-2.38-8.19-9.12-10.26-14.77-5.37-17.24-7.14-35.33-8.79-53.23,19.51,20.54,48,29.98,75.23,32.88,4.04,19.94,15.72,39.05,33.98,48.99,26.61,15.96,58.94,13.75,88.77,13.12,21.29-2.61,43.66-8.97,58.8-25.07,11.76-10.94,17.2-26.97,18.4-42.65,55.33-26.65,111.56-51.6,167.19-77.68Z"/>
        <path class="cls-2" d="M435.29,632.27c2.06-1.07,3.88,1.1,5.51,1.94,11.25,11.34,13.34,28.49,13.15,43.74-11.98.1-23.97.13-35.94-.01-.75-16.28,1.99-36.32,17.28-45.67Z"/>
        <path class="cls-2" d="M771.3,712.25c3.1-1.5,4.4,2.15,3.67,4.61-3.6,1.89-7.1,4.16-11.06,5.23.73-4.23,4.42-7.06,7.39-9.84Z"/>
        <path class="cls-2" d="M302.39,725.48c11.85-1.92,26.69,2.96,30.99,15.18,9.31,17.9-5.19,40.37-24.72,40.96-21.98,3.03-37.18-22.73-27.28-41.28,3.69-8.32,12.2-13.58,21.01-14.86ZM300.36,730.35c-13.51,5.28-15.53,24.14-9.3,35.61,4.42,10.09,19.31,14.27,27.93,7.03,17.28-12.96,5.09-49.76-18.63-42.64Z"/>
        <path class="cls-2" d="M572.39,725.49c6.51-1.1,13.32-.75,19.5,1.7-1.68.79,2.49,10.34-1.54,8.45-8.36-11.33-30.15-5.99-32.73,8.02-3.97,12.12.26,29.39,14.26,32.52,7.9,3.07,15.09-1.84,22.08-4.26-.67,3.93-.21,10.2-6.57,8.54-13.94,3.47-31.98-.3-37.68-15.16-8.33-17.04,3.92-38.34,22.68-39.81Z"/>
        <path class="cls-2" d="M635.37,725.39c11.33-1.76,24.52,2.67,29.65,13.6,9.82,17.24-2.78,41.85-22.9,42.35-12.59,1.9-26.08-6.23-29.97-18.44-6.16-16.27,5.82-36.2,23.22-37.51ZM638.31,729.44c-17.55-.28-22.29,22.96-15.31,35.57,3.96,9.67,16.49,14.63,25.84,9.85,18.14-10.29,11.5-45.3-10.53-45.42Z"/>
        <path class="cls-2" d="M763.37,725.39c10.27-1.52,21.43,1.98,28.36,9.86,5.19,9.15,7.48,20.99,2.02,30.55-5.73,13.38-21.92,17.95-35.13,14.64-21.3-5.47-26.5-38.04-7.91-49.76,3.81-2.58,7.88-5.15,12.66-5.29ZM760.33,730.28c-12.71,6.4-14.64,24.12-8.35,35.74,4.3,10.13,18.56,14.41,27.47,7.48,18.1-13.56,5.26-50.79-19.12-43.22Z"/>
        <path class="cls-2" d="M206.19,726.04c3.89-.13,7.79-.15,11.69-.06-3.8,6.5-1.15,14.79-1.84,21.95,8.97.1,17.95.23,26.92,0-.72-7.17,2.01-15.53-1.88-22.01,3.99-.06,7.98-.01,11.98.15-3.56,7.04-1.54,15.34-2.08,22.93.81,10.59-2,21.82,2.07,31.96-4.03.11-8.06.11-12.08-.01,3.65-9.1,1.56-19.26,1.98-28.78-8.92,1.14-17.92.72-26.89.9.65,9.15-2.09,19.29,2.05,27.87-4.39.01-8.77.24-13.14,0,5.91-17.58,2.32-36.78,1.22-54.89Z"/>
        <path class="cls-2" d="M354.28,726.16c12.89-.25,25.81-.34,38.71-.07,3.87,14.71-10.54-1.53-15.85,5.17,1.82,16.32-4.38,34.38,2.77,49.79-4.33-.05-8.63.13-12.94-.13,4.63-16.37.87-34.08,1.96-50.91-4.98-.93-9.78.32-14.06,2.76-3.84,2.11-2.85-5.43-.59-6.61Z"/>
        <path class="cls-2" d="M413.17,726.06c9.26-.06,18.54-.29,27.8.02-1.19.72,2.11,10.8-2.15,7.05-4.01-4.31-10.27-3.33-15.6-3.01-3.16,4.45-.37,11.44-1.12,16.68,3.85,3.61,21.22-2.97,15.7,6.96-5.25-.37-10.5-1.09-15.76-.7.59,7.07-1.63,14.98,1.24,21.67,6.86,3.92,15.4,1.43,20.88-3.66.22,3.3-.34,6.67-1.42,9.79-10.27.29-20.54.19-30.8.07,4.51-17.57,1.56-36.8,1.23-54.87Z"/>
        <path class="cls-2" d="M468.85,726.08c2.03,1.37,14.22-2.95,11.01,1.74-1.82,15.09-.65,30.68-.67,45.95,6.14,5.85,15.83,1.31,21.72-3-.94,3.1.29,7.46-2.12,10.13-9.98.23-19.97.17-29.95.01,4.03-10.78,1.45-22.67,2.18-33.91-.71-6.95,1.97-14.74-2.17-20.92Z"/>
        <path class="cls-2" d="M691.07,725.93c3.99-.07,7.98-.02,11.99.14-4.69,15.16-.99,31.92-1.87,47.64,6.14,6.29,15.7,1.15,21.76-2.94.5,3.39-.08,6.88-1.21,10.09-10.27.29-20.54.19-30.8.07,4.05-8.65,1.23-18.75,2.04-27.93-1.13-8.86,3.52-18.98-1.91-27.07Z"/>
        <path class="cls-2" d="M821.06,725.9c2.6-.13,5.21-.06,7.81.22,12.97,12.52,24.65,26.78,38.03,39.08-.63-13.08,2.37-26.81-2.72-39.26,2.67.01,8.01.02,10.68.02-6.22,17.81-1.2,37.61-2.95,56.14-16.43-11.66-27.55-31.89-43.83-43.22,1.05,13.79-2.9,29.08,3.06,42.06-2.54.01-7.62.03-10.16.03,3.78-11.22,1.33-23.38,2.03-34.97-1.03-6.57,2.33-14.36-1.95-20.1Z"/>
        <path class="cls-2" d="M443.34,800.28c5.83-1.7,16.84,0,13.55,8.9-1.68-5.05-9.16-11.39-13.31-5.54-3.4,10.63,17.7,8.72,14.44,20.38-1,8.7-12.88,8.73-18.74,4.64-.05-.67-2.76-9.68.65-5.57,1.2,7.55,13.36,9.02,14.1.91-.91-7.96-12.51-6.92-14.76-14.34-1.36-3.53.23-8.36,4.07-9.38Z"/>
        <path class="cls-2" d="M481.44,799.97c4.59-1.28,4.75,4.23,6.43,7.15,4.25,7.77,6.09,18.25,12.28,23.87-2.82-.02-8.46-.04-11.29-.05,9.3-10.84-16.52-15.79-14.7-3.13,4.73,4.61-2.62,3.13-6.24,3.15,5.82-5.07,7.32-14.79,11.16-21.92,1.14-2.92,3.01-5.82,2.36-9.07ZM482.21,807.41c-2.33,3.5-3.24,7.81-5.11,11.6,2.69.02,8.07.04,10.76.05-1.95-3.29-3.29-10.03-5.65-11.65Z"/>
        <path class="cls-2" d="M510.28,800.16c3.46-.89,17.2-.92,8.5,2.66-1.87,7.38-.45,16.76-.63,24.9,5.75,4.39,12.61.62,15.83-4.89-.46,2.71-.43,5.82-2.17,8.09-7.33.16-14.67.23-21.98-.01,5.97-5.81,2.12-15.35,3.21-22.93,6.3-6.68-7.17-4.51-2.76-7.82Z"/>
        <path class="cls-2" d="M543.27,800.16c2.73-.03,8.18-.08,10.9-.11-6.7,7.44-1.79,19.32-3.03,28.62,8.54,2.45-5.56,2.99-8.32,2.26,5.98-5.82,2.14-15.36,3.22-22.95,6.29-6.68-7.17-4.5-2.77-7.82Z"/>
        <path class="cls-2" d="M568.33,800.34c1.11-.28,2.24-.34,3.39-.17,5.92,7.17,10.41,15.62,17.16,22.07-2.03-6.13,4.67-18.18-3.48-20.7-1.54-2.86,3.43-.01,5-.97,8.93-2.95,3.49,1.97.68,2.63-.36,9.28.2,18.59-.16,27.89-9.19-5.12-12.26-17.83-20.81-24.32-.16,7.01-.3,14.04-.03,21.07,3.18.62,8.12,5.73-1.08,3.19-9.29,2.52-4.21-2.56-1.07-3.21-.3-8.19,1.12-17.57-.69-25.03-4.54-.9-2.37-2.25,1.09-2.45Z"/>
        <path class="cls-2" d="M615.37,799.94c1.15-.03,2.29.02,3.45.17,5.97,9.79,7.32,22.46,15.47,30.77-2.91.97-17.03.29-8.32-2.2.12-11.14-19.34-11.71-17.92-.01,8.57,1.79-4.97,3.96-5.94,1.46,6.34-3.66,6.73-13.21,10.49-19.48,1.16-3.51,3.94-6.88,2.77-10.71ZM616.34,806.95c-1.61,3.93-3.75,7.76-4.47,11.99,2.51.03,7.54.09,10.06.12-1.81-4.04-2.56-8.81-5.59-12.11Z"/>
        <path class="cls-2" d="M648.23,800.11c6.32-1.07,17.11-.21,13.67,9.08-2.39-2.31-3.22-6.63-6.77-7.44-3.51-1.81-8.54,2.14-7,6.05,4.87,5.57,15.04,6.44,15.84,15.11-1.22,11.68-22.69,11.35-21.01-1,3.77,1.32,4.19,7.82,9.34,7.74,8.35,1.24,8.62-11.67.67-12.59-7.51-1.79-13.29-11.94-4.74-16.95Z"/>
      </g>
    </g>
  </g>
</svg>