<?xml version="1.0" encoding="UTF-8"?>
<svg id="Capa_2" data-name="Capa 2" xmlns="http://www.w3.org/2000/svg" viewBox="0 0 225.67 225.62">
  <defs>
    <style>
      .cls-1 {
        fill: #faa82d;
      }

      .cls-2 {
        fill: #fff;
      }
    </style>
  </defs>
  <g id="Capa_1-2" data-name="Capa 1">
    <g>
      <ellipse class="cls-2" cx="112.83" cy="112.82" rx="112.83" ry="112.8"/>
      <g>
        <path class="cls-1" d="M67.71,9.43C83.73,2.39,101.42-.77,118.89.16c15.36.79,30.56,4.77,44.31,11.65,16.56,8.25,31.02,20.66,41.71,35.75,7.47,10.51,13.11,22.32,16.58,34.74,4.53,16.16,5.35,33.33,2.48,49.86-3.38,19.62-12.15,38.25-25.04,53.42-5.33-5.33-10.65-10.65-15.98-15.98-.95-.91-1.83-1.91-2.82-2.76-11.76-2.06-23.53-4.05-35.3-6.09-5.14,5.14-10.28,10.28-15.41,15.43-3.67,3.76-7.42,7.56-10.12,12.1-1.1,1.89-1.98,3.94-2.34,6.1-.25,1.44-.19,2.91-.15,4.36.03.56.84.42.9-.06,1.14-3.05,3.22-5.71,5.81-7.66,2.58-1.95,5.65-3.2,8.82-3.81,3.77-.72,7.66-.59,11.43.06,15.32,2.65,30.63,5.29,45.95,7.93-8.45,7.88-18.12,14.46-28.56,19.41-12.72,6.05-26.6,9.66-40.66,10.58-15.67,1.06-31.57-1.16-46.33-6.57-14.11-5.15-27.14-13.18-38.12-23.42,14.27-2.46,28.53-4.92,42.8-7.38,2.34-.39,4.67-.87,7.05-1.01,4.56-.31,9.27.3,13.39,2.37,3.86,1.93,7.12,5.21,8.69,9.27.12.25.2.6.52.66.32.06.53-.26.5-.54.01-7.53,0-15.07,0-22.6.06-.33-.17-.7-.53-.65-3.82-.01-7.64,0-11.46,0-.34.05-.63-.25-.57-.59,0-2.25-.01-4.5,0-6.75-.04-.31.28-.52.56-.48,3.88-.02,7.77.03,11.65-.03.07-.06.22-.18.29-.24.13-1.84-.38-3.79-1.6-5.21-1.22-1.43-3.02-2.2-4.81-2.64-2.69-.64-5.49-.66-8.24-.51-2.93.17-5.84.58-8.74,1.08-13.32,2.29-26.64,4.57-39.96,6.87-6.25,6.25-12.48,12.5-18.73,18.74-7.75-9.14-14.04-19.51-18.53-30.62C2.38,140.22-.36,124.2.27,108.3c.68-18.5,6.04-36.8,15.46-52.73,5.95-10.11,13.5-19.27,22.26-27.07,8.83-7.86,18.89-14.33,29.72-19.07ZM127.48,22.75c-.25.18-.25.51-.33.78-.49,2.34-1.18,4.64-2.18,6.81-2.11,4.67-5.74,8.38-9.29,11.98-12.34,12.35-24.68,24.7-37.03,37.04-4.5,4.47-8.37,9.68-10.83,15.55-2.73,6.47-3.7,13.86-1.74,20.67.12.36.24.96.74.93.29-.13.23-.5.26-.75-.02-2.4.24-4.82.94-7.12.94-3.14,2.59-6.02,4.47-8.69,3.04-4.29,6.64-8.14,10.32-11.87,10.31-10.31,20.62-20.63,30.94-30.93,3.92-3.98,7.96-7.91,11.08-12.57,1.84-2.8,3.31-6.01,3.34-9.42,0-4.01.01-8.02,0-12.03.06-.36-.42-.67-.69-.39ZM127.49,43.42c-.21.18-.23.48-.3.73-.66,3.17-1.69,6.28-3.33,9.08-1.76,3.05-4.13,5.68-6.56,8.2-2.18,2.25-4.4,4.45-6.62,6.66-9.7,9.7-19.41,19.4-29.12,29.1-2.12,2.14-4.12,4.39-5.95,6.78-3.11,4.09-5.76,8.61-7.23,13.56-1.06,3.57-1.44,7.4-.7,11.08.59,2.97,1.93,5.79,3.84,8.13.18.21.49.53.77.29.23-.29.01-.66-.09-.95-.58-1.36-.95-2.8-1.08-4.27-.33-3.45.62-6.9,2.11-9.99,2.56-5.26,6.46-9.72,10.52-13.87,10.03-10.06,20.08-20.09,30.12-30.14,3.84-3.88,7.77-7.73,10.85-12.26,1.92-2.86,3.46-6.15,3.49-9.66,0-4,0-8.01,0-12.01.08-.41-.39-.78-.72-.46ZM127.47,64.28c-.15.15-.25.34-.27.56-.75,3.66-2.01,7.26-4.09,10.39-2.01,3.07-4.58,5.71-7.14,8.31-11.36,11.39-22.77,22.73-34.13,34.13-2.56,2.69-4.79,5.74-6.3,9.15-1.47,3.3-2.21,6.99-1.79,10.6.61,5.79,4.25,11.29,9.58,13.74.32.23.97.07.76-.42-.47-.66-1.19-1.12-1.68-1.77-1.69-1.93-2.71-4.44-2.87-7-.22-3.32.8-6.59,2.33-9.5,1.61-3.04,3.8-5.75,6.25-8.16l23.83-23.83c3.95-3.99,8.03-7.88,11.45-12.35,2.05-2.73,3.88-5.75,4.54-9.15.33-1.6.21-3.25.24-4.88-.01-3.16.02-6.31-.01-9.47.05-.37-.44-.63-.7-.35ZM141.87,78.73c-.31.35.11.72.36.95,1.86,1.62,3.24,3.8,3.8,6.21.7,2.92.26,6-.78,8.79-1.62,4.34-4.54,8.06-7.83,11.27-2.43,2.42-4.85,4.85-7.27,7.27-3.17,3.21-6.36,6.44-9.03,10.09-1.89,2.6-3.53,5.49-4.11,8.69-.28,1.43-.19,2.9-.21,4.35,0,3.28-.01,6.55.01,9.83-.05.66.91.54.92-.02.74-3.53,1.88-7.01,3.82-10.07,2.62-4.17,6.24-7.56,9.67-11.04,4.16-4.15,8.32-8.29,12.47-12.45,3.89-4,7.14-8.88,8.2-14.44.7-3.6.35-7.42-1.13-10.79-1.53-3.54-4.25-6.59-7.69-8.36-.37-.15-.81-.5-1.22-.27ZM153.55,92.93c-.16.33.05.68.16.99.74,1.73,1.11,3.61,1.11,5.48.02,3.29-1.03,6.5-2.52,9.4-2.44,4.72-5.93,8.79-9.6,12.58-3.67,3.72-7.39,7.4-11.08,11.11-3.38,3.41-6.82,6.79-9.78,10.59-2.03,2.64-3.85,5.53-4.66,8.79-.55,2.05-.36,4.19-.39,6.29,0,2.96-.02,5.92.01,8.89-.01.6.87.51.91-.02.7-3.31,1.73-6.6,3.46-9.53,2.41-4.11,5.85-7.46,9.17-10.83,3.67-3.67,7.34-7.33,11.01-10.99,2.99-2.96,5.99-5.93,8.56-9.28,3.49-4.49,6.45-9.51,7.88-15.05.9-3.48,1.12-7.17.28-10.69-.64-2.73-1.92-5.31-3.69-7.49-.19-.24-.55-.59-.84-.27ZM158.79,114.12c.02,2.12-.17,4.26-.71,6.31-.78,3.06-2.27,5.9-4.01,8.52-2.72,4.05-5.99,7.68-9.36,11.19-5.56,5.66-11.25,11.19-16.8,16.86-3.14,3.26-6.25,6.6-8.57,10.51,3.63,0,7.27-.01,10.9.01,5.31-5.31,10.62-10.62,15.92-15.93,1.59-1.57,3.16-3.16,4.59-4.88,4.08-4.83,7.34-10.45,8.96-16.59,1.38-5.2,1.57-10.78.03-15.96-.1-.33-.24-.75-.64-.81-.33.11-.31.49-.31.77ZM195.34,149.29c-1.2.13-2.38.59-3.3,1.37-1.95,1.6-2.57,4.41-1.87,6.78.43,1.51,1.48,2.83,2.87,3.56,2.54,1.34,6.04.88,7.91-1.38,2.03-2.4,1.91-6.33-.34-8.55-1.35-1.38-3.37-2.01-5.27-1.78ZM116.8,176c0,3.88-.02,7.76.01,11.65-.08.59.79.65.89.12.33-1.32.6-2.65,1.02-3.94.93-3.06,2.43-5.94,4.37-8.48-1.95.01-3.89-.02-5.84.01-.34-.01-.51.35-.46.65Z"/>
        <path class="cls-1" d="M194.84,150.28c1.71-.39,3.64.02,4.92,1.26,2.15,1.97,2.23,5.72.15,7.78-1.87,1.95-5.26,2.06-7.27.27-2.07-1.76-2.39-5.11-.85-7.3.71-1.03,1.83-1.74,3.05-2ZM193.81,151.79c0,2.47,0,4.95,0,7.43.43,0,.86,0,1.28,0v-2.95c.35,0,.71,0,1.06,0,.56.98,1.13,1.96,1.7,2.94.48,0,.96,0,1.44,0-.66-1.09-1.3-2.19-1.96-3.28.47-.26.95-.58,1.16-1.11.39-.96.13-2.32-.9-2.76-1.2-.49-2.54-.21-3.8-.28Z"/>
        <path class="cls-1" d="M195.09,152.86c.57.02,1.16-.06,1.71.15.77.33.75,1.56.07,1.99-.53.34-1.18.22-1.77.24,0-.79,0-1.58,0-2.37Z"/>
      </g>
    </g>
  </g>
</svg>