<?xml version="1.0" encoding="UTF-8"?>
<svg id="Capa_2" data-name="Capa 2" xmlns="http://www.w3.org/2000/svg" viewBox="0 0 898.37 313.98">
  <defs>
    <style>
      .cls-1 {
        fill: #06335d;
      }

      .cls-2 {
        fill: #f3b71d;
      }
    </style>
  </defs>
  <g id="Layer_1" data-name="Layer 1">
    <path class="cls-1" d="M353.84,8.42C373.33-.37,395.28-.84,416.25.67c14.03,1.08,27.92,3.55,41.55,6.99-.2,12.86.04,25.73-.16,38.58-19.88-6.85-41.17-9.02-62.11-8.16-5.9.33-11.84.95-17.52,2.62-3.87,1.15-7.89,3.75-8.55,8.04-.51,3.78,2.76,6.51,5.77,8.07,9.29,4.67,19.38,7.39,29.06,11.09,16.72,5.92,34.01,13.31,45.51,27.41,7.22,8.41,11.03,19.5,10.88,30.55.28,10.49-2.13,21.85-9.79,29.51-10.59,11.5-26.74,15.4-41.77,16.71-27.53,1.82-55.06-3.16-81.45-10.7.38-12.56.18-25.14.04-37.7,14.51,4.7,29.25,8.95,44.4,10.96,12.22,1.64,24.87,2.27,36.89-1.03,4.34-1.18,9.35-3.78,9.93-8.77.7-4.83-3.35-8.4-7.06-10.67-7.62-4.42-16.17-6.84-24.43-9.75-13-4.87-26.58-8.81-38.24-16.57-9.13-5.7-17.53-13.69-21.03-24.11-4.44-12.6-2.38-27.09,4.74-38.31,5.03-7.66,12.85-12.99,20.93-17.01Z"/>
    <path class="cls-1" d="M139.76,2.45c56.35-.15,112.7-.05,169.05.03.24,12.4.26,24.82.09,37.22-1.53.32-3.1.37-4.66.42-19.59.07-39.19,0-58.79-.02.08,30.57.07,61.13.03,91.7-.15,12.53.37,25.1-.33,37.61-13.88.04-27.76.18-41.63-.09-.02-43.05.19-86.1-.09-129.15-21.23-.15-42.46.07-63.69-.18-.06-12.51-.11-25.03.02-37.54Z"/>
    <path class="cls-1" d="M554.84,2.18c8.32.02,16.65.12,24.98,0-5.16,22.57-10.89,45.03-16.58,67.48,12.91-2.76,25.92-5.09,38.67-8.54-4.91-19.63-9.3-39.39-14.6-58.92,8.24.04,16.47-.03,24.7.05,4.67,9.94,7.92,20.47,12.13,30.6,2.47,5.86,4.59,11.85,6.84,17.79,6.15-2.52,10.48-7.7,14.4-12.81.46,3.54,1.25,7.39-.44,10.75-1.89,4.51-6.15,7.38-10.23,9.72-10.75,5.79-22.71,8.69-34.44,11.77-22.9,5.99-46.47,9.38-68.93,17.03-6.13,1.89-11.82,4.9-17.2,8.36.24-4.22,2.23-8.51,5.84-10.88,2.42-1.63,4.8-3.62,5.54-6.59,9.55-25.35,19.43-50.57,29.32-75.8Z"/>
    <path class="cls-1" d="M72.96,2.54c13.86-.1,27.72-.15,41.58-.05-.04,55.63-.09,111.26.03,166.89-13.88.04-27.77.08-41.66-.03-.05-55.6-.08-111.21.05-166.81Z"/>
    <path class="cls-1" d="M714.57,169.46c.15-55.64-.12-111.29.06-166.93,44.75-.07,89.5,0,134.25-.01.35,10.08.08,20.17.22,30.25.09,2.47.39,4.97-.18,7.41-30.92-.16-61.84.02-92.76-.05,0,8.71.63,17.43-.09,26.14,28.25.07,56.5-.02,84.75.06-.21,11.65-.2,23.31-.02,34.97-28.13.07-56.26.03-84.39-.02.05,10.32-.04,20.65.07,30.97,30.85-.1,61.71.07,92.56,0,.06,12.4,0,24.79.03,37.19-44.83-.04-89.67.05-134.5.02Z"/>
    <path class="cls-1" d="M646.69,58.29c2.67-2.57,4.12-6.11,6.77-8.67,3.66,9.25-2.25,19.17-10,24.17-12.27,7.63-26.64,10.48-40.34,14.45-19.93,4.91-39.9,9.64-59.86,14.44-9.56,2.45-19.07,5.44-27.85,10-4.5,2.26-8.16,5.75-12.03,8.9-.86-8.34,4.18-16.23,11.24-20.31,14.77-8.72,31.9-11.77,48.39-15.62,9.17-1.74,18.22-4.06,27.34-6.08,10.73-2.62,21.63-4.71,32.09-8.36,8.74-2.85,17.43-6.6,24.25-12.92Z"/>
    <path class="cls-1" d="M656.27,71.83c2.06-2.15,3.13-4.99,4.96-7.32,1.53,6.09,1.35,12.87-1.94,18.38-3.09,5.84-9.05,9.31-14.82,12.06-8.11,4.18-17.03,6.35-25.61,9.32-20.17,5.67-40.52,10.65-60.77,16.04-9.12,2.13-18.21,4.4-27.11,7.31-10.24,3.62-20.7,7.66-28.83,15.11-2.99,2.63-4.99,6.19-8.17,8.61.02-6.22,1.12-12.75,5.01-17.8,8.27-11.03,21.25-17.2,34.11-21.2,18.46-5.59,37.43-9.21,56.19-13.63,14.53-3.85,29.17-7.4,43.4-12.29,8.68-3.22,17.36-7.53,23.58-14.59Z"/>
    <path class="cls-1" d="M614.71,111.79c12.18-2.7,23.85-7.2,35.36-11.94,8.27,20.83,15.9,41.92,24.46,62.64,1.48,4.27,3.29,8.43,4.48,12.81-12.55-2.81-25.19-5.33-37.99-6.62-4.31-.54-8.69-.42-12.92-1.44-3.54-18.69-9.12-36.92-13.39-55.45Z"/>
    <path class="cls-1" d="M500.18,151.79c12.94-12.33,30.67-17.41,47.62-21.44-2.61,12.33-6.31,24.43-8.47,36.85-17.24,2.04-34.46,4.45-51.46,8.02,3.23-8.18,5.45-17.38,12.31-23.43Z"/>
    <path class="cls-2" d="M760.66,242.19c1.36-2.4,2.96-5.41,6.27-4.93-.31,2.7-3.13,7.13-6.27,4.93Z"/>
    <path class="cls-2" d="M.05,243.99c1.23.06,2.46.12,3.68.2,0,6.78-.08,13.56-.05,20.35-1.23-.02-2.46-.04-3.68-.04.13-6.84-.02-13.68.05-20.51Z"/>
    <path class="cls-2" d="M56.23,244.87c3.05-1.74,7.01-1.67,10.12-.08.84.81.22,2.17.4,3.22-2.96-1.36-6.71-1.86-9.17.72,1.15,3.94,5.74,4.06,8.63,6.11,2.62,2.33,2.27,7.36-.9,9.08-3.55,2.17-7.86.9-11.66.22-.05-1.36-.1-2.71-.14-4.06,2.82.75,5.78,2.12,8.72,1.26,1.64-.26,1.88-2.46,1.13-3.64-2.49-2-5.83-2.61-8.26-4.7-2.35-2.27-1.66-6.53,1.13-8.13Z"/>
    <path class="cls-2" d="M82.4,244.15c5.24-.31,10.5-.01,15.75-.04.07.78.22,2.32.3,3.09-2.03.05-4.06.08-6.08.12,0,5.69-.02,11.38.09,17.07-1.35-.04-2.7-.08-4.04-.12.12-5.64.03-11.28-.01-16.92-2.15,0-4.3-.04-6.45-.08l.44-3.12Z"/>
    <path class="cls-2" d="M113.76,244.21c1.3-.02,2.61-.02,3.93-.01.03,6.77.09,13.54.15,20.31-1.31-.04-2.63-.09-3.94-.1.03-6.74-.07-13.47-.14-20.2Z"/>
    <path class="cls-2" d="M133.43,244.04c5.4.08,10.82-.2,16.21.2.03.78.08,2.35.11,3.14-2.06-.04-4.12-.06-6.18-.07,0,5.71-.09,11.43.09,17.14-1.37-.02-2.73-.02-4.09-.02.05-5.71.06-11.42,0-17.13-2.06.02-4.12.05-6.18.07,0-1.12,0-2.23.03-3.33Z"/>
    <path class="cls-2" d="M164.92,244.04c1.28-.02,2.56-.03,3.85-.03.18,4.64-.23,9.31.22,13.94.98,4.59,8.44,4.69,9.49.1.58-4.63.14-9.32.2-13.97.98.02,2.95.06,3.93.09-.18,4.86.23,9.76-.31,14.61-.94,5.32-7.52,7.61-12.15,5.71-3.22-.98-5.53-4.22-5.32-7.59.04-4.29.21-8.58.09-12.86Z"/>
    <path class="cls-2" d="M197.76,244.1c5.5.25,11.13-.62,16.55.38.05.69.14,2.07.18,2.75-2.2,0-4.4.01-6.59.05-.08,5.72.03,11.45-.04,17.17-1.29-.03-2.57-.06-3.85-.07-.09-5.74.12-11.48-.12-17.21-2.07.09-4.15.18-6.22.26.03-1.12.06-2.23.09-3.33Z"/>
    <path class="cls-2" d="M234.61,244.28c6.19-2.53,13.96,1.76,14.61,8.54,1.82,8.81-9.4,15.64-16.64,10.72-7.64-3.98-6.46-17.05,2.03-19.26ZM235.72,247.61c-4.36,1.95-6.03,8.7-2.09,11.87,3.38,3.48,10.16,2.03,11.37-2.8,2.14-5.36-3.87-11.68-9.28-9.07Z"/>
    <path class="cls-2" d="M289.25,246.93c2.34-4.42,8.33-3.86,12.35-2.4.04,1.23.08,2.46.12,3.71-2.82-1.68-6.74-1.92-9.27.44,1.65,4.52,7.52,4.28,10.1,7.9,1,2.6.45,6.05-2.35,7.26-3.67,1.51-7.78.72-11.58.24.02-1.36.05-2.72.09-4.06,2.99,1.21,6.57,2.55,9.64.81,2.22-3.32-2.55-4.44-4.64-5.69-3.22-1.26-6.17-4.62-4.46-8.21Z"/>
    <path class="cls-2" d="M353,243.96c3.9.18,7.9-.36,11.75.51,5.18,1.35,5.92,9.72,1.13,11.99-2.8,1.36-6.04.83-9.04.92.04,2.34.08,4.69.13,7.04-1.32-.05-2.63-.1-3.94-.14.05-6.78-.05-13.55-.03-20.32ZM356.92,247.1c.02,2.42.04,4.84.08,7.27,2.06-.15,4.26.24,6.21-.58,2.04-.79,2.2-3.46,1.39-5.17-1.89-2.21-5.15-1.18-7.68-1.52Z"/>
    <path class="cls-2" d="M384.73,244.03c4.64.14,9.3.02,13.95.06,0,1.08,0,2.16.02,3.24-3.42-.07-6.83-.07-10.24-.11.01,1.82.03,3.67.06,5.51,2.32-.07,4.65-.1,6.99-.12,0,.69-.01,2.09-.01,2.78-2.23.78-4.6.45-6.88.23-.02,1.88-.04,3.77-.05,5.68,3.35-.03,6.71,0,10.08.02-.04,1.07-.06,2.14-.08,3.23-4.6.01-9.21.01-13.81.08-.23-6.86-.12-13.74-.03-20.6Z"/>
    <path class="cls-2" d="M414.39,244.07c4.05.1,8.2-.42,12.2.45,4.94,2.15,4.74,10.11-.39,11.95,1.12,2.73,2.49,5.34,3.81,7.99-1.03-.03-3.07-.1-4.09-.13-1.17-2.44-2.33-4.88-3.49-7.32-1.45.03-2.9.06-4.33.09-.02,2.41-.02,4.84.04,7.26-1.27-.01-2.53,0-3.78.01-.04-6.77.02-13.54.03-20.3ZM418.03,247.21c.12,2.12.28,4.25.42,6.38,2.27-.02,4.55.11,6.82-.2,1.02-1.42,1.08-3.43.38-4.98-1.98-1.98-5.12-1.01-7.62-1.2Z"/>
    <path class="cls-2" d="M446.07,244.13c1.29-.03,2.58-.05,3.88-.06.04,6.77,0,13.55,0,20.33-1.3-.03-2.59-.05-3.88-.07.11-6.73.02-13.47,0-20.2Z"/>
    <path class="cls-2" d="M472.67,244.41c6.87-3.13,16.28,2.53,15.15,10.42.07,8.28-10.54,13.25-17.13,8.57-7.04-4.24-6-16.41,1.98-18.99ZM474.78,247.54c-5.45,1.73-6.76,10.54-1.28,13.08,4.26,2.65,10.54-.74,10.33-5.85.8-4.86-4.46-9.13-9.05-7.23Z"/>
    <path class="cls-2" d="M558.59,244.06c5.36.11,10.77-.34,16.11.23.05.76.14,2.29.18,3.06-2.06-.05-4.09-.1-6.13-.13-.21,5.74-.09,11.48-.09,17.23-1.29-.01-2.58,0-3.85.01-.01-5.7.05-11.41-.06-17.1-2.13.03-4.26.06-6.38.06.05-.84.16-2.52.22-3.36Z"/>
    <path class="cls-2" d="M590.46,244.23c4.69-.02,9.38-.07,14.07.02,0,.78-.03,2.33-.04,3.11-3.37-.07-6.74-.13-10.11-.19.01,1.83.02,3.65.04,5.49,2.36-.03,4.72-.04,7.09-.04.04,1,.09,2,.14,3.02-2.42-.02-4.83-.03-7.24-.04-.04,1.93-.06,3.87-.09,5.82,3.4-.05,6.8-.05,10.2-.06-.01.81-.05,2.42-.06,3.23-4.67.03-9.33.03-13.98-.12,0-6.75.09-13.5-.02-20.24Z"/>
    <path class="cls-2" d="M622.67,246.36c3.9-3.36,9.74-3.46,14.18-1.13.29,1.25.38,2.54.28,3.86-2.95-1.61-6.52-2.73-9.76-1.29-4.83,2.14-5.58,10.09-.83,12.71,3.52,2.14,7.62.41,11.13-.81-.01,1.17-.02,2.34-.01,3.53-3.9,1.88-8.57,2.74-12.59.69-6.79-2.65-7.99-13.12-2.4-17.56Z"/>
    <path class="cls-2" d="M653.73,244.14c1.3,0,2.62.02,3.94.05,2.96,4.79,6.21,9.41,9.34,14.09.02-4.72-.06-9.43-.16-14.14,1.27-.05,2.55-.08,3.84-.11.09,6.79.05,13.58-.01,20.38-1.36-.08-2.72-.16-4.06-.23-3-4.91-6.55-9.48-9.1-14.64.2,4.97.17,9.96.22,14.94-.98.01-2.94.03-3.93.04.02-6.79.04-13.59-.08-20.38Z"/>
    <path class="cls-2" d="M693.63,244.38c5.52-2.46,12.74.52,14.26,6.51,2.63,6.82-3.32,14.98-10.68,14.21-6.41.32-11.34-6.11-10.39-12.21.4-3.85,3.15-7.28,6.81-8.51ZM695.68,247.46c-5.31,1.3-6.73,9.15-2.57,12.48,3.7,3.37,10.7,1.1,11.44-3.97,1.34-5.01-3.88-10.23-8.87-8.51Z"/>
    <path class="cls-2" d="M793.01,245.61c4.06-2.78,9.4-2.27,13.64-.17.04,1.1.09,2.21.15,3.32-3.02-1.1-6.3-2.37-9.51-1.32-5.16,1.55-6.61,9.52-2.16,12.67,2.28,2.11,5.57,1.46,8.33,1,0-1.71,0-3.41.01-5.11-1.2.15-2.4.3-3.58.47.04-1.03.1-2.04.16-3.04,2.33-.11,4.66-.14,7.01-.14.04,3.41.03,6.83-.09,10.25-4.08,1.31-8.69,2.44-12.7.29-7.18-2.81-7.92-14.41-1.26-18.22Z"/>
    <path class="cls-2" d="M823.36,244.04c1.35.04,2.73.11,4.11.18-.04,6.71-.07,13.41-.01,20.13-1.38,0-2.74.01-4.1.03.14-6.78.11-13.56,0-20.34Z"/>
    <path class="cls-2" d="M845.79,247.37c3.95-4.41,10.67-4.53,15.65-1.83-.02.94-.05,2.82-.07,3.76-3.15-1.88-7.29-3.08-10.68-1.11-4.34,2.61-4.44,9.81-.03,12.39,3.47,2.01,7.6.41,11.1-.68,1.2,4.28-3.54,4.9-6.57,5.19-4.63.44-9.74-2.15-11.22-6.73-.86-3.67-1.19-8.17,1.82-10.99Z"/>
    <path class="cls-2" d="M883.6,244.34c4.59-1.75,10.39-.26,13.07,4,3.7,5.49,1.14,14.55-5.6,16.22-6.1,2.15-13.92-1.9-14.26-8.71-1.02-4.94,2.12-9.9,6.79-11.51ZM885.61,247.43c-5.14,1.21-6.78,8.43-2.98,11.94,3.16,3.72,10.12,2.47,11.39-2.39,2.4-5.14-2.91-11.57-8.41-9.55Z"/>
    <path class="cls-2" d="M20.61,264.55c-.1-6.81-.06-13.63.06-20.44.9.07,2.71.22,3.61.29,3.06,4.73,6.68,9.08,9.62,13.88-.2-4.75-.22-9.5-.28-14.24.96.05,2.89.14,3.86.19.11,6.73-.22,13.47.09,20.2-1.55-.28-3.87.71-4.63-1.26-2.86-4.08-5.74-8.14-8.4-12.35-.11,4.51,0,9.02.02,13.53-1.32.06-2.63.13-3.95.2Z"/>
    <path class="cls-2" d="M318.85,244.11c.98,0,2.95.01,3.93.01.18,4.64-.38,9.34.18,13.97,1.12,4.31,8.33,4.62,9.51.21.53-4.71.15-9.48.15-14.21.96.03,2.88.1,3.85.13-.11,4.86.37,9.76-.15,14.62-1.48,7.67-14.82,8.56-16.9.78-1.08-5.08-.27-10.35-.57-15.51Z"/>
    <path class="cls-2" d="M503.96,244.09c4.53.31,9.59-1.04,13.7,1.42,3.64,3.07,2.48,9.46-1.85,11.33,1.32,2.51,2.62,5.04,4.07,7.49-1.38.06-2.78.29-4.14-.01-1.51-2.26-2.45-4.83-3.62-7.25-1.43-.06-2.86-.1-4.28-.14.01,2.49.01,4.99.03,7.49-1.31-.01-2.61-.01-3.91,0,.07-6.78.05-13.56,0-20.33ZM507.98,247.09c-.03,2.12-.15,4.24-.03,6.37,2.12,1.13,4.71-.1,7.02-.09.47-1.67,1.5-3.82-.08-5.22-1.91-1.58-4.64-.79-6.91-1.06Z"/>
    <path class="cls-2" d="M724.78,244.1c.99.02,2.96.04,3.94.06-.05,5.66-.34,11.32-.08,16.99,3.13-.02,6.28-.02,9.43.03-.04,1.11-.07,2.23-.1,3.36-4.44-.04-8.87-.06-13.3-.11.21-6.78.04-13.55.11-20.33Z"/>
    <path class="cls-2" d="M756.63,245.28c5.62-4.09,14.5-.94,16.22,5.81,2.99,7.61-4.92,16.02-12.73,13.84-9.24-1.13-11.47-15.29-3.49-19.65ZM759.49,247.97c-4.42,2.06-5.31,9.05-1.38,12.02,4.04,3.5,11.89.56,11.5-5.17.94-5.43-5.59-9.16-10.12-6.85Z"/>
    <path class="cls-2" d="M346.38,293.97c3.2-2.56,7.59-1.47,11.2-.59-.03,1.14-.06,2.29-.07,3.44-2.9-1.05-6.02-1.78-8.91-.29-.52,3.18,2.12,4.72,4.76,5.46,3.5.93,6.62,5,4.58,8.56-2.25,4.02-7.83,3.21-11.67,2.69-2.17-.24-2.72-2.26-2.39-4.17,3.05,1.07,6.3,1.97,9.51.99.33-.59,1-1.78,1.33-2.37-2.21-3.58-7.04-3.67-9.67-6.76-1.32-2.23-.84-5.45,1.33-6.96Z"/>
    <path class="cls-2" d="M609.85,294.43c4.1-2.87,9.58-2.33,13.95-.37.04,1.29.09,2.58.15,3.88-3.55-1.98-8.49-3.14-11.85-.19-3.87,2.95-3.02,9.84,1.41,11.81,3.41,1.75,7.22.11,10.61-.86-.02.85-.05,2.57-.07,3.42-3.76,1.59-8.15,2.23-12.08.98-7.18-2.97-8.31-14.13-2.12-18.67Z"/>
    <path class="cls-2" d="M133.61,295.19c.38-1.28,1.39-2.11,2.41-2.87.6.27,1.79.8,2.38,1.06,2.75,6.61,5.73,13.12,8.1,19.88-.92.03-2.77.09-3.7.12-.66-1.65-1.33-3.28-2.01-4.91-2.98.05-5.97.04-8.95-.03-.63,1.67-1.22,3.36-1.83,5.06-1.27-.03-2.53-.06-3.8-.08,2.72-5.97,4.78-12.21,7.4-18.23ZM132.95,305.42c2.37,0,4.74.04,7.11.08-1.21-2.69-2.45-5.35-3.77-7.98-1.19,2.6-2.29,5.24-3.34,7.9Z"/>
    <path class="cls-2" d="M162.54,293.01c3.7.12,7.45-.3,11.12.33,7.7,2.43,9.11,14.79,1.93,18.72-4.08,1.97-8.79,1.11-13.16,1.21.15-6.75.05-13.51.11-20.26ZM166.43,296.11c-.27,4.73-.51,9.48.04,14.2,2.55-.24,5.51.18,7.63-1.61,3.83-2.87,3.16-9.59-.95-11.86-2.12-.85-4.49-.54-6.72-.73Z"/>
    <path class="cls-2" d="M196.93,300.21c-1.15-2.47-2.74-4.98-2.34-7.83,1.21.32,2.42.65,3.64,1.01,2.05,4.82,3.76,9.78,5.77,14.62,2.01-4.99,4.16-9.93,6.12-14.94,1.34-.02,2.68-.02,4.02-.01-2.84,6.77-5.39,13.66-8.47,20.32-.87-.05-2.6-.17-3.46-.22-1.91-4.26-3.19-8.78-5.28-12.95Z"/>
    <path class="cls-2" d="M230.03,293.07c4.65-.02,9.29-.06,13.94-.02-.03,1.1-.06,2.21-.09,3.32-3.3-.28-6.62-.28-9.94-.22.02,1.75.03,3.5.03,5.26,2.52.01,5.04.04,7.56.07-.05.75-.15,2.27-.2,3.02-2.5,0-4.99.03-7.48.07.04,1.81.08,3.63.11,5.46,3.35.07,6.7.12,10.05.11-.03,1.1-.06,2.21-.08,3.33-4.67-.19-9.33-.11-14-.15.15-6.75.2-13.5.1-20.25Z"/>
    <path class="cls-2" d="M259.99,292.65c.87,0,2.59-.01,3.46-.02,3.25,4.72,6.65,9.35,9.56,14.3.11-4.63.07-9.26.04-13.89,1.3-.04,2.6-.07,3.91-.09.02,6.78.08,13.57-.03,20.35-.95-.03-2.85-.08-3.8-.11-2.83-4.74-6.11-9.19-9.4-13.6-.03,4.58.16,9.17.11,13.75-1.28-.05-2.55-.09-3.82-.12.05-6.86-.19-13.72-.03-20.57Z"/>
    <path class="cls-2" d="M324.47,292.93c1.17.03,2.35.07,3.54.11-.06,6.73.04,13.47-.04,20.2-1.22.02-2.44.04-3.65.06-.63-6.78.23-13.58.15-20.37Z"/>
    <path class="cls-2" d="M372.85,292.96c5.35.07,10.7.07,16.05.02,0,1.07.01,2.15.02,3.24-2.1-.04-4.21-.08-6.3-.1.14,5.75.21,11.5.23,17.25-1.31-.05-2.62-.1-3.92-.13.03-5.72.05-11.44,0-17.16-2.09.08-4.17.15-6.25.2.05-1.12.11-2.22.17-3.32Z"/>
    <path class="cls-2" d="M408.7,293.13c1.51-.42,3.7-1.03,4.22,1.09,2.59,6.3,5.15,12.63,7.42,19.06-1.17.06-2.33.13-3.48.21-.71-1.72-1.43-3.42-2.16-5.11-2.88.15-5.76.13-8.64.09-.62,1.52-1.23,3.04-1.8,4.59-1.34.18-2.68.35-4,.53,2.6-6.91,5.46-13.71,8.44-20.46ZM410.51,297.59c-1.16,2.63-2.29,5.27-3.37,7.94h6.63c-1.02-2.68-1.87-5.43-3.26-7.94Z"/>
    <path class="cls-2" d="M460.03,293.24c4.51-.15,9.55-1.14,13.65,1.29,3.81,2.26,4.86,7.2,4.25,11.31-.56,4.17-4.6,7.2-8.67,7.4-3.05.21-6.1.04-9.15-.06-.04-6.65-.06-13.29-.08-19.94ZM464.12,296.08c-.15,4.69.18,9.38.44,14.07,2.27-.12,4.86.31,6.8-1.17,3.53-2.41,3.86-8.24.81-11.12-2.2-2.01-5.33-1.59-8.05-1.78Z"/>
    <path class="cls-2" d="M494.04,293.16c4.68-.25,9.37-.14,14.06-.16.1.77.3,2.3.4,3.07-3.56.08-7.12.06-10.67-.01.01,1.8.02,3.61.01,5.42,2.6-.02,5.19-.01,7.79-.01-.06.69-.18,2.08-.25,2.77-2.5.2-5.01.1-7.51.13-.02,1.95-.03,3.91-.04,5.88,3.43.05,6.85.04,10.28-.02-.04,1.07-.07,2.14-.1,3.22-4.56-.06-9.11-.07-13.66-.14-.5-6.71-.07-13.43-.31-20.15Z"/>
    <path class="cls-2" d="M524.03,293.03c1.25-.04,2.5-.06,3.77-.06.15,5.71.03,11.43.11,17.15,3.27.08,6.55.12,9.83.11.01.99.04,1.99.07,3-4.62-.04-9.23.06-13.84.02.07-6.74.03-13.48.06-20.22Z"/>
    <path class="cls-2" d="M576.9,293.22c4.54-1.27,9.33.32,14-.23.01.77.03,2.33.04,3.11-3.37-.04-6.73-.02-10.09-.02-.03,1.8-.07,3.62-.1,5.44,2.42-.02,4.85-.03,7.29-.02-.02.75-.06,2.24-.08,2.99-2.36-.03-4.73-.08-7.08-.1-.05,1.91-.08,3.82-.11,5.74,3.43.04,6.86.06,10.3,0,.02.8.06,2.41.08,3.21-4.72-.07-9.43-.08-14.14-.02,0-6.71.12-13.41-.11-20.11Z"/>
    <path class="cls-2" d="M639.95,293.05c1.23-.03,2.47-.04,3.72-.05.16,4.62-.25,9.28.44,13.87.91,4.42,8.06,4.68,9.4.4.86-4.87.22-9.87.42-14.79,1.22.23,2.45.47,3.69.72-.25,4.84.43,9.73-.3,14.54-1.2,7.96-15.09,8.49-16.71.52-1.18-4.97-.33-10.16-.66-15.21Z"/>
    <path class="cls-2" d="M679.84,294.02c.75-1.68,3.56-2.1,4.32-.17,2.83,6.38,5.16,12.97,7.84,19.42-.94.01-2.82.04-3.76.05-.63-1.63-1.27-3.25-1.91-4.87-2.87.05-5.73.02-8.58-.08-.76,1.67-1.48,3.35-2.19,5.05-1.26-.06-2.52-.1-3.76-.14,2.85-6.34,4.94-13.02,8.04-19.26ZM682.06,297.53c-1.2,2.62-2.31,5.28-3.48,7.91,2.18.07,4.37.12,6.57.16-.99-2.71-2-5.41-3.09-8.07Z"/>
    <path class="cls-2" d="M708.05,293.05c4.69.5,10.21-1.41,14.19,1.91,4.51,3.94,4.88,12.18.09,16.06-3.82,3.66-9.58,2.02-14.33,2.4.02-6.79-.08-13.58.05-20.37ZM711.95,296.04c0,4.5.05,9-.07,13.5,3.42,1.09,8.03.4,9.7-3.18,1.04-2.98.42-6.68-1.99-8.83-2.15-1.77-5.09-1.25-7.64-1.49Z"/>
    <path class="cls-2" d="M748.54,293.27c3.34-1.07,7.24-.98,10.16,1.16,5.24,3.47,5.91,11.92,1.41,16.26-4.05,3.86-11,4.37-15.28.57-5.8-4.92-3.92-15.98,3.71-17.99ZM750.6,296.26c-5.22,1.14-7.2,8.75-3.01,12.16,3,3.15,8.67,2.16,10.68-1.62,3.05-4.93-1.84-12.35-7.67-10.54Z"/>
    <path class="cls-2" d="M779.49,293.07c3.97.15,8.04-.41,11.97.4,4.94,2.05,4.72,9.8-.16,11.85,1.16,2.7,2.45,5.34,3.76,7.99-1-.04-3.01-.11-4.01-.15-1.1-2.42-2.28-4.8-3.46-7.17-1.52-.01-3.03-.02-4.52,0,.01,2.38.03,4.76.07,7.16-1.23,0-2.46.01-3.67.02-.02-6.7-.01-13.4.02-20.1ZM783.04,296.23c.01,2.1.04,4.2.07,6.31,3.08-.11,7.24.97,8.75-2.64-.51-1.11-1.07-2.19-1.65-3.23-2.31-.78-4.8-.43-7.17-.44Z"/>
    <path class="cls-2" d="M292.81,292.99c5.39-.02,10.8.12,16.18-.41-.02.9-.05,2.69-.07,3.59-2.12.05-4.23-.04-6.35-.1.18,5.73.08,11.47.1,17.2-.95-.01-2.85-.02-3.8-.03.01-5.7.02-11.4.04-17.1-2.06.04-4.12.05-6.17.08.02-.81.05-2.42.07-3.23Z"/>
  </g>
</svg>