<?xml version="1.0" encoding="UTF-8"?>
<svg id="Capa_2" data-name="Capa 2" xmlns="http://www.w3.org/2000/svg" viewBox="0 0 566.69 584.31">
  <defs>
    <style>
      .cls-1 {
        fill: #72b8de;
      }

      .cls-2 {
        fill: #3b4d8c;
      }
    </style>
  </defs>
  <g id="Capa_1-2" data-name="Capa 1">
    <g>
      <path class="cls-2" d="M52.36,76.6h63.57v196.32s-2.25,36.56,38.81,42.75h62.44V76.6h67.5v301.51h-151.88s-78.19,2.25-78.19-78.19l-2.25-223.32Z"/>
      <path class="cls-1" d="M125.49,76.6h80.44v226.69h-44.44s-38.25-.56-36-43.31V76.6Z"/>
      <path class="cls-2" d="M528.81,378.12h-63.57v-196.32s2.25-36.56-38.81-42.75h-62.44v239.07h-67.5V76.61h151.88s78.19-2.25,78.19,78.19l2.25,223.32Z"/>
      <path class="cls-1" d="M455.68,378.12h-80.44v-226.69h44.44s38.25.56,36,43.31v183.38Z"/>
      <rect class="cls-2" x="217.18" width="67.5" height="67.5"/>
      <g>
        <path class="cls-2" d="M90.62,500.69c0,4.66-.31,7.92-.93,9.78-.62,1.86-1.71,3.53-3.26,4.99-1.58,1.5-3.68,2.74-6.29,3.75-2.61,1-5.59,1.71-8.95,2.14,3.84-2.71,6.5-5.45,8-8.23,1.5-2.78,2.24-6.92,2.24-12.42v-47.4c0-2.96-.27-5.15-.8-6.56-.54-1.41-1.42-2.67-2.67-3.77h16.13c-1.27,1.1-2.16,2.36-2.69,3.77-.52,1.41-.78,3.6-.78,6.56v47.4Z"/>
        <path class="cls-2" d="M103.38,493.79c-.25.59-.44,1.21-.57,1.84-.13.63-.19,1.29-.19,1.97,0,.56.21,1.18.61,1.86.41.68,1.07,1.44,1.97,2.29h-13.88c1.16-.79,2.19-1.88,3.11-3.26.92-1.38,1.85-3.27,2.81-5.67l16.55-41.94c.34-.79.59-1.57.76-2.33.17-.76.25-1.44.25-2.03,0-.68-.16-1.3-.49-1.86-.32-.56-.85-1.13-1.59-1.69h13.38l18.71,49.27c.87,2.23,1.81,4.04,2.81,5.44,1,1.4,2.29,2.76,3.87,4.08h-16.84l.21-.21c1.55-1.64,2.33-2.84,2.33-3.6,0-.9-.34-2.23-1.02-3.98-.08-.28-.15-.49-.21-.63l-5.04-13.59h-21.93l-5.63,14.05ZM111.34,473.85h17.35l-8.34-22.73-9.01,22.73Z"/>
        <path class="cls-2" d="M149.78,501.75c1.24-1.13,2.13-2.4,2.67-3.83.54-1.43.8-3.62.8-6.58v-38.05c0-2.96-.27-5.15-.8-6.56-.54-1.41-1.42-2.67-2.67-3.77h20.02c5.98,0,10.68,1.16,14.09,3.49,3.41,2.33,5.12,5.51,5.12,9.54,0,2.37-.73,4.51-2.18,6.41-1.45,1.91-3.63,3.58-6.54,5.02,4.57,1.3,8.03,3.28,10.39,5.95,2.36,2.67,3.54,5.95,3.54,9.84,0,5.76-2.26,10.29-6.77,13.59-4.51,3.3-10.78,4.95-18.79,4.95h-18.88ZM162.61,466.28c.76.14,1.54.24,2.33.3.79.06,1.6.08,2.41.08,3.81,0,6.76-.83,8.85-2.48,2.09-1.65,3.13-3.96,3.13-6.92,0-2.77-.93-4.93-2.79-6.5-1.86-1.57-4.46-2.35-7.79-2.35-.87.03-1.81.11-2.81.23-1,.13-2.11.32-3.32.57v17.06ZM162.61,494.8c2.43.25,4.15.42,5.18.49,1.03.07,1.87.11,2.52.11,4.49,0,8.01-1,10.56-3.01,2.55-2,3.83-4.75,3.83-8.25s-1.35-6.48-4.06-8.78c-2.71-2.3-6.24-3.45-10.58-3.45-.93.03-2.02.11-3.28.23-1.26.13-2.65.32-4.17.57v22.09Z"/>
        <path class="cls-2" d="M231.53,503.14c-4.49,0-8.71-.72-12.68-2.16-3.96-1.44-7.37-3.5-10.22-6.18-2.99-2.82-5.3-6.14-6.92-9.97-1.62-3.82-2.43-7.84-2.43-12.04,0-3.3.51-6.5,1.54-9.61,1.03-3.1,2.53-6,4.51-8.68,3.08-4.15,6.88-7.34,11.41-9.56,4.53-2.23,9.46-3.34,14.79-3.34,4.57,0,8.84.71,12.8,2.14,3.96,1.43,7.37,3.48,10.22,6.16,3.05,2.82,5.37,6.16,6.98,10.01,1.61,3.85,2.41,8.01,2.41,12.46,0,4.09-.9,8.1-2.71,12.02-1.81,3.92-4.35,7.39-7.62,10.41-2.94,2.74-6.28,4.81-10.03,6.22-3.75,1.41-7.77,2.12-12.06,2.12ZM231.86,447.82c-6.55,0-11.94,2.24-16.19,6.73-4.25,4.49-6.37,10.22-6.37,17.18s2.1,13.17,6.31,17.93c4.2,4.75,9.45,7.13,15.75,7.13s11.9-2.25,16.15-6.75c4.25-4.5,6.37-10.25,6.37-17.25s-2.1-13.15-6.31-17.88c-4.2-4.73-9.44-7.09-15.7-7.09Z"/>
        <path class="cls-2" d="M325.67,442.96c-1.27,1.1-2.16,2.36-2.69,3.77-.52,1.41-.78,3.6-.78,6.56v49.82c-2.06-.06-4.02-.72-5.86-1.99-1.85-1.27-4.17-3.68-6.96-7.24l-30.35-38.26v35.72c0,3.08.26,5.31.76,6.69.51,1.38,1.38,2.62,2.62,3.72h-13.33c1.24-1.13,2.13-2.4,2.67-3.83.54-1.43.8-3.62.8-6.58v-38.05c0-2.96-.27-5.15-.8-6.56-.54-1.41-1.43-2.67-2.67-3.77h11.94l34.79,44.15v-33.82c0-2.96-.27-5.15-.8-6.56-.54-1.41-1.43-2.67-2.67-3.77h13.33Z"/>
        <path class="cls-2" d="M332.2,501.75c1.24-1.13,2.13-2.4,2.67-3.83.54-1.43.8-3.62.8-6.58v-38.05c0-2.96-.27-5.15-.8-6.56-.54-1.41-1.43-2.67-2.67-3.77h32.21v9.23c-1.44-1.13-3.02-1.95-4.74-2.46-1.72-.51-3.71-.76-5.97-.76-1.16,0-2.46.09-3.89.27-1.44.18-3.06.46-4.87.83v16.59h14.39v8.55c-.68-.79-1.59-1.35-2.75-1.67-1.16-.32-3.27-.49-6.35-.49h-5.29v21.08c2.23.34,4.25.59,6.05.76,1.81.17,3.37.26,4.7.26,2.99,0,5.81-.4,8.46-1.21,2.65-.8,5.26-2.04,7.83-3.71l-4.11,11.51h-35.68Z"/>
        <path class="cls-2" d="M387.41,491.33c0,2.96.26,5.16.78,6.58.52,1.42,1.42,2.7,2.69,3.83h-16.13c1.24-1.13,2.13-2.4,2.67-3.83.54-1.43.8-3.62.8-6.58v-38.05c0-2.96-.27-5.15-.8-6.56-.54-1.41-1.42-2.67-2.67-3.77h20.36c5.81,0,10.5,1.38,14.08,4.15,3.57,2.77,5.35,6.36,5.35,10.79,0,3.22-1.07,6.05-3.22,8.51-2.14,2.46-5.47,4.61-9.99,6.48l15.28,20.36c.9,1.21,1.99,2.5,3.26,3.85,1.27,1.35,2.72,2.77,4.36,4.23l-4.57.42h-.72c-2.15,0-4.23-.56-6.26-1.69-2.03-1.13-3.75-2.68-5.16-4.66l-17.52-24.17c5.22-1.16,9.04-2.74,11.45-4.76,2.41-2.02,3.62-4.62,3.62-7.81,0-2.96-1.04-5.37-3.11-7.24-2.07-1.86-4.79-2.79-8.15-2.79-.76,0-1.68.06-2.75.19-1.07.13-2.29.32-3.64.57v41.94Z"/>
        <path class="cls-2" d="M437.07,491.33c0,2.96.26,5.16.78,6.58.52,1.42,1.42,2.7,2.69,3.83h-16.13c1.27-1.13,2.17-2.4,2.69-3.83.52-1.43.78-3.62.78-6.58v-38.05c0-2.96-.26-5.15-.78-6.56-.52-1.41-1.42-2.67-2.69-3.77h16.13c-1.27,1.1-2.16,2.36-2.69,3.77-.52,1.41-.78,3.6-.78,6.56v38.05Z"/>
        <path class="cls-2" d="M451.52,493.79c-.25.59-.44,1.21-.57,1.84-.13.63-.19,1.29-.19,1.97,0,.56.21,1.18.61,1.86.41.68,1.07,1.44,1.97,2.29h-13.88c1.16-.79,2.19-1.88,3.11-3.26.92-1.38,1.85-3.27,2.81-5.67l16.55-41.94c.34-.79.59-1.57.76-2.33.17-.76.25-1.44.25-2.03,0-.68-.16-1.3-.49-1.86-.32-.56-.85-1.13-1.59-1.69h13.38l18.71,49.27c.87,2.23,1.81,4.04,2.81,5.44,1,1.4,2.29,2.76,3.87,4.08h-16.84l.21-.21c1.55-1.64,2.33-2.84,2.33-3.6,0-.9-.34-2.23-1.02-3.98-.08-.28-.15-.49-.21-.63l-5.04-13.59h-21.93l-5.63,14.05ZM459.48,473.85h17.35l-8.34-22.73-9.01,22.73Z"/>
        <path class="cls-2" d="M56.59,523.96c-1.27,1.1-2.17,2.36-2.69,3.77-.52,1.41-.78,3.6-.78,6.56v49.82c-2.06-.06-4.02-.72-5.86-1.99-1.85-1.27-4.17-3.68-6.96-7.24l-30.35-38.26v35.72c0,3.08.26,5.31.76,6.69.51,1.38,1.38,2.62,2.62,3.72H0c1.24-1.13,2.13-2.41,2.67-3.83.54-1.42.8-3.62.8-6.58v-38.05c0-2.96-.27-5.15-.8-6.56-.54-1.41-1.42-2.67-2.67-3.77h11.94l34.79,44.15v-33.82c0-2.96-.27-5.15-.8-6.56-.54-1.41-1.43-2.67-2.67-3.77h13.33Z"/>
        <path class="cls-2" d="M67.35,574.79c-.25.59-.44,1.21-.57,1.84-.13.63-.19,1.29-.19,1.97,0,.56.21,1.18.61,1.86.41.68,1.07,1.44,1.97,2.29h-13.88c1.16-.79,2.19-1.88,3.11-3.26.92-1.38,1.85-3.27,2.81-5.67l16.55-41.94c.34-.79.59-1.57.76-2.33.17-.76.25-1.44.25-2.03,0-.67-.16-1.3-.49-1.86-.32-.56-.85-1.13-1.59-1.69h13.38l18.71,49.27c.87,2.23,1.81,4.04,2.81,5.44,1,1.4,2.29,2.76,3.87,4.08h-16.84l.21-.21c1.55-1.64,2.33-2.84,2.33-3.6,0-.9-.34-2.23-1.02-3.98-.08-.28-.15-.49-.21-.63l-5.04-13.59h-21.93l-5.63,14.05ZM75.31,554.86h17.35l-8.34-22.73-9.01,22.73Z"/>
        <path class="cls-2" d="M163.83,570.94l-4.4,10.58c-2.76.9-5.36,1.58-7.79,2.03-2.43.45-4.74.68-6.94.68-3.27,0-6.46-.42-9.57-1.27-3.11-.85-6.04-2.1-8.8-3.77-4.4-2.63-7.83-6.22-10.29-10.79-2.46-4.57-3.68-9.61-3.68-15.11,0-4.12.89-8.13,2.67-12.02,1.78-3.89,4.3-7.35,7.58-10.37,2.99-2.74,6.4-4.82,10.24-6.24,3.84-1.42,7.93-2.14,12.27-2.14,2.06,0,4.22.19,6.5.57,2.27.38,4.7.97,7.3,1.75v9.44c-2.65-1.41-5.16-2.46-7.53-3.13-2.37-.68-4.68-1.01-6.94-1.01-6.57,0-11.85,2.03-15.81,6.09-3.96,4.06-5.95,9.45-5.95,16.17,0,7.36,2.05,13.31,6.16,17.84,4.11,4.53,9.5,6.79,16.19,6.79,2.74,0,5.65-.5,8.74-1.5,3.09-1,6.44-2.53,10.05-4.59Z"/>
        <path class="cls-2" d="M180.39,572.34c0,2.96.26,5.16.78,6.58.52,1.42,1.42,2.7,2.69,3.83h-16.13c1.27-1.13,2.16-2.41,2.69-3.83.52-1.42.78-3.62.78-6.58v-38.05c0-2.96-.26-5.15-.78-6.56-.52-1.41-1.42-2.67-2.69-3.77h16.13c-1.27,1.1-2.17,2.36-2.69,3.77-.52,1.41-.78,3.6-.78,6.56v38.05Z"/>
        <path class="cls-2" d="M221.46,584.15c-4.49,0-8.71-.72-12.68-2.16-3.96-1.44-7.37-3.5-10.22-6.18-2.99-2.82-5.3-6.14-6.92-9.97-1.62-3.82-2.43-7.84-2.43-12.04,0-3.3.51-6.5,1.54-9.61,1.03-3.1,2.53-6,4.51-8.68,3.08-4.15,6.88-7.34,11.41-9.57,4.53-2.23,9.46-3.34,14.79-3.34,4.57,0,8.84.71,12.8,2.14,3.96,1.42,7.37,3.48,10.22,6.16,3.05,2.82,5.37,6.16,6.98,10.01,1.61,3.85,2.41,8.01,2.41,12.46,0,4.09-.9,8.1-2.71,12.02-1.81,3.92-4.35,7.39-7.62,10.41-2.94,2.74-6.28,4.81-10.03,6.22-3.75,1.41-7.77,2.12-12.06,2.12ZM221.8,528.83c-6.55,0-11.94,2.24-16.19,6.73-4.25,4.49-6.37,10.21-6.37,17.18s2.1,13.17,6.31,17.93c4.2,4.76,9.45,7.13,15.75,7.13s11.9-2.25,16.15-6.75c4.25-4.5,6.37-10.25,6.37-17.25s-2.1-13.16-6.31-17.88c-4.2-4.73-9.44-7.09-15.7-7.09Z"/>
        <path class="cls-2" d="M315.61,523.96c-1.27,1.1-2.17,2.36-2.69,3.77-.52,1.41-.78,3.6-.78,6.56v49.82c-2.06-.06-4.02-.72-5.86-1.99-1.85-1.27-4.17-3.68-6.96-7.24l-30.35-38.26v35.72c0,3.08.26,5.31.76,6.69s1.38,2.62,2.62,3.72h-13.33c1.24-1.13,2.13-2.41,2.67-3.83.54-1.42.8-3.62.8-6.58v-38.05c0-2.96-.27-5.15-.8-6.56-.54-1.41-1.43-2.67-2.67-3.77h11.94l34.79,44.15v-33.82c0-2.96-.27-5.15-.8-6.56-.54-1.41-1.43-2.67-2.67-3.77h13.33Z"/>
        <path class="cls-2" d="M326.37,574.79c-.25.59-.44,1.21-.57,1.84-.13.63-.19,1.29-.19,1.97,0,.56.21,1.18.61,1.86.41.68,1.07,1.44,1.97,2.29h-13.88c1.16-.79,2.19-1.88,3.11-3.26.92-1.38,1.85-3.27,2.81-5.67l16.55-41.94c.34-.79.59-1.57.76-2.33.17-.76.25-1.44.25-2.03,0-.67-.16-1.3-.49-1.86-.32-.56-.85-1.13-1.59-1.69h13.38l18.71,49.27c.87,2.23,1.81,4.04,2.82,5.44,1,1.4,2.29,2.76,3.87,4.08h-16.84l.21-.21c1.55-1.64,2.33-2.84,2.33-3.6,0-.9-.34-2.23-1.02-3.98-.08-.28-.15-.49-.21-.63l-5.04-13.59h-21.93l-5.63,14.05ZM334.33,554.86h17.35l-8.34-22.73-9.01,22.73Z"/>
        <path class="cls-2" d="M372.77,582.75c1.24-1.13,2.13-2.41,2.67-3.83.54-1.42.8-3.62.8-6.58v-38.05c0-2.96-.27-5.15-.8-6.56-.54-1.41-1.42-2.67-2.67-3.77h16.13c-1.27,1.1-2.17,2.36-2.69,3.77-.52,1.41-.78,3.6-.78,6.56v40.84c2.29.34,4.33.59,6.14.76,1.81.17,3.37.25,4.7.25,2.96,0,5.78-.4,8.46-1.21,2.68-.8,5.29-2.04,7.83-3.7l-4.11,11.51h-35.68Z"/>
        <path class="cls-2" d="M437.01,581.44l-2.79-10.67c3.41,2.29,6.73,3.99,9.95,5.1,3.22,1.11,6.41,1.67,9.57,1.67,4.04,0,7.28-.87,9.74-2.6,2.45-1.74,3.68-3.99,3.68-6.75,0-.79-.13-1.58-.38-2.37-.25-.79-.62-1.54-1.1-2.24-1.07-1.61-4.67-3.91-10.79-6.9-1.55-.73-2.75-1.31-3.6-1.74-5.73-2.88-9.66-5.53-11.79-7.96-2.13-2.43-3.2-5.3-3.2-8.63,0-4.77,1.95-8.56,5.84-11.36,3.89-2.81,9.23-4.21,16-4.21,1.95,0,4.09.13,6.43.38,2.34.25,4.88.65,7.62,1.18v9.86c-2.43-1.83-4.87-3.2-7.32-4.11-2.45-.9-5.01-1.35-7.66-1.35-3.36,0-6.06.72-8.1,2.16-2.05,1.44-3.07,3.32-3.07,5.63,0,2.06.8,3.88,2.41,5.46,1.61,1.58,5.22,3.7,10.83,6.35.31.14.79.37,1.44.68,4.74,2.17,8.28,4.18,10.62,6.01,1.75,1.35,3.11,3,4.08,4.95.97,1.95,1.46,4.02,1.46,6.22,0,5.05-2.31,9.33-6.94,12.85-4.63,3.51-10.41,5.27-17.35,5.27-2.23,0-4.63-.24-7.2-.72-2.57-.48-5.36-1.2-8.38-2.16Z"/>
        <path class="cls-2" d="M482.69,578.6c0-1.5.52-2.76,1.57-3.81,1.04-1.04,2.31-1.57,3.81-1.57s2.73.52,3.79,1.57c1.06,1.04,1.59,2.31,1.59,3.81s-.53,2.73-1.59,3.79c-1.06,1.06-2.32,1.59-3.79,1.59s-2.77-.53-3.81-1.59c-1.04-1.06-1.57-2.32-1.57-3.79Z"/>
        <path class="cls-2" d="M506.87,574.79c-.25.59-.44,1.21-.57,1.84-.13.63-.19,1.29-.19,1.97,0,.56.2,1.18.61,1.86.41.68,1.07,1.44,1.97,2.29h-13.88c1.16-.79,2.19-1.88,3.11-3.26.92-1.38,1.85-3.27,2.81-5.67l16.55-41.94c.34-.79.59-1.57.76-2.33.17-.76.25-1.44.25-2.03,0-.67-.16-1.3-.49-1.86-.32-.56-.85-1.13-1.59-1.69h13.37l18.71,49.27c.87,2.23,1.81,4.04,2.81,5.44,1,1.4,2.29,2.76,3.87,4.08h-16.84l.21-.21c1.55-1.64,2.33-2.84,2.33-3.6,0-.9-.34-2.23-1.02-3.98-.08-.28-.15-.49-.21-.63l-5.04-13.59h-21.93l-5.63,14.05ZM514.83,554.86h17.35l-8.34-22.73-9.01,22.73Z"/>
        <path class="cls-2" d="M555.94,578.6c0-1.5.52-2.76,1.57-3.81,1.04-1.04,2.31-1.57,3.81-1.57s2.73.52,3.79,1.57c1.06,1.04,1.59,2.31,1.59,3.81s-.53,2.73-1.59,3.79c-1.06,1.06-2.32,1.59-3.79,1.59s-2.77-.53-3.81-1.59c-1.05-1.06-1.57-2.32-1.57-3.79Z"/>
      </g>
    </g>
  </g>
</svg>