<?xml version="1.0" encoding="UTF-8"?>
<svg id="Capa_2" data-name="Capa 2" xmlns="http://www.w3.org/2000/svg" viewBox="0 0 767.22 648.24">
  <defs>
    <style>
      .cls-1 {
        fill: #cfb16c;
      }
    </style>
  </defs>
  <g id="Layer_1" data-name="Layer 1">
    <g>
      <path class="cls-1" d="M341.44,5.14c43.29-10.5,90.84-5.01,129.59,17.39,15.46,9.08,29.7,20.71,40.41,35.2,9.74,12.81,16.77,27.78,19.78,43.63,3.96,20.8,1.05,42.91-8.46,61.86-13.7,28.41-39.54,49.52-68.15,61.83-8.74,3.73-17.76,6.86-27.01,9.08-.15,33.63-.04,67.27-.07,100.9-12.78-.05-25.55-.04-38.33.02-.63-37.49-.1-74.99-.28-112.49.19-14.72-.48-29.46.59-44.16,1.01-14.31,6.46-28.58,16.52-38.96,11.82-12.74,28.48-19.75,45.1-23.74,5.61-1.61,11.88-.39,16.55,3.09,6.36,4.5,9.2,13.16,7.04,20.61-1.56,6.76-7.39,12.02-14.03,13.63-10.06,2.67-20.96,5.83-27.79,14.25-5.77,7.51-5.28,17.54-5.34,26.51,13.31-3.26,25.57-10.07,36.48-18.26,14.17-10.92,25.7-26.26,29.21-44.07,3.18-14.94-.12-30.86-7.88-43.89-5.95-10.48-14.92-18.84-24.43-26.06-17.57-12.44-38.57-19.62-59.88-22.01-24.83-2.72-50.48.57-73.4,10.69-18.11,8.13-34.93,20.7-44.82,38.23-9.46,15.93-11.32,36.25-4.33,53.48,5.25,13.85,15.38,25.3,26.98,34.26,10.77,8.03,22.93,14.29,35.87,18-.14-8.4.35-17.51-4.05-25.03-4.24-6.38-11.2-10.37-18.3-12.82-4.93-1.84-10.17-2.75-15.03-4.75-6.48-3.44-11.2-10.61-10.47-18.11-.04-11.3,11.65-20.62,22.68-18.09,18.3,4.23,36.93,11.91,49.14,26.78,10.34,12.27,14.51,28.59,14.39,44.39.11,49.51.07,99.02.02,148.53-12.8-.06-25.6-.15-38.4.04-.03-33.61-.01-67.23-.01-100.84-19.88-5.01-39.07-13.25-55.75-25.26-16.65-11.85-30.9-27.47-39.78-45.98-9.19-18.59-12.26-40.14-8.53-60.54,3.57-20.79,14.29-39.88,28.71-55.09,20.14-21.3,47.1-35.46,75.46-42.25Z"/>
      <path class="cls-1" d="M311.46,75.95c5.24-5.53,13.35-6.81,20.63-6.87,17.21.56,33.77,8.45,46.09,20.31,1.98,1.39,1.5,3.96,1.63,6.06-.12,14.5.12,29-.17,43.5-15.99-20.77-39.17-35.02-63.81-43.25-3-.96-6.52-2.03-7.76-5.29-1.84-4.91-.34-10.81,3.39-14.46Z"/>
      <path class="cls-1" d="M426.81,70.21c8.32-1.6,17.31-1.82,25.16,1.77,6.67,2.77,11.16,10.55,9.18,17.69-.95,3.16-4.13,4.76-7.06,5.67-25.05,8.16-48.5,22.68-64.9,43.54-.62-14.11-.07-28.25-.29-42.37.16-2.45-.4-5.51,1.83-7.21,9.98-9.49,22.56-16.35,36.08-19.09Z"/>
    </g>
    <g>
      <path class="cls-1" d="M41.06,399.61c10.49-1.21,21.46.82,30.55,6.3,11.8,7.02,20.07,19.66,21.78,33.29,2.08,14.87-3.9,30.57-15.32,40.33-16.83,14.87-44.47,15.12-61.65.69C6,471.59-.33,458.09.01,444.53c-.04-14.33,7.42-28.37,19.09-36.62,6.5-4.5,14.05-7.55,21.96-8.3ZM40.54,405.05c-8.24,1.65-15.01,8.04-18.19,15.69-3.38,8.13-4.04,17.09-4.04,25.81.33,11.5,2.9,23.9,11.4,32.25,6.08,6.4,15.85,8.4,24.21,5.99,7-1.92,12.4-7.51,15.87-13.69,5.57-10.58,6.14-22.95,5.19-34.64-.86-9.22-3.33-19.04-10.41-25.53-6.3-6.04-15.71-7.53-24.03-5.88Z"/>
      <path class="cls-1" d="M228.52,400.14c10.07-1.81,20.81-.84,30.11,3.58,11.74,5.47,21.03,16.16,24.52,28.68,3.06,10.59,2.2,22.3-2.62,32.24-5.89,12.57-17.81,22.15-31.41,25.03-12.52,2.6-26.29.91-37.08-6.25-10.81-6.84-18.35-18.49-20.34-31.1-1.73-10.62.41-21.87,6.13-31.01,6.6-11,18.08-18.85,30.69-21.17ZM230.58,405.3c-7.6,1.97-13.85,7.83-16.89,15-3.81,9.18-4.43,19.34-4.04,29.17.51,10.52,3.49,21.59,11.18,29.2,6.71,7.08,17.91,9.01,26.8,5.21,6.3-2.56,10.88-8.12,13.95-14.02,5.27-10.94,5.69-23.53,4.36-35.41-.96-8.58-3.61-17.59-10.26-23.52-6.52-6.39-16.52-7.62-25.1-5.63Z"/>
      <path class="cls-1" d="M594.88,400.92c9.7-.81,19.43-1.42,29.18-1.49,15.41-.72,31.64.13,45.47,7.69,10.23,5.54,18.41,15.31,21.11,26.73,2.93,11.18,1.58,23.64-4.66,33.49-8.66,13.66-24.89,21.45-40.86,21.41-14.36.06-28.72-1.05-43.08-.31-2.65.15-5.35.62-7.97.04-1.39-.68-1.88-2.44-.69-3.56,2.92-1.29,6.13-1.76,9.09-2.95,2.06-3.45,2.03-7.56,2.09-11.45.01-16.01-.01-32.02.01-48.03-.03-4.52.14-9.11-.88-13.54-.49-2.02-2.77-2.92-4.65-2.9-3.2.08-6.4.68-9.58.07.17-1.48.49-2.93.94-4.33,1.41-.61,2.96-.72,4.48-.87ZM622.63,405.15c-.59,1.72-1.19,3.48-1.08,5.34.01,20.02.01,40.04,0,60.06-.17,5.02,2.62,10.33,7.67,11.8,8.25,2.44,17.42.91,25.05-2.84,14.63-7.32,22.17-25.21,19.02-40.97-2.37-14.36-12.69-27.14-26.43-32.1-7.71-2.64-16.34-3.81-24.23-1.29Z"/>
      <path class="cls-1" d="M99.19,401.65c3.89-.85,7.91-.19,11.85-.17,10,.47,20.02.3,30.01-.18,8.76-.38,18.19.45,25.53,5.73,9.61,7.09,8.95,23.49-.52,30.41-2.98,2.18-6.44,3.55-9.73,5.19,1.38,4.16,4.02,7.71,6.11,11.52,4.21,7.38,8.63,14.65,12.83,22.04,1.95,3.38,4.96,6.4,8.82,7.42,2.56.96,6.07,1.07,6.96,4.25-9.71.77-19.52.45-29.26.17-5.92-11.19-11.05-22.82-17.73-33.6-2.24-3.3-4.63-7.37-8.9-8.14-1.8-.11-4.15-.39-5.34,1.31-1.09,3.5-.79,7.24-1,10.87.07,6.69-.34,13.41.4,20.08.29,1.82.96,4.1,2.94,4.71,3.47.6,7.03.84,10.41,1.94-.05.88-.14,2.63-.19,3.51-7.45.34-14.88-.69-22.34-.45-7.5-.15-15.04.32-22.52-.24-.38-1.64-.31-4.23,2-4.09,3.96-1.05,10.8-.37,11.31-5.84,1.76-20.47.66-41.05.99-61.57-.14-2.95.74-6.74-2.13-8.69-3.18-2.79-9.41.12-11.22-4.23.18-.49.54-1.47.72-1.95ZM129.88,408.24c-1.39,4.26-.98,8.84-1.07,13.26.14,6.47-.28,12.96.29,19.42,7.12.94,15.06.67,21.37-3.15,6.41-4.6,6.93-13.84,4.88-20.81-2.73-7.43-11.1-10.32-18.37-10.74-2.37-.12-6.04-.75-7.1,2.02Z"/>
      <path class="cls-1" d="M320.79,402.4c4.28-1.32,8.8-1.24,13.23-1.13,8.35.36,16.73.84,25.08.09,1.69.08,4.03-.83,5.02,1.09,0,1.21.01,3.11-1.41,3.56-3.21.92-6.61.7-9.87,1.41-.02,2.19-.1,4.49.92,6.52,6.03,12.91,12.01,25.86,18.09,38.75,1.77,3.6,3.08,7.49,5.51,10.74.49-.36,1.48-1.07,1.97-1.42,5.98-15.01,12.29-29.89,18.29-44.89.76-2.61,2.56-5.62.89-8.24-3.48-2.11-7.75-2.06-11.63-2.91-.07-1.4-.12-2.79-.14-4.17,7.04-1.37,14.16.55,21.25-.16,3.99-.01,9-1.74,12,1.83-.23.55-.71,1.66-.95,2.21-4.1.91-8.78,2.04-10.59,6.34-8.21,16.84-16.08,33.85-24.15,50.76-3.02,6.42-5.84,12.95-8.3,19.62-1.23,3.16-2.15,6.67-4.88,8.93-4.51-6.62-6.63-14.47-10.08-21.64-8.73-18.65-17.57-37.26-26.45-55.83-1.78-4.31-5.84-7.2-10.45-7.67-2.22.04-2.68-2.14-3.35-3.79Z"/>
      <path class="cls-1" d="M423.16,401.62c1.6-.41,3.26-.38,4.9-.35,18.32.87,36.67.47,54.99-.03,2.09-.07,4.18.24,6.22.73.3,6.72,1.52,13.76-.74,20.28-.72-.31-2.16-.91-2.88-1.22-1.83-4.39-3.32-10.02-8.41-11.62-7.36-2.59-15.52-3.1-23.16-1.67-1.26,5.17-.65,10.52-.78,15.79.11,5.35-.32,10.74.34,16.07,5,1.43,10.47,1.64,15.51.27,5.47-1.85,6.17-8.37,9.83-12.13.63.44,1.88,1.32,2.51,1.77.42,8.32-1.69,16.58-.71,24.91.02,1.98.85,4.22-.61,5.92-1.15-.26-2.28-.55-3.39-.87-1.26-3.96-1.22-9.02-5.17-11.44-4.77-2.48-10.44-2.5-15.67-2.07-3.43-.07-2.74,4.25-2.9,6.53.27,9.12-.54,18.3.52,27.38,7.65,5.05,18.64,4.54,26.06-.78,4.02-2.79,6.07-7.37,8.77-11.27.64-1.23,2.12-1.19,3.28-1.54,1.3,3.8-.31,7.59-1.11,11.3-.77,3.75-1.5,7.51-2.63,11.17-7.95.22-15.88-.38-23.82-.5-14.32.18-28.64-.39-42.94.56-.46-1.28-1.04-2.6-.72-3.98,3.5-2.21,8.15-1.08,11.73-3.14,3.57-2.99,2.59-8.18,3.02-12.28.21-17.65.05-35.3.09-52.95-.26-3.06.19-6.66-1.96-9.14-2.87-1.47-6.29-1.26-9.41-1.85-.5-1.24-1.04-2.5-.76-3.85Z"/>
      <path class="cls-1" d="M498.11,401.36c11.63-.27,23.28.92,34.92.2,10.75-.44,22.6-1.34,32,4.93,10.35,6.79,10.06,23.99.16,31.04-3.05,2.16-6.61,3.43-9.75,5.45,4.44,8.74,9.77,16.99,14.59,25.53,3.54,5.5,5.94,12.89,12.87,14.97,2.46,1.29,6.94.71,7.11,4.35-7.95.98-16.02.12-24.01.46-1.76-.2-4.19.55-5.38-1.15-6.76-12.3-11.97-25.57-20.34-36.93-2.45-3.73-7.28-4.88-11.29-3.13-1.26,6.72-.89,13.59-.94,20.4.01,4.01-.18,8.08.61,12.04.33,1.44.92,3.18,2.53,3.64,3.52.73,7.12,1.03,10.59,2.03-.09,1.15-.17,2.32-.26,3.5-7.83.34-15.63-.73-23.45-.43-7.1-.25-14.29.52-21.33-.4-.08-.62-.24-1.87-.32-2.49,3.61-3.52,11.2-.61,13.38-6.11,1.24-9.86,1.3-19.84,1.25-29.76-.04-12.36.04-24.71-.03-37.06.21-2.34-1.23-4.69-3.48-5.4-2.75-.86-5.71-.63-8.44-1.5-1.79-.73-.9-2.75-.99-4.18ZM529.35,406.98c-1.85,6-1.19,12.34-1.29,18.52.08,5.16-.28,10.34.32,15.48,6.35.8,13.13.53,19.13-1.94,5.94-2.55,8.5-9.43,8.08-15.53.24-6.08-3.05-12.41-8.84-14.76-5.41-2.22-11.7-3.64-17.4-1.77Z"/>
      <path class="cls-1" d="M697.92,401.74c1.99-.29,4-.55,6.03-.46,16.03.81,32.08.46,48.11.15,3.68-.11,7.39-.44,11.07.04,1.97,1.27,1.28,4.01,1.63,5.99-.06,4.45.54,9.03-.59,13.38-.36,1.74-2.73,1.28-3.28-.07-2.29-3.96-3.18-9.43-8.08-11.13-7.37-2.77-15.8-3.49-23.48-1.84-1.2,3.44-1.01,7.14-1.04,10.73.07,5.99-.08,11.98.05,17.97-.04,1.66.83,3.68,2.75,3.75,4.56.64,9.45.95,13.87-.63,4.93-2.25,5.72-8.31,9.15-12.02,1.25,1.07,2.96,2.05,2.64,4.01-.06,6.95-1.61,13.85-1.05,20.81.21,2.65.41,5.31.09,7.97-1.25-.28-2.53-.48-3.68-1.02-1.81-4.05-1.53-9.74-6.27-11.79-5.43-2.13-11.8-2.58-17.38-.83-.27,10.24-.14,20.49-.12,30.73-.17,3.07,3.2,4.44,5.71,5.01,6.47,1.31,13.72,1.33,19.38-2.56,5.18-2.92,7.58-8.6,10.77-13.32l2.88.28c.26,2.26.18,4.55-.47,6.75-1.33,5.01-2.08,10.16-3.56,15.14-22.25-.35-44.53-1.15-66.77.04-.52-1.46-.74-2.98-.74-4.51,3.85-1.01,8.01-.94,11.69-2.56,3.1-2.36,2.71-6.77,3.03-10.23.08-18.99.02-37.98.04-56.97-.22-2.49-.07-5.45-1.92-7.37-2.9-1.16-6.12-1.04-9.09-1.89-1.07-.86-.99-2.37-1.37-3.55Z"/>
      <path class="cls-1" d="M268.04,556.46c12.51-6.47,25.57-13.77,40.04-13.74,5.16-.3,10.29,2.85,11.97,7.79,2.34,6.6.39,13.77-2.44,19.9-3.38,6.7-7.15,13.21-11.38,19.41,10.53-1.64,21.18-3.4,31.87-2.57,4.19.63,6.05-3.72,8.24-6.39,5.83-7.42,11.28-15.23,18.18-21.72.95.11,1.9.22,2.85.34,1.29,3.25.46,6.92-1.54,9.7-4.68,6.46-10.48,12.04-15.11,18.55,2.67.5,5.47.67,8,1.76-.18.41-.54,1.24-.73,1.65-3.29-.15-6.58-.49-9.88-.43-8.6,10.35-17.06,21.04-23.39,32.94,3.4-2.79,6.28-6.3,10.15-8.47.48.23,1.45.69,1.94.92-6.73,6.86-11.99,15.22-19.73,21.03-1.36-.83-2.94-1.77-3.02-3.56-.18-3.08,1.54-5.84,2.68-8.59,6.03-12.39,14.2-23.56,22.31-34.64-11.51-.88-22.98,1.21-34.19,3.55-2.2.23-3.34,2.31-4.56,3.88-6.24,8.7-13.17,16.89-19.29,25.67-1.79,2.37.5,5.99-2.03,8.06-5.5,5.32-10.89,11.19-17.93,14.46-2.15-1.27-4.96-3.21-3.89-6.13,11.47-13.44,22.23-27.52,32.36-42-9.61,1.79-19.11,7.29-29.06,4.97.05-.98.14-2.93.19-3.91,3.44-.27,6.96.78,10.33-.29,6.72-1.79,13.48-3.47,20.16-5.39,1.91-.44,3.13-2.11,4.19-3.61,6.14-8.9,12.11-17.93,17.25-27.45,2-3.96,4.1-8.13,3.77-12.7-1.64-.93-3.25-2.15-5.2-2.2-7.44-.34-14.5,2.39-21.3,5.04-6.97,2.87-13.8,6.11-20.26,10-.82,2.22-1.21,4.9-3.44,6.22-4.2,2.98-8.2,6.57-13.11,8.32-3,.05-7.15-4.92-3.89-7.37,5.62-5.23,12.38-9.02,18.89-13Z"/>
      <path class="cls-1" d="M503.47,547.94c4.21-2.55,9.59-4.39,14.36-2.19,3.06,1.03,3.92,4.84,2.87,7.62-1.9,5.77-6.31,10.23-10.26,14.66-12.38,11.96-25.26,23.39-38.5,34.38-2.9,2.77-6.86,4.75-8.36,8.7-2.83,6.28-5.87,12.63-6.93,19.51-.34,2,.56,4.41,2.48,5.33,2.95.97,5.84-.67,8.75-1.01-2.97,5.03-11.85,6.55-15.17,1.09-2.26-5.43.05-11.29,1.77-16.53-7.72,7.23-15.6,14.88-25.69,18.64-5.01,1.95-11.88,1.28-15.01-3.55-2.32-3.24-1.89-7.44-1.49-11.17,2.11-10.62,9.16-19.57,17.43-26.24,2.96-2.07,6.45-4.89,10.31-3.6,2.88,1.66,5.67,3.59,8.17,5.81,1.7,2.41-.26,5.35-2.04,7.11-4.68,4.35-10.56,7.18-16.42,9.6-2.54,1.12-5.56,1.58-7.49,3.72-2.63,4.13-3.99,9.56-1.75,14.17,2.34.96,4.96,1.44,7.39.39,8.83-3.44,16.04-9.85,22.89-16.21,2.42-2.53,5.11-4.85,7.12-7.72,7.57-15.54,15.61-31.04,26.66-44.43,5.55-6.73,11.42-13.44,18.91-18.08ZM499.63,561.1c-11.29,11.53-21.47,24.21-29.89,38,10.81-8.68,21.15-17.97,31.13-27.6,4.47-4.58,9.38-8.83,12.99-14.17,1.14-1.87,2.43-4.16,1.53-6.38-6.48.9-11.13,5.99-15.76,10.15ZM438.33,600.69c-4.84,2.62-8.58,6.96-11.57,11.51,6.36-1.93,12.32-5.3,17.17-9.85-1.31-1.68-3.57-2.95-5.6-1.66Z"/>
      <path class="cls-1" d="M434.32,553.73c2.43-2.03,5.44.18,7.61,1.53-.65,2.69-2.43,4.83-4.19,6.88-9.02,10.12-17.26,20.92-25.13,31.95,4.48.12,9.33-1.06,13.46,1.23-2.44,3.54-7.1,3.2-10.87,3.74-.78-.94-1.55-1.86-2.31-2.79-1.63.57-3.22,1.37-4.09,2.94-7.35,10.24-15.11,20.44-19.87,32.2-1.56,3.42-1.79,7.18-1.64,10.89.95,1.12,1.92,2.23,2.9,3.35,3.78.01,7.42-1.28,10.45-3.52,1.23-.62,2.54-2.32,4.03-1.27.16,1.43-1.13,2.26-2.1,3.06-3.55,2.66-7.92,4.62-12.43,4.28-3.48-.37-6.26-3.35-6.51-6.82-1.14-9.88,3.37-19.14,7.55-27.79,2.8-5.78,6.7-10.93,9.66-16.61-3.33-.51-6.79.15-10.04-.56-1.25-.61.97-1.36,1.36-1.43,3.2-.89,6.57-.19,9.83-.7,1.71-.78,2.76-2.44,3.85-3.89,6.16-8.84,12.74-17.37,19.27-25.93,2.95-3.67,5.78-7.5,9.21-10.74Z"/>
      <path class="cls-1" d="M482.63,610.64c.25-10.5,10.96-19.57,21.35-17.31,3.33,1.78,6.84,4.29,8.08,8.02-.4.47-1.19,1.41-1.59,1.89-1.86-1.77-3.51-4.61-6.45-4.41-6.87-.46-13.39,5.8-13.07,12.69.24,3.96,2.9,7.13,4.54,10.59,2.3,4.2,1.77,9.91-1.73,13.31-3.88,4.09-10.12,6.87-15.7,4.94-1.97-.59-2.78-2.64-3.69-4.24,3.27.19,6.67,2.48,9.87.83,4.18-1.69,7.37-7.15,4.71-11.33-2.69-4.67-7.07-9.15-6.32-14.98Z"/>
      <path class="cls-1" d="M357.45,602.85c3.31-2.85,6.74-7.1,11.62-6.36.87.73,1.7,1.52,2.49,2.37,4.14-.14,9.48-2.29,12.35,1.93,1.72,3.32,1.65,7.28,3.13,10.74-4.87.96-6.71,5.88-9.61,9.28-5.24,6.32-11.47,12.23-19.31,15.11-4.4,1.52-9.87,1.3-13.34-2.13-2.58-2.95-2.39-7.32-1.1-10.8,2.82-7.73,8.13-14.27,13.77-20.14ZM360.62,612.05c-4.7,4.64-9.41,9.83-11.25,16.33-.95,2.47,1.11,5.24,3.73,5.14,5.13-.97,9.18-4.56,13.12-7.74,4.65-4.17,9.42-8.47,12.51-13.98-1.42-3.43-.37-6.89,1.32-9.96-7.62.43-14.03,5.23-19.43,10.21Z"/>
    </g>
  </g>
</svg>