<?xml version="1.0" encoding="UTF-8"?>
<svg id="Capa_2" data-name="Capa 2" xmlns="http://www.w3.org/2000/svg" viewBox="0 0 639.1 321.03">
  <defs>
    <style>
      .cls-1 {
        fill: #ff6c0e;
      }

      .cls-2 {
        fill: #00b451;
      }

      .cls-3 {
        fill: #fff;
      }

      .cls-4 {
        fill: #70d44b;
      }

      .cls-5 {
        fill: #31893e;
      }

      .cls-6 {
        fill: #ff9e18;
      }

      .cls-7 {
        fill: #007853;
      }

      .cls-8 {
        fill: #ffd100;
      }
    </style>
  </defs>
  <g id="Layer_1" data-name="Layer 1">
    <rect class="cls-3" x="143.18" y=".38" width="357.65" height="147.23" rx="10.42" ry="10.42"/>
    <path class="cls-8" d="M151.33.07c14.23-.09,28.45-.02,42.68-.04-1.81,3.51-3.4,7.09-3.33,10.76-.21,7.35,4.91,14.27,9.26,21.09,5.42,8.63,7.07,18.22,1.87,27.01-4.24,6.98-7.39,14.28-7.08,21.68-.28,6.07,1.44,12.09,3.4,18.05,1.66,5.23,1.56,10.93-3.06,15.73-2.95,3.19-8.6,5.17-12.99,7.69-8.24,4.24-13.76,9.85-17.21,15.7-2.03,3.49-4.47,6.91-6.96,10.31-3.13-.14-6.94.46-9.4-.92-1.79-.93-3.03-2.06-3.88-3.29-1.68-2.43-1.82-5.03-1.87-6.1-.41-10.73-1.3-111.69-1.3-111.73h0s.11-5.28.45-9.87c.41-5.6.85-12.22,9.42-16.07Z"/>
    <path class="cls-1" d="M228.06.02c22.25.01,44.5-.01,66.75,0-.84,21.17-1.33,42.37.61,63.53.2,4.05,3.03,8.77-2.34,12.2-1.79.15-3.55.34-5.31.55-5.72.09-13.06.21-16.5-2.82-5.03-4.08-10.51-8-16.79-11.51-6.28-3.53-9.89-8.4-10.18-13.32-.45-9.82-4.28-19.92-14.51-28.15-2.85-2.25-5-4.81-5.55-7.56-1.01-4.43,2.29-8.66,3.82-12.94Z"/>
    <path class="cls-4" d="M304.97.02c18.81.01,37.62,0,56.43.01,8.96,7.56,16.23,15.96,18.04,25.02,1.05,4.57,1.75,9.35-.78,13.81-1.33,2.46-4.33,4.47-7.04,6.51-5.81,4.68-9.42,10.11-11.35,15.66-1.42,3.56-3.71,7.62-9.8,9.56-6.11,1.15-12.64,1.47-18.96,2.13-5.91.69-11.99.46-17.98.47-3.15.25-5.24-1.38-6.22-2.8-1.59-2.35-1.45-4.9-1.89-7.36-1.57-16.48-1.3-32.99-1.09-49.49.08-4.51.1-9.02.64-13.52Z"/>
    <path class="cls-5" d="M374.98.03c38.89-.02,77.79.01,116.69-.02,3.6-.18,6.1,1.63,7.3,3.28,2.8,3.94,2.13,8.26,2.21,12.4.07,12.65-.16,25.3.15,37.95.11,9.7.91,19.4.08,29.1-.3,4.76-.23,9.52-.22,14.28-.11,1.64-.03,3.57-2.45,4.76-5.5-.96-7.7-4.41-9-7.2-2.2-6.77.66-13.74-1.84-20.5-.66-1.63-2.05-3.33-4.8-4.18-2.72-.57-5.13.65-6.94,1.6-4.12,2.35-7.47,5.06-11.03,7.66-7.69,5.89-17,11.04-25.35,16.63-4.94.56-7.54-2.24-7.93-4.51-1.18-6.03-1.16-12.26-5.17-18.01-1.43-1.83-3.38-3.92-7.14-4.51-4-.55-7.43,1.04-11.13,1.56-2.26.27-4.07-.7-5.82-1.3-5.47-2.21-12-3.99-18.97-3.7-5.83-.11-10.83,2.1-16.7,1.84-.15-1.57-.14-3.18,1.01-4.65,3.85-5.51,12.31-9.51,16.91-14.79,6.69-7.67,6.99-16.51,4.67-24.77-2-8.09-7.17-15.87-14.53-22.94Z"/>
    <path class="cls-6" d="M200.42,10.75c.6-3.74,3.27-7.25,5.66-10.73,3.7.01,7.4,0,11.11.02-5.18,9.37-3.98,20.14,6.06,28.43,4.98,3.92,8.36,8.42,9.84,13.13,1.67,4.5.92,9.15,2.51,13.66,1.88,5.89,6.57,11.56,14.01,15.96,6.53,3.6,12.12,7.69,17.12,11.96,2.42,2,6.71,2.99,10.85,3.45,8.43.83,17-.14,25.09-1.46,2.5-.46,5.14-.47,7.74-.36,3.36.88,6.87,1.81,9.25,3.45,3.74,2.47,4.28,5.84,4.53,8.93.17,9.65-.22,19.3-.31,28.95-.34,7.3.18,14.61-.52,21.9-51.01-.04-102.02.02-153.03-.03,2.64-4.2,4.82-8.58,9.58-12.25,5.14-4.31,13.44-7.03,19.02-11.12,7.6-6.1,10.24-13.69,10.06-20.97.02-6.58-3.71-12.94-4.3-19.49-.97-6.45,1.27-12.9,5.07-18.98,6.94-11.52,6.46-24.13.34-35.73-2.97-6.28-9.01-12.15-9.68-18.72Z"/>
    <path class="cls-2" d="M376.98,76.97c4.52-1.28,10.16-1.66,14.8-.35,5.09,1.22,8.36,3.88,13.22,5.28,5.05.71,8.53-2.15,12.96-2.97,3.32,3.73,2.87,8.01,3.68,12.04.93,8.65,1.43,17.48-2.51,25.96-2.44,4.93-3.39,10.03-5.21,15.03-1.85,5.38-4,10.73-6.17,16.07-24.67.01-49.34-.01-74.01.01-.03-14.08.29-28.15.52-42.22-.14-5.48.58-11.04-1.52-16.45-.62-1.81-1.77-3.78-.19-5.53,15.03-1.75,30.46-3.16,44.43-6.86Z"/>
    <path class="cls-7" d="M476.76,82.11c.59-.07,1.77-.19,2.36-.25-.06,6.15-.76,12.38,1.55,18.46,1.6,4.34,5.09,8.5,10.47,11.81,6.84,4.52,8.33,10.54,9.71,16.17.88,5.09,1.19,10.34-1.37,15.3-1.01,2.07-3.62,4.22-7.75,4.58-24.34-.35-48.72-.07-73.08-.16,2.57-6.82,5.21-13.63,7.13-20.52,1.46-5.46,4.67-10.8,9.92-15.53,9.55-8.63,23.76-15.28,34.32-23.5,2.54-2.03,3.75-4.51,6.74-6.37Z"/>
    <path class="cls-2" d="M477.3,181.65c.25-.88-.2-2.75,2.23-2.6,18.02-.12,36.05-.01,54.08-.04,11.58.1,23.2-.21,34.76.15,1.05,1.3.78,2.77.85,4.16-.15,3.39.3,6.8-.48,10.18-30.26.12-60.52.05-90.78.03-1.23-3.92-.47-7.92-.66-11.87Z"/>
    <g>
      <path class="cls-5" d="M11.45,190.94c4.33-3.46,11.15-6.53,19.18-6.39,6.27-.19,12.25,1.47,16.54,3.9,6.6,3.66,10.76,8.42,13.91,13.21,1,.96-.43,1.83-1.31,2.62-4.08,3.18-8.06,6.4-12.15,9.58-2.76-3.63-5.45-7.59-11.25-10.09-3.54-1.62-9.5-1.42-12.21.73-4.3,3.43-3.65,8.95,2.97,11.4,10.39,3.9,22.21,7.19,29.54,13.03,7.75,6.23,8.33,14.16,7.41,21.44-1.09,7-5.5,14.5-16.18,18.83-7.5,3.14-18.24,3.58-26.42.98-11.93-3.6-18-10.85-21.48-17.76,4.64-3.85,9.59-7.58,14.36-11.38,3.12,4.4,6.8,9.35,14.94,11.59,5.58,1.7,13.12-.27,15-3.51,2.19-3.2-.13-7-5.17-8.95-8.26-3.37-18.32-5.43-25.31-9.72-7.89-4.52-10.77-10.89-11.47-16.96-.9-7.75.99-16,9.1-22.55Z"/>
      <path class="cls-5" d="M161.07,192.94c5.63-4.41,14.2-8.48,24.56-8.37,10.44-.25,18.88,3.99,24.6,8.35,4.84,3.91,9,8.25,10.81,12.89-4.49,3.99-9.65,7.75-14.45,11.63-3.13-4.48-6.06-9.5-13.47-12.42-5.86-2.29-14.21-.98-18.46,1.97-7.47,5.03-9.4,11.76-10.22,18.05-.52,7.2.56,14.72,6.5,21.25,3.05,3.2,8.52,6.48,15.7,6.15,4.38.08,8.19-1.46,10.9-3.22,4.54-2.96,6.92-6.65,9.52-10.19,4.74,3.86,9.66,7.65,14.5,11.47-3.6,6.65-9.19,13.34-19,17.91-6.71,3.18-16.52,4.53-24.88,2.62-11.13-2.42-18.36-8.21-23.11-14.01-9.17-11.55-11.01-24.47-9.25-36.92,1.69-9.49,5.75-19.2,15.75-27.16Z"/>
      <path class="cls-5" d="M586.71,190.51c4.39-3.26,11.07-6.15,18.83-5.94,8.86-.24,16.33,3.19,21.06,7,4.12,3.38,7.57,7.09,9.58,11.02-4.07,3.96-9.43,7.5-13.86,11.35-2.72-3.63-5.43-7.56-11.19-10.08-3.04-1.44-8.24-1.65-11.13,0-4.24,2.25-4.63,6-2.78,8.92,2.21,2.87,7.73,4.21,12.2,5.82,8.46,3.06,17.39,6.21,22.79,11.06,6.06,5.3,7.12,11.78,6.85,17.9-.35,6.56-3.04,13.41-10.67,18.62-5.77,3.98-15.44,6.55-24.75,5.47-8.99-.93-16.2-4.58-20.94-8.72-3.53-3.24-6.4-6.76-7.79-10.47,4.08-4.02,9.52-7.59,14.14-11.42,3.06,4.34,6.71,9.15,14.55,11.48,5.23,1.7,12.44.19,14.89-2.77,2.97-3.37.63-7.71-5.03-9.76-9.33-3.62-20.71-5.98-27.58-11.25-6.96-5.12-8.88-11.7-9.01-17.94-.25-7.06,2.15-14.49,9.84-20.31Z"/>
      <path class="cls-5" d="M71.28,185.75c6.36-.02,12.73-.01,19.1-.01,0,16.05,0,32.08,0,48.12.02,4.74-.4,9.64,2.49,14.19,1.5,2.36,4.21,4.78,8.72,5.65,4.6.93,9.71-.53,12.18-2.7,4.04-3.43,4.88-7.66,5.05-11.65-.02-17.87,0-35.73-.01-53.6,6.38,0,12.77,0,19.15,0v50.33c.24,8.17-.38,16.59-6.15,24.24-3.1,4.13-8.18,8.06-15.62,10.1-9.54,2.65-22.03,1.7-29.71-2.42-8.39-4.3-11.82-10.64-13.71-16.67-2.03-6.5-1.38-13.11-1.48-19.66,0-15.31,0-30.62,0-45.92Z"/>
      <path class="cls-5" d="M226.26,185.75c6.4-.02,12.8-.01,19.2-.01.01,16.04,0,32.08.01,48.12.03,4.99-.6,10.2,2.92,14.93,1.73,2.42,5.18,4.84,10.18,5.16,4.9.32,9.22-1.65,11.29-3.95,3.51-3.78,4-8.13,4.03-12.3-.03-17.32-.01-34.65-.01-51.97,6.35,0,12.7,0,19.05,0-.01,16.78,0,33.57,0,50.35.27,8.03-.34,16.3-5.83,23.85-3.02,4.15-7.94,8.13-15.27,10.29-9.6,2.87-22.47,1.98-30.34-2.21-7.53-3.84-11.05-9.4-13.08-14.79-2.84-7.46-2.05-15.12-2.15-22.69v-44.79Z"/>
      <path class="cls-5" d="M304.87,185.74h19.61c7.98,18.34,15.46,36.76,23.81,55.04,7.56-18.38,15.68-36.68,23.46-55.04,6.53-.01,13.07,0,19.6,0,0,28.29,0,56.58.01,84.86-6.39,0-12.78,0-19.16,0-.09-15.03.18-30.06-.14-45.08-5.89,13.33-11.65,26.67-17.46,40-4.33,0-8.66,0-12.99,0-5.79-13.3-11.5-26.62-17.44-39.9-.25,15-.03,29.99-.11,44.99-6.4,0-12.8,0-19.19,0v-84.86Z"/>
      <path class="cls-5" d="M404.07,185.74c12.53.01,25.07-.02,37.6,0,8.16,0,14.95,3.33,18.45,7.16,5.64,6.18,6.47,13.35,5.35,20.13-.82,5.28-4.18,10.43-10.08,14.65,8.38,3.77,11.64,9.81,12.42,15.55.87,6.91-.11,14.18-6,20.43-3.42,3.52-9.51,6.84-17.21,6.9-13.51.11-27.02.01-40.53.04.01-28.29,0-56.58,0-84.86ZM423.25,203.2c0,5.62.01,11.24,0,16.86,5.43-.05,10.88.15,16.3-.08,2.04-.09,3.16-1.25,4.11-2.12,2.72-3.14,2.92-6.84,1.4-10.18-.91-1.69-2.4-3.56-5.46-4.35-5.42-.36-10.91-.07-16.35-.14ZM423.26,236.24c0,5.7-.01,11.41,0,17.12,5.82-.1,11.71.27,17.5-.17,4.62-1.36,5.98-4.53,6.46-7.17.29-3.36-.4-7.46-5.84-9.57-5.98-.48-12.09-.09-18.12-.2Z"/>
      <path class="cls-5" d="M477.31,202.92c6.53-.01,13.07,0,19.61,0,.01,21.96.01,43.92,0,65.87-6.54,0-13.08.01-19.61,0-.02-21.96-.01-43.92,0-65.87Z"/>
      <path class="cls-5" d="M534.56,203c8.32-.72,16.09,2.16,20.78,5.73,8.61,6.46,12.09,14.53,13.43,22.39,1.33,10.08-.66,20.59-8.98,29.72-3.82,4.04-9.48,8.05-17.7,9.43-7.11,1.11-14.67-.55-19.57-3.42-8.92-5.04-12.99-12.02-15.33-18.78-3.38-11.2-2.26-23.1,5.98-33.62,4.12-5.05,10.84-10.34,21.39-11.46ZM528.18,227.72c-3.71,4.99-3.8,10.68-1.44,15.87,1.37,2.61,3.76,5.69,8.97,6.5,4.47.59,8.17-1.47,10.06-3.45,3.93-4.35,4.19-9.42,3.12-14.15-1.01-3.82-3.92-8.17-11.3-9.41-4.29.65-7.87,2.32-9.41,4.64Z"/>
      <path class="cls-5" d="M103.19,292.97c4.6.05,9.24-.19,13.82.13,4.53.91,6.12,3.76,6.95,6.13.87,3.88.89,8.24-3.38,11.57-2.81,2.26-8.29,1.32-12.45,1.51-.02,2.7-.01,5.41-.04,8.11-1.63,0-3.27-.01-4.9,0-.01-9.14,0-18.29,0-27.44ZM108.14,297.94c-.04,3.25-.06,6.51.02,9.76,3.2-.02,6.41-.16,9.55-.5,1.92-2.46,3.04-5.36.69-7.86-1.73-2.24-6.84-1.16-10.26-1.41Z"/>
      <path class="cls-5" d="M149.28,292.97c4.58.05,9.19-.19,13.74.14,4.69.79,6.42,3.71,7.11,6.11.8,4.03.82,8.96-5.64,11.68,2.39,3.19,5.25,6.27,7.49,9.5-1.95,0-3.89.02-5.83.04-2.57-3.04-4.99-6.12-7.48-9.18-1.49,0-2.97-.01-4.45,0-.02,3.06,0,6.12-.03,9.18-1.64-.01-3.27-.02-4.9-.02-.01-9.14,0-18.29-.01-27.43ZM154.21,297.85c0,2.9-.02,5.8.02,8.71,2.77,0,5.54.01,8.32.05,4.04-2.23,4.61-6.43.17-8.59-2.8-.3-5.68-.14-8.51-.16Z"/>
      <path class="cls-5" d="M195.27,292.97c6.34-.01,12.69,0,19.03-.01.01,1.69.01,3.38.01,5.08-4.74-.02-9.48-.07-14.21.12-.03,2.07-.03,4.14.03,6.22,4.55-.01,9.09-.01,13.63,0-.01,1.51.14,3.02-.14,4.53-4.27.75-9.07.17-13.54.33-.01,2.01-.01,4.02.04,6.03,4.73.08,9.46.08,14.2.06,0,1.69-.02,3.38-.04,5.08-6.34-.02-12.67,0-19-.01-.02-9.14,0-18.29,0-27.44Z"/>
      <path class="cls-5" d="M282.65,292.96c6.35,0,12.7-.01,19.05.02,0,1.68,0,3.35.01,5.03-4.65.03-9.3.03-13.95,0-.4,2.12-.41,4.26-.04,6.39,4.46-.03,8.93-.03,13.39-.02-.01,1.62-.01,3.25-.03,4.87-4.55,0-9.11,0-13.66.02.01,2.02.01,4.04.03,6.07,4.68,0,9.36,0,14.04,0-.02,1.69-.03,3.38-.05,5.07-6.32-.02-12.65,0-18.97-.02.11-9.15-.22-18.3.18-27.44Z"/>
      <path class="cls-5" d="M330.43,295.87c1.97-1.99,5.78-3.78,10.16-3.42,4.02.37,6.32,2.38,8.52,4.05-1.04,1.11-2.08,2.22-3.13,3.34-2.19-1.05-4.34-2.95-7.71-2.35-4.92,1.01-6.34,4.18-7.02,6.74-.79,4.14-.33,9.1,6.08,11.92,3.73.16,6.64-1.06,8.75-2.62,1.12,1.14,2.23,2.28,3.35,3.42-2.11,1.75-4.64,3.82-8.82,4.03-4.13.33-7.9-1.16-9.95-3.02-3.28-2.97-4.14-6.52-4.47-9.92-.2-4.14.61-8.47,4.24-12.17Z"/>
      <path class="cls-5" d="M371.74,292.96c6.91,0,13.82,0,20.73,0-.03,1.61-.04,3.22-.06,4.84-2.65-.02-5.3-.02-7.94-.02-.01,7.54.03,15.09-.02,22.64-1.57-.01-3.13-.01-4.69,0-.04-7.54,0-15.09-.02-22.63-2.67,0-5.33,0-7.99,0-.02-1.61-.02-3.22-.01-4.82Z"/>
      <path class="cls-5" d="M466.34,292.98c4.63.04,9.32-.23,13.92.16,4.51.87,6.27,3.69,6.9,6.08.75,4.04.86,8.97-5.67,11.69,2.47,3.17,5.31,6.24,7.47,9.48-1.95,0-3.88.02-5.81.04-2.51-3.06-4.99-6.12-7.44-9.18-1.52,0-3.03-.01-4.53,0-.03,3.06,0,6.12-.03,9.19-1.61-.02-3.21-.03-4.8-.04,0-9.14.01-18.27-.01-27.41ZM471.18,297.85c-.02,2.9-.03,5.81.02,8.71,2.78,0,5.56.01,8.35.05,4.08-2.21,4.64-6.54.09-8.63-2.81-.23-5.65-.13-8.46-.14Z"/>
      <path class="cls-5" d="M521.14,292.95c1.75,0,3.51,0,5.28.01,3.7,9.15,7.7,18.28,11.29,27.44-1.76,0-3.51,0-5.25,0-.73-1.8-1.5-3.59-2.38-5.36-4.25.02-8.5.02-12.74.01-.8,1.79-1.59,3.57-2.36,5.37-1.75-.02-3.48-.02-5.21-.02,3.72-9.16,7.55-18.3,11.37-27.45ZM519.3,310.25c3,.13,6.01.08,9.02.1-1.44-3.79-2.93-7.56-4.59-11.31-1.43,3.74-3.23,7.45-4.43,11.22Z"/>
      <path class="cls-5" d="M239.7,293.05c6.03,0,12.07,0,18.11,0,0,1.65,0,3.31,0,4.97-4.54.02-9.08-.03-13.61.02,4.54.19,9.09.16,13.63.37-4.5,0-8.99-.15-13.48-.17-.01,2.42-.01,4.84,0,7.26h12.7c-.01,1.55-.01,3.1,0,4.65h-12.7c-.02,3.41,0,6.82-.03,10.24-1.53,0-3.07,0-4.59.01-.55-3.57.08-7.14-.02-10.7-.03-5.56.01-11.11-.02-16.67Z"/>
      <path class="cls-5" d="M417.88,293.05c1.59,0,3.19,0,4.8,0,.07,5.74-.13,11.47.09,17.21-.01,2.18,1.58,4.24,4.12,5.9,1.53-.14,3.22-.02,4.65-.4,2.98-1.52,3.44-3.92,3.65-6.03.1-5.56,0-11.12.04-16.68,1.59,0,3.19-.01,4.8,0,.02,5.19-.01,10.37.03,15.56,0,3.1-.46,6.31-2.93,9.15-1.44,1.59-4.06,3.09-7.46,3.21-3.58.23-6.63-1.22-8.3-2.82-2.82-2.72-3.49-5.92-3.5-9,0-5.37.01-10.74.01-16.11Z"/>
    </g>
  </g>
</svg>