<?xml version="1.0" encoding="UTF-8"?>
<svg id="Capa_2" data-name="Capa 2" xmlns="http://www.w3.org/2000/svg" viewBox="0 0 396.36 81.62">
  <defs>
    <style>
      .cls-1 {
        fill: #fff;
      }

      .cls-2 {
        fill: #c1ce00;
      }
    </style>
  </defs>
  <g id="Layer_1" data-name="Layer 1">
    <g>
      <g>
        <path class="cls-1" d="M354.33,1.99c.17-.25.52-.74.69-.98.28,5.59,1.2,11.12,1.99,16.65,3.28-2.07,6.4-4.39,9.45-6.79.73,1.13,2.41,1.67,2.5,3.17-.17,2.3-.56,4.6-.36,6.9,3.1,1.69,6.64,2.27,10.1,2.77.11.01.32.05.43.06.65.7,1.3,1.4,1.95,2.11-3.75-1.34-7.64-2.26-11.5-3.25,3.56,4.48,7.36,8.76,10.99,13.19,1.07.15,2.14.29,3.22.44,1.11-1.48,2.23-2.96,3.35-4.43.18.17.52.51.7.68-1.09,1.38-2.16,2.77-3.24,4.15.27,1.41.55,2.82.82,4.24,2.24,1.36,4.47,2.74,6.79,3.98l.53-.42c-.78.88-1.54,1.77-2.31,2.66-2.31-.3-4.62-.58-6.92-.83-.16,2.61-.33,5.23-.65,7.84-.06.24-.16.73-.21.97-.48-3.01-.73-6.04-1.22-9.04-3.61-.36-7.23-.72-10.84-1.04,3.03,4.15,6.26,8.14,9.51,12.11-.18.18-.54.55-.72.73-3.2-4.03-6.39-8.09-9.71-12.03-1.31,3.99-2.65,8.03-3.06,12.23,3,2.39,7.29,1.3,10.86,2.16-.27.11-.8.34-1.06.45-2.82,0-5.63-.25-8.44-.49-.55.41-1.66,1.24-2.22,1.66-.24,3.45-.38,6.92-.83,10.36-.18.3-.54.91-.72,1.21.2-4.05.41-8.1.65-12.15-2.58,3.22-5.13,6.47-7.68,9.73,1.75,1.36,3.55,2.7,5.71,3.35-.41.5-.83.98-1.26,1.46-1.23-1.06-2.46-2.13-3.69-3.19h-1.99c-3.17-1.03-6.51-.68-9.77-.81-.25-.08-.74-.23-.99-.3,3.12-.46,6.28-.64,9.43-.83-2.39-2.21-3.93-6.25-7.4-6.68-1.66,1.29-3.06,2.88-4.64,4.28l-.76.68.61-.73c1.39-2.09,2.59-4.31,3.8-6.51-1.73-1.17-3.52-2.27-5.14-3.59-.02-.27-.05-.8-.07-1.06,1.76,1.09,3.48,2.26,5.21,3.41.6-.19,1.81-.58,2.42-.78,1.85-3.59,3.8-7.13,5.74-10.67-3.38,1.1-6.79,2.14-10.13,3.36.62-.57,1.2-1.22,1.92-1.68,2.89-.95,5.81-1.83,8.72-2.74-.71-1.39-1.41-2.78-2.11-4.17.2-.17.61-.5.82-.67.67,1.53,1.43,3.02,2.18,4.52,3.77-1.07,7.56-2.1,11.35-3.12-4.17-1.01-8.36-1.95-12.56-2.84l1.36-.55c3.93.79,7.84,1.65,11.79,2.35-2.85-3.76-5.92-7.35-8.76-11.11-3.35-.42-6.23,1.4-9,2.99-.15-.17-.45-.49-.61-.65,2.44-1.37,4.87-2.75,7.27-4.2-3.61-3.11-7.5-5.87-11.41-8.6.36,3.31.78,6.62,1.03,9.94-.2-.32-.62-.96-.83-1.28-.48-2.88-.7-5.81-1.42-8.65-2.27.05-4.52.43-6.75.72-.12-.23-.35-.69-.47-.92,2.23-.11,4.43-.54,6.63-.9.6-3.36,1.18-6.74,2.12-10.02.07-.31.22-.92.3-1.22l.4.29c3.18,2.34,6.39,4.63,9.65,6.87-.53-4.92-1.43-9.8-1.54-14.75ZM346.15,11.17c-.34,2.91-1.77,5.95-1.05,8.84,3.62,1.24,7.6-.97,11.3-1.41-3.23-2.73-6.74-5.09-10.25-7.43ZM365.83,12.57c-2.39,1.57-4.61,3.37-6.77,5.23,2.6,1.47,5.52,2.2,8.35,3.1-.05-2.54.5-5.21-.39-7.65-.3-.17-.89-.51-1.19-.68ZM346.57,21.64c3.49,2.61,6.99,5.25,10.71,7.54-.05-3.2-.19-6.4-.4-9.6-3.45.64-6.88,1.34-10.31,2.06ZM357.87,19.03c.03,3.34.21,6.67.34,10,3.05-2.07,6.02-4.32,8.4-7.15-2.78-1.33-5.75-2.18-8.74-2.85ZM360.04,29.19c-.07.7-.22,2.08-.29,2.78,2.93,3.62,5.81,7.3,8.94,10.76-.32-6.66-.59-13.33-1.18-19.97-2.5,2.13-4.96,4.31-7.47,6.43ZM368.57,23.08c.65,6.56.04,13.38,1.56,19.77,2.94.19,5.53-1.66,8.23-2.58.46-1.35.93-2.69,1.43-4.02-3.8-4.34-7.45-8.8-11.22-13.17ZM372.02,44.08c5.59,1.14,11.41.22,16.84,2.25.69-.4,1.38-.81,2.06-1.22-1.99-1.05-3.94-2.18-5.89-3.31-2.23,1.15-4.52,1.02-6.46-.62-2.21.9-4.41,1.83-6.55,2.9ZM357.01,48.96c2.31,3.41,5.26,6.34,8.24,9.18,1.18-4.18,2.27-8.38,3.16-12.63-3.83.83-8.21.98-11.4,3.45ZM348.95,61.31c2.36-.18,4.7-.57,7.01-1.11-.23-3.54-.25-7.08-.48-10.62-2.54,3.7-4.63,7.68-6.53,11.73ZM356.39,50.21c.15,3.38.32,6.77.39,10.16,2.44-.34,4.87-.71,7.29-1.17-2.24-3.25-4.96-6.14-7.68-8.99ZM357.09,61.27c-.13,2.69-.14,5.39-.05,8.09,2.55-2.87,4.9-5.91,7.1-9.07-2.36.28-4.71.62-7.05.98ZM349.02,62.71c2.28,2.78,4.63,5.48,7.19,8-.08-2.46-.19-4.92-.26-7.39-.38-.46-1.14-1.38-1.52-1.85-1.81.4-3.62.8-5.41,1.24Z"/>
        <path class="cls-1" d="M70.38,22.49c.45-2.25.91-4.5,1.37-6.74,10.35.01,20.7-.01,31.05.01-.47,2.24-.92,4.49-1.37,6.74-3.88,0-7.76.01-11.64,0-2.26,11.32-4.56,22.63-6.78,33.97-2.61.04-5.21.03-7.82.05,2.24-11.35,4.54-22.69,6.79-34.03-3.86.02-7.73.02-11.6,0Z"/>
        <path class="cls-1" d="M161.75,26.8c4.56-.87,9.8-.93,13.74,1.88,3.13,2.36,3.53,6.65,3.16,10.27-.61,5.62-2.71,11.57-7.46,15-4.43,3.11-10.26,3.31-15.41,2.38-4.31-.82-7.46-4.99-7.11-9.36-.41-8.43,3.97-18.5,13.08-20.17ZM162.43,33.15c-3.84,1.57-5.2,6-5.79,9.75-.52,2.69-.11,6.54,3,7.44,4.05,1.44,8.38-1.4,9.77-5.23,1.19-3.39,2.41-7.43.47-10.8-1.78-2.11-5.07-2.25-7.45-1.16Z"/>
        <path class="cls-1" d="M96.49,31.32c3.41-3.78,8.78-4.87,13.66-4.72,3.23.18,6.94.57,9.18,3.2,2.43,3.97.57,9.58-2.96,12.28-5.25,3.45-11.84,2.46-17.79,2.72.26,1.93.61,4.28,2.78,4.95,5.29,1.78,10.88-.25,15.42-3.02-.41,2.07-.82,4.13-1.19,6.21-4.93,3.77-11.62,4.33-17.5,2.97-3.28-.86-5.98-3.63-6.48-7.03-.72-6.13.66-12.87,4.88-17.56ZM99.9,38.94c3.43.01,6.94.38,10.3-.46,1.73-.38,2.13-2.34,2.94-3.63-4.08-4.55-11.82-1.42-13.24,4.09Z"/>
        <path class="cls-1" d="M128.72,29.43c5.64-3.61,12.74-3.15,19.07-2.06-.4,2.08-.82,4.16-1.2,6.25-4.08-.61-8.52-1.69-12.4.31-4.27,2.26-5.52,7.7-5.18,12.15.16,2.18,2,4.05,4.19,4.2,3.98.65,7.65-1.42,10.78-3.63-.53,2.15-.65,4.45-1.56,6.48-4.46,3.81-11.11,4.39-16.44,2.22-4.29-1.82-5.53-7.04-4.92-11.27.64-5.53,2.65-11.6,7.66-14.65Z"/>
        <path class="cls-1" d="M185.41,26.53c2.29-.03,4.59-.04,6.88-.04-.14,2.16-.31,4.32-.47,6.48,2.22-2.61,4.83-5.23,8.32-5.96,3.27-.81,7.59-.7,9.7,2.36,2.19,3.66,1.35,8.12.57,12.07-1.08,5.47-4.1,10.94-9.27,13.47-4.33,2.11-9.24,1.58-13.9,1.54-.71,3.61-1.44,7.21-2.15,10.81-2.6-.01-5.19-.01-7.79.01,2.66-13.59,5.45-27.15,8.11-40.74ZM192.52,37.38c-3.16,3.23-2.76,8.12-3.86,12.21,3.13.55,6.75,1.45,9.6-.51,3.24-2.21,4.27-6.38,4.88-10.03.48-2.34-.07-5.65-2.96-5.99-3.16-.18-5.75,2.06-7.66,4.32Z"/>
        <path class="cls-1" d="M219.77,30.56c4.37-4.05,10.85-4.49,16.47-3.59,2.48.4,5.31,1.56,6.23,4.11,1.44,4.8-1.23,10.65-6.07,12.29-4.92,1.91-10.32,1.2-15.47,1.44.45,1.74.62,4.07,2.62,4.77,5.3,2.07,11.13-.04,15.71-2.91-.43,2.13-.87,4.27-1.29,6.41-5.28,3.67-12.33,4.43-18.39,2.48-4.33-1.4-6.17-6.24-5.8-10.46.44-5.27,1.9-10.91,5.99-14.54ZM222.41,38.91c3.24.07,6.52.34,9.73-.27,1.66-.35,2.98-1.88,3.11-3.57-.95-2.78-4.65-2.52-6.98-2.08-3.03.48-4.69,3.39-5.86,5.92Z"/>
        <path class="cls-1" d="M253.56,27.5c6-1.98,12.53-1.37,18.48.48-.45,2.15-.86,4.32-1.27,6.49-4.81-1.61-10.18-2.87-15.15-1.2-2.08.56-3.13,4.47-.37,4.83,4.57.69,10.67-1.33,13.77,3.22,2.4,5.6-.86,13.04-6.93,14.58-5.92,1.6-12.31,1.04-18.16-.63.43-2.19.88-4.37,1.31-6.55,4.51,1.47,9.47,2.71,14.18,1.51,2.18-.53,3.6-4.43.86-5.14-3.9-.48-8.23.75-11.8-1.32-2.93-1.81-2.52-5.77-1.95-8.67.73-3.61,3.6-6.45,7.03-7.6Z"/>
        <path class="cls-1" d="M281.9,29.69c5.7-3.84,13.01-3.44,19.48-2.32-.4,2.09-.81,4.18-1.2,6.28-4.19-.71-8.88-1.79-12.78.52-3.66,2.25-4.81,6.78-4.93,10.8.05,2.27,1.36,4.77,3.78,5.18,4.1,1.04,7.96-1.27,11.28-3.4-.42,2.1-.84,4.19-1.23,6.29-4.44,3.63-10.7,4.45-16.05,2.59-3.17-1.18-5.49-4.28-5.54-7.7-.41-6.66,1.51-14.17,7.19-18.24Z"/>
        <path class="cls-1" d="M312.34,29.06c6.98-3.96,15.36-2.25,22.89-1.25-1.92,9.56-3.83,19.12-5.74,28.68-2.3.01-4.6.01-6.89.02.17-2.29.36-4.57.56-6.86-2.75,3.85-6.91,7.47-11.98,6.88-4.23.37-7.67-3.48-7.6-7.57-.24-7.34,1.94-15.99,8.76-19.9ZM314.26,36.13c-2.52,4-4.21,9.83-1.29,14.04,5.25.39,9.54-3.62,11.54-8.12.76-2.85,1.19-5.78,1.77-8.67-4.11-.56-9.36-1.24-12.02,2.75Z"/>
      </g>
      <g>
        <path class="cls-2" d="M355.02,1.01l.24-1.01c3.99,3.36,7.45,7.26,11.2,10.87-3.05,2.4-6.17,4.72-9.45,6.79-.79-5.53-1.71-11.06-1.99-16.65Z"/>
        <path class="cls-2" d="M346.22,9.87c2.69-2.64,5.23-5.44,8.11-7.88.11,4.95,1.01,9.83,1.54,14.75-3.26-2.24-6.47-4.53-9.65-6.87Z"/>
        <path class="cls-2" d="M19.85,21.21c4.35-4.31,8.66-8.64,12.99-12.97,4.32,4.34,8.66,8.67,12.99,13-4.34,4.34-8.66,8.7-13.03,13-4.28-4.37-8.68-8.64-12.95-13.03Z"/>
        <path class="cls-2" d="M335.07,21.11c3.41-3.51,6.77-7.07,10.45-10.31-.94,3.28-1.52,6.66-2.12,10.02-2.2.36-4.4.79-6.63.9-.42-.15-1.28-.45-1.7-.61Z"/>
        <path class="cls-2" d="M346.15,11.17c3.51,2.34,7.02,4.7,10.25,7.43-3.7.44-7.68,2.65-11.3,1.41-.72-2.89.71-5.93,1.05-8.84Z"/>
        <path class="cls-2" d="M365.83,12.57c.3.17.89.51,1.19.68.89,2.44.34,5.11.39,7.65-2.83-.9-5.75-1.63-8.35-3.1,2.16-1.86,4.38-3.66,6.77-5.23Z"/>
        <path class="cls-2" d="M368.96,14.04l.06-.75c3.06,3.63,6.66,6.76,9.68,10.42-3.46-.5-7-1.08-10.1-2.77-.2-2.3.19-4.6.36-6.9Z"/>
        <path class="cls-2" d="M346.57,21.64c3.43-.72,6.86-1.42,10.31-2.06.21,3.2.35,6.4.4,9.6-3.72-2.29-7.22-4.93-10.71-7.54Z"/>
        <path class="cls-2" d="M357.87,19.03c2.99.67,5.96,1.52,8.74,2.85-2.38,2.83-5.35,5.08-8.4,7.15-.13-3.33-.31-6.66-.34-10Z"/>
        <path class="cls-2" d="M55.44,22.03c5.84,4.81,10.85,10.74,16.38,15.97-5.38,5.41-10.81,10.78-16.17,16.21-5.52-5.32-10.87-10.81-16.31-16.21,5.4-5.29,10.59-10.8,16.1-15.97Z"/>
        <path class="cls-2" d="M337.24,22.64c2.23-.29,4.48-.67,6.75-.72.72,2.84.94,5.77,1.42,8.65-2.88-2.47-5.48-5.25-8.17-7.93Z"/>
        <path class="cls-2" d="M0,30.44c2.68-2.83,5.45-5.56,8.21-8.3,2.76,2.75,5.52,5.49,8.24,8.28-2.77,2.71-5.5,5.46-8.24,8.19-2.73-2.73-5.46-5.46-8.21-8.17Z"/>
        <path class="cls-2" d="M345.21,21.91c3.91,2.73,7.8,5.49,11.41,8.6-2.4,1.45-4.83,2.83-7.27,4.2-1.03-.97-2.06-1.93-3.11-2.86-.25-3.32-.67-6.63-1.03-9.94Z"/>
        <path class="cls-2" d="M369.58,22.63c3.86.99,7.75,1.91,11.5,3.25,2.18,1.82,4.05,3.96,6.06,5.95-1.12,1.47-2.24,2.95-3.35,4.43-1.08-.15-2.15-.29-3.22-.44-3.63-4.43-7.43-8.71-10.99-13.19Z"/>
        <path class="cls-2" d="M360.04,29.19c2.51-2.12,4.97-4.3,7.47-6.43.59,6.64.86,13.31,1.18,19.97-3.13-3.46-6.01-7.14-8.94-10.76.07-.7.22-2.08.29-2.78Z"/>
        <path class="cls-2" d="M368.57,23.08c3.77,4.37,7.42,8.83,11.22,13.17-.5,1.33-.97,2.67-1.43,4.02-2.7.92-5.29,2.77-8.23,2.58-1.52-6.39-.91-13.21-1.56-19.77Z"/>
        <path class="cls-2" d="M349.96,35.36c2.77-1.59,5.65-3.41,9-2.99,2.84,3.76,5.91,7.35,8.76,11.11-3.95-.7-7.86-1.56-11.79-2.35-2.17-1.73-4.01-3.82-5.97-5.77Z"/>
        <path class="cls-2" d="M384.6,36.66c1.08-1.38,2.15-2.77,3.24-4.15,2.84,2.83,5.68,5.68,8.52,8.52-1.19,1.16-2.36,2.35-3.62,3.43l-.53.42c-2.32-1.24-4.55-2.62-6.79-3.98-.27-1.42-.55-2.83-.82-4.24Z"/>
        <path class="cls-2" d="M13.49,48.64c3.34-3.41,6.69-6.8,10.13-10.1,3.35,3.35,6.7,6.7,10.05,10.04-3.3,3.45-6.7,6.8-10.1,10.14-3.37-3.35-6.73-6.71-10.08-10.08Z"/>
        <path class="cls-2" d="M372.02,44.08c2.14-1.07,4.34-2,6.55-2.9,1.94,1.64,4.23,1.77,6.46.62,1.95,1.13,3.9,2.26,5.89,3.31-.68.41-1.37.82-2.06,1.22-5.43-2.03-11.25-1.11-16.84-2.25Z"/>
        <path class="cls-2" d="M353.6,43.12c.24-.36.73-1.08.97-1.44,4.2.89,8.39,1.83,12.56,2.84-3.79,1.02-7.58,2.05-11.35,3.12-.75-1.5-1.51-2.99-2.18-4.52Z"/>
        <path class="cls-2" d="M352.78,43.79c.7,1.39,1.4,2.78,2.11,4.17-2.91.91-5.83,1.79-8.72,2.74,2.06-2.43,4.36-4.65,6.61-6.91Z"/>
        <path class="cls-2" d="M357.01,48.96c3.19-2.47,7.57-2.62,11.4-3.45-.89,4.25-1.98,8.45-3.16,12.63-2.98-2.84-5.93-5.77-8.24-9.18Z"/>
        <path class="cls-2" d="M370.59,45.02c3.61.32,7.23.68,10.84,1.04.49,3,.74,6.03,1.22,9.04-.87.66-1.72,1.34-2.55,2.03-3.25-3.97-6.48-7.96-9.51-12.11Z"/>
        <path class="cls-2" d="M366.61,58.06c.41-4.2,1.75-8.24,3.06-12.23,3.32,3.94,6.51,8,9.71,12.03-.65.78-1.29,1.56-1.91,2.36-3.57-.86-7.86.23-10.86-2.16Z"/>
        <path class="cls-2" d="M382.86,54.13c.32-2.61.49-5.23.65-7.84,2.3.25,4.61.53,6.92.83-2.62,2.23-4.85,4.89-7.57,7.01Z"/>
        <path class="cls-2" d="M344.25,52.38c3.34-1.22,6.75-2.26,10.13-3.36-1.94,3.54-3.89,7.08-5.74,10.67-.61.2-1.82.59-2.42.78-1.73-1.15-3.45-2.32-5.21-3.41.02.26.05.79.07,1.06,1.62,1.32,3.41,2.42,5.14,3.59-1.21,2.2-2.41,4.42-3.8,6.51-2.41-2.27-4.76-4.61-7.08-6.96,2.99-2.94,5.89-5.98,8.91-8.88Z"/>
        <path class="cls-2" d="M348.95,61.31c1.9-4.05,3.99-8.03,6.53-11.73.23,3.54.25,7.08.48,10.62-2.31.54-4.65.93-7.01,1.11Z"/>
        <path class="cls-2" d="M356.39,50.21c2.72,2.85,5.44,5.74,7.68,8.99-2.42.46-4.85.83-7.29,1.17-.07-3.39-.24-6.78-.39-10.16Z"/>
        <path class="cls-2" d="M357.09,61.27c2.34-.36,4.69-.7,7.05-.98-2.2,3.16-4.55,6.2-7.1,9.07-.09-2.7-.08-5.4.05-8.09Z"/>
        <path class="cls-2" d="M365.75,61.84c.56-.42,1.67-1.25,2.22-1.66,2.81.24,5.62.49,8.44.49-3.61,4.05-7.49,7.87-11.49,11.53.45-3.44.59-6.91.83-10.36Z"/>
        <path class="cls-2" d="M349.02,62.71c1.79-.44,3.6-.84,5.41-1.24.38.47,1.14,1.39,1.52,1.85.07,2.47.18,4.93.26,7.39-2.56-2.52-4.91-5.22-7.19-8Z"/>
        <path class="cls-2" d="M357.17,70.99c2.55-3.26,5.1-6.51,7.68-9.73-.24,4.05-.45,8.1-.65,12.15-.33.23-.99.7-1.32.93-2.16-.65-3.96-1.99-5.71-3.35Z"/>
        <path class="cls-2" d="M342.57,68.27c1.58-1.4,2.98-2.99,4.64-4.28,3.47.43,5.01,4.47,7.4,6.68-3.15.19-6.31.37-9.43.83-.85-1.1-1.72-2.18-2.61-3.23Z"/>
        <path class="cls-2" d="M346.17,71.8c3.26.13,6.6-.22,9.77.81h1.99c1.23,1.06,2.46,2.13,3.69,3.19-2.01,1.89-3.95,3.85-5.88,5.82-3.21-3.26-6.64-6.3-9.57-9.82Z"/>
      </g>
    </g>
  </g>
</svg>