<?xml version="1.0" encoding="UTF-8"?>
<svg id="Capa_2" data-name="Capa 2" xmlns="http://www.w3.org/2000/svg" viewBox="0 0 1045.2 307.84">
  <defs>
    <style>
      .cls-1 {
        fill: #fff;
      }

      .cls-2 {
        fill: #039452;
      }
    </style>
  </defs>
  <g id="Layer_1" data-name="Layer 1">
    <g>
      <path class="cls-2" d="M.44.06C13.72-.02,27.01.03,40.29.04c.15,26.64-.04,53.28.1,79.91-.08,8.09,4.27,16.55,12.11,19.52,8.1,2.92,18.17,2.54,25.01-3.15,5.06-4.21,6.91-11.06,6.84-17.42-.01-26.28,0-52.57-.01-78.86,13.31-.03,26.63-.02,39.95,0,.11,25.94.04,51.89.04,77.83-.02,15.42-5.61,31.46-17.79,41.44-10.64,9.66-25.62,11.92-39.46,12.18-9.99-.06-20.07-.59-29.87-2.66-13.8-2.86-25.5-12.99-31.46-25.6C2.14,94.28.25,84.57.45,74.9c.02-24.94.03-49.89-.01-74.84Z"/>
      <path class="cls-2" d="M149.66.02c23.17.02,46.33-.01,69.5.01,10.63.16,21.94,2.42,30.14,9.64,7.07,6.09,10.67,15.3,11.55,24.42.81,9.27.07,19-4.18,27.43-4.06,8.28-11.59,14.66-20.29,17.64-14.73,5.33-30.63,2.98-45.94,3.77-.05,16.21.23,32.42-.13,48.62-13.04-.09-26.08.04-39.12-.04-2.1.32-1.49-2.34-1.63-3.56.12-42.64-.09-85.29.1-127.93ZM190.44,26.93c.04,9.65.04,19.29,0,28.94,5.44.21,10.91.35,16.33-.26,4.29-.53,8.85-1.87,11.67-5.38,5.87-6.75,3.02-19.23-5.76-21.96-7.17-2.25-14.84-1.42-22.24-1.34Z"/>
      <path class="cls-2" d="M303.79,10.61C314.85,1.92,329.46.09,343.09,0c13.33-.11,27.58,1.27,38.86,9.03,9.38,6.51,13.97,17.83,15.22,28.85-12.31.85-24.64,1.6-36.97,2.13-1.32-4.78-2.84-10.08-7.21-13-5.73-3.77-13.39-4.19-19.77-1.96-5.24,1.79-8.54,9.45-3.79,13.49,6.2,4.86,14.6,4.89,21.91,7.04,14.78,3.87,31.18,7.34,41.82,19.24,12.78,14.85,9.83,38.97-3.93,52.21-11.72,11.76-29.2,14.6-45.13,14.46-13.77-.3-28.53-1.37-40.28-9.32-10.88-8.15-17-21.61-17.86-35,12.48-.72,24.93-1.77,37.42-2.23.92,7.58,4.16,15.74,11.52,19.15,7.19,3.23,16.52,3.48,23.13-1.24,4.44-3.21,6.65-9.7,3.68-14.62-3.35-5.96-10.53-7.62-16.59-9.43-13.65-3.31-27.84-6.26-39.7-14.2-7.98-5.29-13.87-14-14.56-23.69-1.34-11.46,3.82-23.29,12.93-30.31Z"/>
      <path class="cls-2" d="M426.12.02c36.31.01,72.63.01,108.94,0,.05,9.37.04,18.73.01,28.1-22.67.09-45.34,0-68.01.04-.18,6.9-.1,13.81-.07,20.71,21.03.08,42.06-.01,63.09.04.01,8.96.04,17.91-.02,26.87-21.01.03-42.03-.07-63.05.04-.06,8.61-.14,17.22.05,25.83,23.34.03,46.67-.06,70.01.03.01,9.96.09,19.92-.05,29.88-36.95-.06-73.91-.06-110.86,0-.14-43.85-.06-87.69-.04-131.54Z"/>
      <path class="cls-1" d="M274.96,179.78c6.27-4.28,14.59-4.22,21.7-2.41,6.42,1.59,10.8,7.78,10.86,14.29-3.35.15-6.7.27-10.05.27-1.13-2.41-2.04-5.46-4.84-6.39-3.78-1.2-8.4-1.18-11.71,1.24-2.36,1.59-1.68,5.37.84,6.42,7.16,3.66,16.1,3.21,22.49,8.51,7.65,6.54,5.5,20.62-3.75,24.62-6.97,2.92-15.22,3.04-22.3.41-6.39-2.44-9.81-9.12-10.49-15.61,3.23-.32,6.47-.62,9.7-.97,1.34,3.43,2.72,7.54,6.57,8.86,4.25,1.44,9.78,1.28,13.06-2.16,2.28-2.22,2.09-6.6-.95-8.05-7.34-3.6-16.68-3.08-22.8-9.12-5.56-5.4-4.7-15.51,1.67-19.91Z"/>
      <path class="cls-1" d="M565.79,179.58c6.58-4.18,15.22-4.13,22.47-1.86,5.97,1.88,9.56,7.83,9.93,13.87-3.32.22-6.64.34-9.96.42-1.34-2.53-2.39-5.85-5.5-6.64-3.79-.95-8.38-.96-11.54,1.61-2.19,1.84-1.05,5.47,1.45,6.42,6.85,3.23,15.03,3.11,21.33,7.62,7.13,5.17,7.25,16.83.92,22.69-4.46,4.19-10.96,4.95-16.81,4.82-5.62-.09-11.72-1.67-15.41-6.21-2.72-3.11-3.7-7.22-4.5-11.16,3.29-.35,6.59-.67,9.9-.9,1.21,3.3,2.52,7.19,6.11,8.6,4.4,1.69,10.34,1.51,13.63-2.27,2.14-2.35,1.67-6.71-1.47-7.95-7.23-3.34-16.2-2.99-22.25-8.73-5.84-5.41-5.01-15.99,1.7-20.33Z"/>
      <path class="cls-1" d="M.12,177.14c3.38.01,6.76.01,10.14.01.27,11.23-.13,22.47.19,33.69-.05,3.8,2.51,7.51,6.27,8.39,3.61.79,7.97.82,10.84-1.85,2.26-2.17,2.26-5.54,2.43-8.44.14-10.6-.12-21.2.13-31.8,3.38.01,6.76.01,10.14.01.1,10.92.22,21.85-.08,32.77-.11,5.03-.84,10.7-4.94,14.16-5.34,4.75-13.03,4.82-19.74,4.17-4.95-.45-9.93-2.8-12.65-7.1C.11,216.96.23,211.72.04,206.91c0-9.93-.12-19.85.08-29.77Z"/>
      <path class="cls-1" d="M51.81,177.13c3.33.02,6.65.02,9.98.04,6.8,10.95,13.34,22.07,20.31,32.92.28-10.98.02-21.97.13-32.95,3.2.01,6.4.01,9.6.02.02,16.83.02,33.66,0,50.49-3.46,0-6.92.01-10.38-.05-6.69-10.68-13.04-21.59-20.03-32.08-.23,10.71.08,21.42-.16,32.13-3.15-.01-6.3,0-9.45.02-.16-16.85-.16-33.7,0-50.54Z"/>
      <path class="cls-1" d="M102.92,177.15c3.38,0,6.76,0,10.14-.01.17,16.84.17,33.68,0,50.52-3.38-.01-6.76-.01-10.14-.01-.14-16.83-.14-33.67,0-50.5Z"/>
      <path class="cls-1" d="M118.29,177.16c3.75-.02,7.5-.04,11.26.07,4.23,12.24,8.13,24.61,12.68,36.74,4.08-12.26,8.13-24.53,12.19-36.79,3.61-.05,7.22-.04,10.82-.02-5.67,16.87-12.05,33.5-17.81,50.35-3.7.16-7.41.18-11.12.13-6-16.83-12.06-33.64-18.02-50.48Z"/>
      <path class="cls-1" d="M171.14,177.13c12.45.02,24.9.04,37.36,0,.07,2.88.08,5.77.05,8.66-9.03.05-18.07-.19-27.11.13.02,3.62.03,7.24.01,10.85,8.4.14,16.81-.01,25.22.09.03,2.83.03,5.66.01,8.49-8.4.11-16.8.04-25.2.03-.03,4.5-.02,9-.03,13.49,9.36.33,18.74.08,28.11.15.02,2.88.01,5.77-.06,8.65-12.79-.04-25.58-.03-38.36,0-.08-16.85-.08-33.69,0-50.54Z"/>
      <path class="cls-1" d="M218.92,177.15c7.74.01,15.49-.02,23.23,0,4.15.12,8.59.23,12.24,2.46,7.54,4.95,7.92,17.89.33,22.97-2.06,1.41-4.5,2.06-6.82,2.89,7.34,5.79,11.43,14.4,16.33,22.14-3.66.03-7.33.19-10.98-.01-1.38.15-2.05-1.2-2.75-2.1-3.13-4.56-6.04-9.27-9.27-13.76-1.41-1.9-2.99-3.94-5.34-4.67-2.22-.48-4.51-.41-6.77-.48-.09,7.02.04,14.05-.08,21.08-3.37-.02-6.75-.02-10.12-.02-.14-16.83-.14-33.67,0-50.5ZM229.11,185.81c-.04,4.18-.03,8.35-.02,12.53,5.58-.08,11.27.58,16.77-.59,4.95-1.64,5.01-10.01-.12-11.45-5.46-1.06-11.09-.35-16.63-.49Z"/>
      <path class="cls-1" d="M317.81,177.13c3.38.02,6.76.02,10.14.01.03,16.84.03,33.68,0,50.52-3.38-.02-6.76-.01-10.14,0-.16-16.84-.16-33.68,0-50.53Z"/>
      <path class="cls-1" d="M338.23,177.15c7.63.07,15.25-.14,22.87.09,5.32.13,10.73,2.3,14.05,6.57,4.6,5.56,5.64,13.09,5.47,20.08-.02,6.73-1.98,13.82-6.89,18.64-3.85,3.74-9.37,5.04-14.59,5.09-6.97.1-13.94-.01-20.91.03-.03-16.83-.03-33.67,0-50.5ZM348.66,185.82c-.11,11.05-.11,22.1,0,33.16,5.13-.15,10.55.78,15.47-1.09,4.82-2.2,5.53-8.22,5.84-12.89.13-5.89.31-13.19-4.85-17.18-4.89-3.04-11.01-1.78-16.46-2Z"/>
      <path class="cls-1" d="M404.34,177.18c3.61.25,7.64-.78,10.98.54,6.94,16.51,13.52,33.2,20.05,49.89-3.7.05-7.39.06-11.09.04-1.48-3.83-2.99-7.64-4.44-11.48-6.71,0-13.41-.15-20.11.12-1.29,3.79-2.71,7.53-4.04,11.31-3.63.08-7.26.06-10.89.01,6.35-16.88,13.06-33.61,19.54-50.43ZM409.58,189.59c-2.24,5.96-4.43,11.93-6.5,17.95,4.42-.01,8.83,0,13.25-.05-2.01-6.05-4.1-12.1-6.75-17.9Z"/>
      <path class="cls-1" d="M441.35,177.16c7.58.04,15.17-.14,22.74.07,4.86.15,9.86,1.79,13.19,5.48,5.13,5.33,6.59,13.05,6.47,20.21.13,6.84-1.63,14.09-6.47,19.16-3.63,3.84-9.05,5.37-14.19,5.51-7.24.16-14.49.02-21.74.05-.02-16.83-.02-33.65,0-50.48ZM451.77,185.82c-.09,11.05-.09,22.1,0,33.15,5.11-.13,10.48.78,15.39-1.04,4.89-2.17,5.65-8.24,5.92-12.95.13-5.91.32-13.3-4.96-17.22-4.89-2.95-10.93-1.73-16.35-1.94Z"/>
      <path class="cls-1" d="M513.23,177.15c12.5.02,25-.04,37.5.03-.02,2.85-.02,5.7.02,8.56-9.04.11-18.07-.05-27.11.08-.07,3.67-.07,7.34.02,11.01,8.4.06,16.8-.12,25.21.1-.03,2.83-.05,5.66-.06,8.5-8.39-.02-16.78-.08-25.16.03-.09,4.5-.1,9.01.01,13.52,9.36.13,18.72-.03,28.09.08-.04,2.85-.04,5.71-.02,8.56-12.84.07-25.67,0-38.5.03-.03-16.83-.03-33.67,0-50.5Z"/>
      <path class="cls-1" d="M605.08,177.15h40.02c.04,2.87.05,5.74.04,8.62-4.99,0-9.97-.03-14.95.07-.13,13.94.11,27.88-.13,41.82-3.32-.01-6.63-.01-9.94,0-.24-13.94,0-27.88-.12-41.82-4.99-.1-9.98-.07-14.96-.07-.02-2.88,0-5.75.04-8.62Z"/>
      <path class="cls-1" d="M661.52,177.21c3.69-.09,7.38-.09,11.08.03,6.46,16.85,13.64,33.44,19.89,50.38-3.68.03-7.35.05-11.03-.01-1.46-3.84-2.94-7.67-4.5-11.46h-19.78c-1.53,3.79-2.92,7.64-4.29,11.49-3.64.02-7.27.01-10.9-.01,6.39-16.85,13.1-33.58,19.53-50.42ZM666.79,189.68c-2.25,5.92-4.41,11.86-6.51,17.84,4.45.04,8.91.07,13.36-.17-2.25-5.9-4.1-11.97-6.85-17.67Z"/>
      <path class="cls-1" d="M689.9,177.15c13.35-.01,26.7.01,40.06,0-.01,2.87-.01,5.75.02,8.63-4.96-.02-9.91-.01-14.86.02-.1,13.96.05,27.91-.08,41.87-3.41-.02-6.83-.02-10.23-.01-.21-13.91-.06-27.83-.08-41.74-4.96-.21-9.92-.15-14.87-.15-.02-2.87-.01-5.75.04-8.62Z"/>
      <path class="cls-1" d="M746.39,177.18c3.68-.08,7.36-.05,11.04.11,6.53,16.82,13.56,33.45,19.97,50.31-3.7.06-7.4.07-11.1.04-1.47-3.83-2.96-7.65-4.43-11.47-6.71.02-13.42-.16-20.12.13-1.26,3.8-2.66,7.55-4.03,11.3-3.61.07-7.22.06-10.83.04,6.24-16.92,13.06-33.62,19.5-50.46ZM751.61,189.61c-2.25,5.94-4.39,11.93-6.5,17.92,4.41,0,8.82.02,13.23-.04-1.96-6.05-4.04-12.1-6.73-17.88Z"/>
      <path class="cls-1" d="M783.77,177.56c3.42-.05,6.86-.05,10.3,0,.06,13.81-.03,27.62.05,41.43,8.4.09,16.8,0,25.21.05,0,2.87-.01,5.74-.05,8.61-11.82.01-23.64-.01-35.47.01-.2-16.7-.1-33.4-.04-50.1Z"/>
      <path class="cls-1" d="M150.31,243.16c3.63-.03,7.26-.01,10.9-.01-3.17,3.43-6.02,7.22-9.63,10.2-1.9.29-3.84.2-5.75.24,1.13-3.62,2.74-7.06,4.48-10.43Z"/>
      <path class="cls-1" d="M47.9,256.35c12.38.07,24.76.07,37.14,0,.08,2.86.12,5.72.12,8.58-9.01.09-18.02.01-27.04.04-.04,3.67-.04,7.35-.01,11.02,8.4.08,16.81,0,25.21.05,0,2.87,0,5.74-.03,8.61-8.39.03-16.79-.05-25.18.04-.04,4.51-.04,9.02,0,13.54,9.31.09,18.63.04,27.95.02.08,2.87.1,5.75.1,8.63-12.8.04-25.6.03-38.4,0,0-16.84-.26-33.69.14-50.53Z"/>
      <path class="cls-1" d="M95.48,256.37c3.37.03,6.73.02,10.1.05,6.87,10.97,13.35,22.17,20.41,33.01.23-10.99.03-21.99.1-32.98,3.12-.05,6.23-.06,9.35-.1.4,16.82,0,33.65.2,50.47-3.44.09-6.89.09-10.33.06-6.77-10.74-13.22-21.67-20.12-32.32-.24,10.78,0,21.56-.11,32.35-3.22-.01-6.43-.01-9.65-.07.09-16.82,0-33.65.05-50.47Z"/>
      <path class="cls-1" d="M198,256.37c3.09.02,6.19.02,9.28-.02.4,16.84.12,33.7.14,50.54-3.42.01-6.83.01-10.25,0-6.79-10.67-13.16-21.6-20.08-32.19-.28,10.72-.05,21.46-.12,32.19-3.22.01-6.43.01-9.65-.03.03-16.78.04-33.56,0-50.34,3.23-.11,6.47-.31,9.7-.02.78.72,1.45,1.54,1.99,2.47,6.28,10.07,12.16,20.4,18.75,30.27.27-10.96-.18-21.92.24-32.87Z"/>
      <path class="cls-1" d="M223.27,259.09c6.56-4.53,15.41-4.36,22.78-2.19,6.04,1.83,9.5,7.79,10.09,13.8-3.36.27-6.71.46-10.07.61-1.27-2.36-2.1-5.47-4.87-6.49-3.84-1.34-8.56-1.25-11.92,1.23-2.41,1.72-1.42,5.55,1.18,6.52,7.2,3.49,16.12,3.12,22.41,8.52,7.31,6.49,5.38,19.96-3.42,24.2-7.19,3.27-15.9,3.38-23.23.48-6.25-2.49-9.23-9.14-10.14-15.41,3.29-.33,6.58-.64,9.88-.89,1.15,2.8,2.01,6.08,4.7,7.85,3.23,2.11,7.43,2.05,11.05,1.13,3.1-.85,5.94-3.95,5.21-7.33-.47-2.7-3.37-3.7-5.63-4.45-6.57-2.1-14.17-2.59-19.37-7.6-5.69-5.28-4.98-15.51,1.35-19.98Z"/>
      <path class="cls-1" d="M266.48,256.38c3.4.02,6.81.02,10.22,0,.05,10.17-.02,20.35.02,30.52.09,3.32.06,7.23,2.82,9.59,3.55,3.05,9.17,3.19,13.21,1.05,3.4-1.91,3.53-6.2,3.63-9.64.21-10.5.01-21.01.1-31.52,3.4.02,6.81.02,10.22,0,0,10.52.09,21.04-.04,31.56-.16,5.22-.5,11.14-4.56,14.96-5.24,5.06-13.12,5.22-19.94,4.61-5.94-.41-11.95-3.81-14.17-9.54-1.49-4.17-1.47-8.67-1.54-13.04.03-9.52-.01-19.03.03-28.55Z"/>
      <path class="cls-1" d="M482.48,256.38c12.48.01,24.96.05,37.44-.02.03,2.85.04,5.69.06,8.55-9.03.15-18.07-.01-27.1.08-.06,3.66-.06,7.32-.01,10.99,8.4.11,16.81.01,25.21.05,0,2.87,0,5.75-.02,8.63-8.39.01-16.78-.07-25.17.04-.08,4.5-.09,9.01,0,13.52,9.35.12,18.7.04,28.04.03.02,2.87.03,5.74.06,8.62-12.85.03-25.71.1-38.56-.04.09-16.82-.01-33.63.05-50.45Z"/>
      <path class="cls-1" d="M552.16,261.94c3.33-4.72,9.42-6.34,14.93-6.43,5.96-.2,12.72.8,16.86,5.54,2.51,2.62,3.23,6.29,3.75,9.75-3.29.18-6.57.34-9.85.54-1.39-2.52-2.4-5.88-5.51-6.73-3.68-1.04-8.03-.94-11.25,1.3-2.32,1.53-1.83,5.29.62,6.43,7.14,3.72,16.05,3.25,22.5,8.46,7.56,6.27,5.92,19.93-2.83,24.35-6.95,3.37-15.34,3.41-22.59,1.01-6.64-2.28-10.36-9.13-10.91-15.82,3.17-.32,6.35-.6,9.53-.97,1.45,3.27,2.7,7.28,6.35,8.73,3.53,1.33,7.73,1.34,11.16-.31,2.54-1.29,4.55-4.32,3.53-7.2-.89-2.51-3.69-3.34-5.97-4.07-6.16-1.89-13.07-2.5-18.19-6.78-5.15-4.23-6.09-12.46-2.13-17.8Z"/>
      <path class="cls-1" d="M650,256.36c3.26.03,6.51.04,9.78.01,6.94,10.71,13.05,21.97,20.31,32.48.55-10.77.13-21.57.23-32.35,3.21-.11,6.43-.11,9.66-.05-.03,16.81-.01,33.62-.01,50.44-3.52.03-7.03.03-10.53-.11-6.61-10.77-13.08-21.64-20.02-32.2-.2,10.77.02,21.54-.11,32.31-3.15.01-6.3.01-9.44,0,.02-16.84-.23-33.69.13-50.53Z"/>
      <path class="cls-1" d="M697.54,256.56c13.41-.39,26.84-.03,40.26-.19.02,2.83.04,5.67.06,8.51-4.94.13-9.88.09-14.82.11-.18,13.96-.03,27.93-.07,41.9-3.48.02-6.96.02-10.43-.07.06-13.95.11-27.9-.03-41.85-4.95,0-9.91.01-14.86-.02-.05-2.8-.09-5.6-.11-8.39Z"/>
      <path class="cls-1" d="M809.17,256.35c12.37.07,24.75.07,37.13,0,.11,2.86.18,5.72.17,8.59-9.1.09-18.19-.03-27.28.07-.04,3.64-.04,7.29-.01,10.94,8.45.16,16.91.04,25.38.06.01,2.89,0,5.78-.07,8.66-8.44-.02-16.87-.07-25.31.03-.04,4.5-.04,9.01,0,13.52,9.38.12,18.76.05,28.15.03.09,2.87.13,5.75.14,8.63-12.81.03-25.61.04-38.41,0,0-16.84-.21-33.69.11-50.53Z"/>
      <path class="cls-1" d="M900.38,256.37c12.47.04,24.95.04,37.42,0,.02,2.83.04,5.66.07,8.5-9.04.23-18.07.03-27.1.11-.08,3.67-.08,7.33-.01,11,8.4.1,16.81.02,25.22.05-.03,2.87-.03,5.75-.02,8.62-8.4.03-16.79-.07-25.18.05-.11,4.51-.1,9.02-.01,13.52,9.34.12,18.69.03,28.05.05,0,2.86.02,5.72.05,8.58-12.85.08-25.7.08-38.54,0,.05-16.82-.05-33.65.05-50.48Z"/>
      <path class="cls-1" d="M978.9,256.35c3.03.04,6.07.04,9.11,0,.32,16.84.11,33.69.11,50.53-3.36.02-6.72.02-10.07.05-6.94-10.45-12.88-21.55-20.11-31.81-.49,10.56-.13,21.15-.19,31.72-3.22.06-6.44.06-9.65.07-.03-16.82-.01-33.65-.01-50.47,3.34-.05,6.69-.05,10.04-.03,7.01,10.84,13.23,22.19,20.51,32.85.29-10.97-.21-21.94.26-32.91Z"/>
      <path class="cls-1" d="M.1,256.45c6.99-.09,13.98-.06,20.97-.05,3.82.12,7.93.15,11.25,2.31,9.5,6.07,8.59,22.95-1.95,27.47-6.36,2.45-13.38,1.42-20.05,1.77.02,6.31.05,12.62-.01,18.93-3.41.02-6.81.02-10.21.02-.03-16.82-.01-33.63,0-50.45ZM10.35,265.01c-.02,4.69-.02,9.37,0,14.06,4.69-.03,9.59.65,14.09-.95,4.77-2.02,5.03-9.67.38-11.98-4.56-1.87-9.67-.99-14.47-1.13Z"/>
      <path class="cls-1" d="M146.76,256.44c3.4-.05,6.81-.05,10.21.02-.01,16.81,0,33.61,0,50.42-3.41.02-6.81.02-10.21.01-.08-16.81-.08-33.63,0-50.45Z"/>
      <path class="cls-1" d="M318.33,256.9c3.44-.09,6.87-.08,10.31.06-.06,13.76-.1,27.51.01,41.27,8.43.09,16.86.04,25.28.02.02,2.87.03,5.74.06,8.62-11.89.04-23.78.07-35.67-.02.04-16.65.02-33.3.01-49.95Z"/>
      <path class="cls-1" d="M376.18,256.46c3.65-.08,7.3-.08,10.96-.02,6.74,16.8,13.64,33.55,20.13,50.45-3.7.01-7.41.02-11.11,0-1.5-3.66-2.68-7.44-4.37-11.01-6.51-1.15-13.32-.15-19.94-.49-1.52,3.75-2.95,7.53-4.18,11.38-3.67.17-7.35.15-11.03.08,6.41-16.84,13.09-33.57,19.54-50.39ZM374.98,286.78c4.44.08,8.89.08,13.33-.02-2.09-6.05-4.35-12.05-6.65-18.03-2.52,5.9-4.6,11.98-6.68,18.05Z"/>
      <path class="cls-1" d="M431.05,256.46c7.68-.05,15.37-.19,23.06.03,5.26.13,10.54,2.4,13.78,6.63,4.73,5.78,5.63,13.59,5.4,20.8-.19,6.34-2.14,12.92-6.62,17.57-3.77,3.8-9.28,5.23-14.5,5.35-7.03.16-14.07.03-21.11.04-.07-16.81-.06-33.62-.01-50.42ZM441.2,265c-.08,11.07-.04,22.14-.03,33.21,5.31-.1,10.94.81,15.98-1.26,4.66-2.45,5.19-8.41,5.48-13.08.1-5.76.23-12.85-4.76-16.77-4.94-3.11-11.14-1.88-16.67-2.1Z"/>
      <path class="cls-1" d="M612.52,257.14c2.65-1.63,6.48-.51,9.6-.71,1.67-.28,2.02,1.76,2.63,2.86,6.27,15.89,12.69,31.73,19.02,47.6-3.77.02-7.54.04-11.31-.08-1.41-3.8-2.86-7.58-4.35-11.35-6.67-.1-13.34-.09-20.01,0-1.39,3.8-2.8,7.6-4.17,11.41-3.65.05-7.3.03-10.94.02,6.53-16.57,12.69-33.32,19.53-49.75ZM611.3,286.79c4.45.06,8.9.06,13.36-.01-2.04-5.98-4.11-11.97-6.7-17.73-2.57,5.77-4.47,11.81-6.66,17.74Z"/>
      <path class="cls-1" d="M754.18,256.47c3.65-.09,7.3-.09,10.96-.04,6.77,16.8,13.62,33.56,20.13,50.46-3.71.01-7.41.02-11.11,0-1.5-3.65-2.67-7.44-4.37-11.01-6.51-1.15-13.32-.15-19.94-.48-1.53,3.74-2.96,7.52-4.17,11.38-3.68.16-7.36.14-11.04.07,6.42-16.84,13.09-33.57,19.54-50.38ZM759.5,268.74c-2.26,5.98-4.49,11.98-6.52,18.04,4.44.08,8.88.08,13.33-.02-2.15-6.05-4.21-12.14-6.81-18.02Z"/>
      <path class="cls-1" d="M857.06,256.86c3.35-.04,6.7-.04,10.06,0,.1,13.78,0,27.57.05,41.36,8.39.12,16.77.05,25.16.03.1,2.87.13,5.75.14,8.63-11.81.03-23.61.04-35.41,0-.07-16.68-.07-33.35,0-50.02Z"/>
      <path class="cls-1" d="M1014.07,256.44c3.65-.06,7.3-.06,10.96.01,6.67,16.83,13.53,33.59,20.17,50.44-3.73.01-7.45.02-11.17-.01-1.76-3.72-2.48-8.08-4.98-11.36-6.57-.28-13.15-.19-19.71.07-1.17,3.85-2.57,7.62-4.08,11.35-3.58-.03-7.16-.05-10.73-.07,6.32-16.88,13.05-33.61,19.54-50.43ZM1012.83,286.75c4.45.12,8.9.11,13.36.03-2.12-6.05-4.39-12.06-6.68-18.05-2.56,5.88-4.57,11.97-6.68,18.02Z"/>
    </g>
  </g>
</svg>