<?xml version="1.0" encoding="UTF-8"?>
<svg id="Capa_2" data-name="Capa 2" xmlns="http://www.w3.org/2000/svg" viewBox="0 0 182.3 28.9">
  <defs>
    <style>
      .cls-1 {
        fill: #d74e2a;
      }
    </style>
  </defs>
  <g id="Layer_1" data-name="Layer 1">
    <path class="cls-1" d="M24.3.3h5.9l-12.6,17.1v11h-5l.1-11L0,.3h6.1l9.1,12.8L24.3.3ZM43.8,0h.6l14.8,28.6h-5.7l-2.8-5.6h-13.5l-2.8,5.5h-5.5L43.8,0ZM48.6,18.4l-4.6-9.2h-.1l-4.6,9.3h9.3v-.1ZM84,17.8V.3h5v28.6h-.6l-17.5-18v17.6h-5V0h.6l17.5,17.8ZM121.9,20.6c0,4.8-3.7,8-9.8,8h-10.8V.3h10.4c5.5,0,9.4,2.8,9.4,7.5,0,2.8-1.7,4.9-4,6.1,2.9,1.2,4.8,3.4,4.8,6.7M106,4.4v7.3h5.4c2.7,0,4.5-1,4.5-3.7s-1.8-3.6-4.5-3.6c0,0-5.4,0-5.4,0ZM111.8,24.2c3.3,0,5.1-1.3,5.1-4s-1.7-4-5.1-4h-5.8v8.2l5.8-.2h0ZM141.8,0h.6l14.8,28.6h-5.8l-2.8-5.6h-13.6l-2.8,5.6h-5.5L141.8,0ZM146.6,18.4l-4.6-9.3h-.1l-4.6,9.3h9.3ZM170,24h12.3l-1.7,4.6h-15.4V.3h5l-.2,23.7h0Z"/>
  </g>
</svg>